<svg width="95" height="95" viewBox="0 0 95 95" fill="none" xmlns="http://www.w3.org/2000/svg">
<path d="M27.7081 39.5841H39.5831V27.7091L25.7289 13.8549C30.1608 11.7383 35.1399 11.0477 39.9805 11.8782C44.8211 12.7087 49.2852 15.0195 52.7581 18.4924C56.231 21.9652 58.5418 26.4293 59.3723 31.27C60.2028 36.1106 59.5122 41.0897 57.3956 45.5216L81.1456 69.2716C82.7203 70.8463 83.605 72.9821 83.605 75.2091C83.605 77.4361 82.7203 79.5718 81.1456 81.1466C79.5709 82.7213 77.4351 83.606 75.2081 83.606C72.9811 83.606 70.8453 82.7213 69.2706 81.1466L45.5206 57.3966C41.0887 59.5132 36.1096 60.2038 31.269 59.3733C26.4284 58.5427 21.9643 56.2319 18.4914 52.7591C15.0185 49.2862 12.7077 44.8221 11.8772 39.9815C11.0467 35.1408 11.7373 30.1618 13.8539 25.7299L27.7081 39.5841Z" stroke="#0071BA" stroke-width="6" stroke-linecap="round" stroke-linejoin="round"/>
</svg>
