<svg width="95" height="95" viewBox="0 0 95 95" fill="none" xmlns="http://www.w3.org/2000/svg">
<path d="M59.3735 87.0828L58.2758 88.7295C58.883 89.1344 59.664 89.1724 60.3073 88.828C60.9509 88.4832 61.3526 87.8127 61.3526 87.0828H59.3735ZM47.4985 79.1661L48.5965 77.5195C47.9315 77.0761 47.0654 77.0761 46.4008 77.5195L47.4985 79.1661ZM35.6236 87.0828H33.6444C33.6444 87.8127 34.0461 88.4832 34.6897 88.828C35.3332 89.1724 36.1141 89.1344 36.7214 88.7295L35.6236 87.0828ZM60.4715 85.4361L48.5965 77.5195L46.4008 80.8128L58.2758 88.7295L60.4715 85.4361ZM46.4008 77.5195L34.5257 85.4361L36.7214 88.7295L48.5965 80.8128L46.4008 77.5195ZM52.0205 12.3264L52.1875 12.5224L55.2022 9.95723L55.0351 9.76126L52.0205 12.3264ZM60.5186 15.9734L60.7751 15.9527L60.4573 12.0072L60.2008 12.0278L60.5186 15.9734ZM67.1702 22.3478L67.1496 22.6043L71.0953 22.9222L71.1159 22.6657L67.1702 22.3478ZM70.6005 30.9357L70.7964 31.1025L73.3618 28.0878L73.1659 27.921L70.6005 30.9357ZM70.7964 40.1465L70.6005 40.3135L73.1659 43.3282L73.3618 43.1611L70.7964 40.1465ZM67.1496 48.6446L67.1702 48.9011L71.1159 48.5832L71.0953 48.3267L67.1496 48.6446ZM60.7751 55.2962L60.5186 55.2756L60.2008 59.2213L60.4573 59.2419L60.7751 55.2962ZM52.1875 58.7265L52.0205 58.9228L55.0351 61.4878L55.2022 61.2919L52.1875 58.7265ZM42.9765 58.9224L42.8098 58.7265L39.7952 61.2919L39.9618 61.4878L42.9765 58.9224ZM34.4784 55.2756L34.2219 55.2962L34.5397 59.2419L34.7962 59.2213L34.4784 55.2756ZM27.8267 48.9011L27.8474 48.6446L23.9019 48.3267L23.8812 48.5832L27.8267 48.9011ZM24.3964 40.3135L24.2004 40.1465L21.6353 43.1611L21.8313 43.3282L24.3964 40.3135ZM24.2004 31.1025L24.3964 30.9357L21.8313 27.921L21.6353 28.0878L24.2004 31.1025ZM27.8474 22.6043L27.8267 22.3478L23.8812 22.6657L23.9019 22.9222L27.8474 22.6043ZM34.2219 15.9527L34.4784 15.9734L34.7962 12.0278L34.5397 12.0072L34.2219 15.9527ZM42.8098 12.5224L42.9765 12.3264L39.9618 9.76126L39.7952 9.95723L42.8098 12.5224ZM34.4784 15.9734C37.6487 16.2288 40.7487 14.9448 42.8098 12.5224L39.7952 9.95723C38.5583 11.4107 36.6984 12.1811 34.7962 12.0278L34.4784 15.9734ZM27.8267 22.3478C27.533 18.7012 30.5752 15.6589 34.2219 15.9527L34.5397 12.0072C28.4619 11.5175 23.3916 16.5879 23.8812 22.6657L27.8267 22.3478ZM24.3964 30.9357C26.8188 28.8745 28.1028 25.7747 27.8474 22.6043L23.9019 22.9222C24.0551 24.8244 23.2847 26.6843 21.8313 27.921L24.3964 30.9357ZM24.2004 40.1465C21.4141 37.7757 21.4141 33.4733 24.2004 31.1025L21.6353 28.0878C16.9914 32.0392 16.9914 39.2098 21.6353 43.1611L24.2004 40.1465ZM27.8474 48.6446C28.1028 45.4744 26.8188 42.3746 24.3964 40.3135L21.8313 43.3282C23.2847 44.5647 24.0551 46.4248 23.9019 48.3267L27.8474 48.6446ZM34.2219 55.2962C30.5752 55.5903 27.533 52.5479 27.8267 48.9011L23.8812 48.5832C23.3916 54.6613 28.4619 59.7315 34.5397 59.2419L34.2219 55.2962ZM52.0205 58.9228C49.6498 61.7095 45.3475 61.7091 42.9765 58.9224L39.9618 61.4878C43.9134 66.1317 51.0839 66.1317 55.0351 61.4878L52.0205 58.9228ZM67.1702 48.9011C67.4643 52.5479 64.4219 55.5903 60.7751 55.2962L60.4573 59.2419C66.5353 59.7315 71.6055 54.6613 71.1159 48.5832L67.1702 48.9011ZM70.6005 40.3135C68.1784 42.3746 66.8943 45.4744 67.1496 48.6446L71.0953 48.3267C70.9421 46.4248 71.7124 44.5647 73.1659 43.3282L70.6005 40.3135ZM70.7964 31.1025C73.5831 33.4733 73.5831 37.7757 70.7964 40.1465L73.3618 43.1611C78.0057 39.2098 78.0057 32.0392 73.3618 28.0878L70.7964 31.1025ZM67.1496 22.6043C66.8943 25.7747 68.1784 28.8745 70.6005 30.9357L73.1659 27.921C71.7124 26.6843 70.9421 24.8244 71.0953 22.9222L67.1496 22.6043ZM60.7751 15.9527C64.4219 15.6589 67.4643 18.7012 67.1702 22.3478L71.1159 22.6657C71.6055 16.5879 66.5353 11.5175 60.4573 12.0072L60.7751 15.9527ZM52.1875 12.5224C54.2486 14.9448 57.3484 16.2288 60.5186 15.9734L60.2008 12.0278C58.2988 12.1811 56.4388 11.4107 55.2022 9.95723L52.1875 12.5224ZM55.0351 9.76126C51.0839 5.11734 43.9134 5.11734 39.9618 9.76126L42.9765 12.3264C45.3475 9.54007 49.6498 9.54007 52.0205 12.3264L55.0351 9.76126ZM42.8098 58.7265C41.0167 56.6195 38.4384 55.3738 35.711 55.2534L35.5361 59.2078C37.1723 59.2802 38.7195 60.0276 39.7952 61.2919L42.8098 58.7265ZM35.711 55.2534C35.3026 55.2352 34.891 55.2424 34.4784 55.2756L34.7962 59.2213C35.0441 59.2011 35.2912 59.1971 35.5361 59.2078L35.711 55.2534ZM37.6027 87.0828V57.2306H33.6444V87.0828H37.6027ZM60.5186 55.2756C60.1062 55.2424 59.6945 55.2352 59.286 55.2534L59.461 59.2078C59.706 59.1971 59.953 59.2011 60.2008 59.2213L60.5186 55.2756ZM59.286 55.2534C56.5587 55.3738 53.9802 56.6195 52.1875 58.7265L55.2022 61.2919C56.2777 60.0276 57.8246 59.2802 59.461 59.2078L59.286 55.2534ZM57.3943 57.2306V87.0828H61.3526V57.2306H57.3943Z" fill="#0071BA"/>
<path d="M58.2758 88.7295L59.3735 87.0828H61.3526M58.2758 88.7295C58.883 89.1344 59.664 89.1724 60.3073 88.828C60.9509 88.4832 61.3526 87.8127 61.3526 87.0828M58.2758 88.7295L46.4008 80.8128L48.5965 77.5195M58.2758 88.7295L60.4715 85.4361L48.5965 77.5195M61.3526 87.0828H57.3943V57.2306H61.3526V87.0828ZM48.5965 77.5195L47.4985 79.1661L46.4008 77.5195M48.5965 77.5195C47.9315 77.0761 47.0654 77.0761 46.4008 77.5195M46.4008 77.5195L34.5257 85.4361L36.7214 88.7295M46.4008 77.5195L48.5965 80.8128L36.7214 88.7295M33.6444 87.0828H35.6236L36.7214 88.7295M33.6444 87.0828C33.6444 87.8127 34.0461 88.4832 34.6897 88.828C35.3332 89.1724 36.1141 89.1344 36.7214 88.7295M33.6444 87.0828V57.2306H37.6027V87.0828H33.6444ZM34.6373 14.0006L34.4784 15.9734M34.4784 15.9734L34.2219 15.9527M34.4784 15.9734L34.7962 12.0278M34.4784 15.9734C37.6487 16.2288 40.7487 14.9448 42.8098 12.5224M41.3025 11.2398L39.7952 9.95723M39.7952 9.95723L39.9618 9.76126M39.7952 9.95723L42.8098 12.5224M39.7952 9.95723C38.5583 11.4107 36.6984 12.1811 34.7962 12.0278M25.854 22.5068L23.8812 22.6657M23.8812 22.6657L27.8267 22.3478M23.8812 22.6657L23.9019 22.9222M23.8812 22.6657C23.3916 16.5879 28.4619 11.5175 34.5397 12.0072M34.3808 13.9799L34.5397 12.0072M34.5397 12.0072L34.7962 12.0278M34.5397 12.0072L34.2219 15.9527M23.1138 29.4284L24.3964 30.9357M24.3964 30.9357L24.2004 31.1025M24.3964 30.9357L21.8313 27.921M24.3964 30.9357C26.8188 28.8745 28.1028 25.7747 27.8474 22.6043M25.8746 22.7633L27.8474 22.6043M27.8474 22.6043L27.8267 22.3478M27.8474 22.6043L23.9019 22.9222M22.9179 41.6538L21.6353 43.1611M21.6353 43.1611L24.2004 40.1465M21.6353 43.1611L21.8313 43.3282M21.6353 43.1611C16.9914 39.2098 16.9914 32.0392 21.6353 28.0878M22.9179 29.5951L21.6353 28.0878M21.6353 28.0878L21.8313 27.921M21.6353 28.0878L24.2004 31.1025M25.8746 48.4859L23.9019 48.3267M23.9019 48.3267L27.8474 48.6446M23.9019 48.3267L23.8812 48.5832M23.9019 48.3267C24.0551 46.4248 23.2847 44.5647 21.8313 43.3282M23.1138 41.8208L24.3964 40.3135M24.3964 40.3135L24.2004 40.1465M24.3964 40.3135L21.8313 43.3282M24.3964 40.3135C26.8188 42.3746 28.1028 45.4744 27.8474 48.6446M34.3808 57.269L34.5397 59.2419M34.5397 59.2419L34.2219 55.2962M34.5397 59.2419L34.7962 59.2213M34.5397 59.2419C28.4619 59.7315 23.3916 54.6613 23.8812 48.5832M25.854 48.7424L27.8267 48.9011M27.8267 48.9011L27.8474 48.6446M27.8267 48.9011L23.8812 48.5832M27.8267 48.9011C27.533 52.5479 30.5752 55.5903 34.2219 55.2962M41.3025 60.0094L42.8098 58.7265M42.8098 58.7265L42.9765 58.9224M42.8098 58.7265L39.7952 61.2919M42.8098 58.7265C41.0167 56.6195 38.4384 55.3738 35.711 55.2534M34.6373 57.2484L34.4784 55.2756M34.4784 55.2756L34.2219 55.2962M34.4784 55.2756L34.7962 59.2213M34.4784 55.2756C34.891 55.2424 35.3026 55.2352 35.711 55.2534M53.5278 60.2053L55.0351 61.4878M55.0351 61.4878L52.0205 58.9228M55.0351 61.4878L55.2022 61.2919M55.0351 61.4878C51.0839 66.1317 43.9134 66.1317 39.9618 61.4878M41.4691 60.2053L39.9618 61.4878M39.9618 61.4878L39.7952 61.2919M39.9618 61.4878L42.9765 58.9224M60.3599 57.2484L60.5186 55.2756M60.5186 55.2756L60.7751 55.2962M60.5186 55.2756L60.2008 59.2213M60.5186 55.2756C60.1062 55.2424 59.6945 55.2352 59.286 55.2534M53.6949 60.0094L52.1875 58.7265M52.1875 58.7265L52.0205 58.9228M52.1875 58.7265L55.2022 61.2919M52.1875 58.7265C53.9802 56.6195 56.5587 55.3738 59.286 55.2534M69.143 48.7424L71.1159 48.5832M71.1159 48.5832L67.1702 48.9011M71.1159 48.5832L71.0953 48.3267M71.1159 48.5832C71.6055 54.6613 66.5353 59.7315 60.4573 59.2419M60.6164 57.269L60.4573 59.2419M60.4573 59.2419L60.2008 59.2213M60.4573 59.2419L60.7751 55.2962M71.8834 41.8208L73.1659 43.3282M73.1659 43.3282L70.6005 40.3135M73.1659 43.3282L73.3618 43.1611M73.1659 43.3282C71.7124 44.5647 70.9421 46.4248 71.0953 48.3267M69.1225 48.4859L67.1496 48.6446M67.1496 48.6446L67.1702 48.9011M67.1496 48.6446L71.0953 48.3267M67.1496 48.6446C66.8943 45.4744 68.1784 42.3746 70.6005 40.3135M72.0793 29.5951L73.3618 28.0878M73.3618 28.0878L70.7964 31.1025M73.3618 28.0878L73.1659 27.921M73.3618 28.0878C78.0057 32.0392 78.0057 39.2098 73.3618 43.1611M72.0793 41.6538L70.7964 40.1465M70.7964 40.1465L70.6005 40.3135M70.7964 40.1465L73.3618 43.1611M70.7964 40.1465C73.5831 37.7757 73.5831 33.4733 70.7964 31.1025M69.1225 22.7633L67.1496 22.6043M67.1496 22.6043L67.1702 22.3478M67.1496 22.6043L71.0953 22.9222M67.1496 22.6043C66.8943 25.7747 68.1784 28.8745 70.6005 30.9357M71.8834 29.4284L70.6005 30.9357M70.6005 30.9357L70.7964 31.1025M70.6005 30.9357L73.1659 27.921M60.6164 13.9799L60.4573 12.0072M60.4573 12.0072L60.7751 15.9527M60.4573 12.0072L60.2008 12.0278M60.4573 12.0072C66.5353 11.5175 71.6055 16.5879 71.1159 22.6657M69.143 22.5068L71.1159 22.6657M71.1159 22.6657L71.0953 22.9222M71.1159 22.6657L67.1702 22.3478M53.6949 11.2398L55.2022 9.95723M55.2022 9.95723L52.1875 12.5224M55.2022 9.95723L55.0351 9.76126M55.2022 9.95723C56.4388 11.4107 58.2988 12.1811 60.2008 12.0278M60.3599 14.0006L60.5186 15.9734M60.5186 15.9734L60.7751 15.9527M60.5186 15.9734L60.2008 12.0278M60.5186 15.9734C57.3484 16.2288 54.2486 14.9448 52.1875 12.5224M53.5278 11.0438L52.0205 12.3264M52.0205 12.3264L52.1875 12.5224M52.0205 12.3264L55.0351 9.76126M52.0205 12.3264C49.6498 9.54007 45.3475 9.54007 42.9765 12.3264M41.4691 11.0438L42.9765 12.3264M42.9765 12.3264L42.8098 12.5224M42.9765 12.3264L39.9618 9.76126M35.6236 57.2306L35.711 55.2534M35.711 55.2534L35.5361 59.2078M55.0351 9.76126C51.0839 5.11734 43.9134 5.11734 39.9618 9.76126M60.7751 15.9527C64.4219 15.6589 67.4643 18.7012 67.1702 22.3478M71.0953 22.9222C70.9421 24.8244 71.7124 26.6843 73.1659 27.921M67.1702 48.9011C67.4643 52.5479 64.4219 55.5903 60.7751 55.2962M60.2008 59.2213C59.953 59.2011 59.706 59.1971 59.461 59.2078M52.0205 58.9228C49.6498 61.7095 45.3475 61.7091 42.9765 58.9224M55.2022 61.2919C56.2777 60.0276 57.8246 59.2802 59.461 59.2078M39.7952 61.2919C38.7195 60.0276 37.1723 59.2802 35.5361 59.2078M34.7962 59.2213C35.0441 59.2011 35.2912 59.1971 35.5361 59.2078M24.2004 40.1465C21.4141 37.7757 21.4141 33.4733 24.2004 31.1025M21.8313 27.921C23.2847 26.6843 24.0551 24.8244 23.9019 22.9222M27.8267 22.3478C27.533 18.7012 30.5752 15.6589 34.2219 15.9527M59.286 55.2534L59.461 59.2078" stroke="#0071BA" stroke-width="2"/>
<path d="M55.4154 31.667L43.5404 43.542L39.582 39.5837" stroke="#0071BA" stroke-width="3.95833" stroke-linecap="round" stroke-linejoin="round"/>
</svg>
