<svg width="95" height="95" viewBox="0 0 95 95" fill="none" xmlns="http://www.w3.org/2000/svg">
<path d="M15.8333 27.7083H27.7083C28.7581 27.7083 29.765 27.2913 30.5073 26.549C31.2496 25.8066 31.6667 24.7998 31.6667 23.75V19.7917C31.6667 17.692 32.5007 15.6784 33.9854 14.1937C35.4701 12.7091 37.4837 11.875 39.5833 11.875C41.683 11.875 43.6966 12.7091 45.1813 14.1937C46.6659 15.6784 47.5 17.692 47.5 19.7917V23.75C47.5 24.7998 47.917 25.8066 48.6594 26.549C49.4017 27.2913 50.4085 27.7083 51.4583 27.7083H63.3333C64.3831 27.7083 65.39 28.1254 66.1323 28.8677C66.8746 29.61 67.2917 30.6169 67.2917 31.6667V43.5417C67.2917 44.5915 67.7087 45.5983 68.451 46.3406C69.1934 47.083 70.2002 47.5 71.25 47.5H75.2083C77.308 47.5 79.3216 48.3341 80.8063 49.8187C82.2909 51.3034 83.125 53.317 83.125 55.4167C83.125 57.5163 82.2909 59.5299 80.8063 61.0146C79.3216 62.4993 77.308 63.3333 75.2083 63.3333H71.25C70.2002 63.3333 69.1934 63.7504 68.451 64.4927C67.7087 65.235 67.2917 66.2419 67.2917 67.2917V79.1667C67.2917 80.2165 66.8746 81.2233 66.1323 81.9656C65.39 82.708 64.3831 83.125 63.3333 83.125H51.4583C50.4085 83.125 49.4017 82.708 48.6594 81.9656C47.917 81.2233 47.5 80.2165 47.5 79.1667V75.2083C47.5 73.1087 46.6659 71.0951 45.1813 69.6104C43.6966 68.1257 41.683 67.2917 39.5833 67.2917C37.4837 67.2917 35.4701 68.1257 33.9854 69.6104C32.5007 71.0951 31.6667 73.1087 31.6667 75.2083V79.1667C31.6667 80.2165 31.2496 81.2233 30.5073 81.9656C29.765 82.708 28.7581 83.125 27.7083 83.125H15.8333C14.7835 83.125 13.7767 82.708 13.0344 81.9656C12.292 81.2233 11.875 80.2165 11.875 79.1667V67.2917C11.875 66.2419 12.292 65.235 13.0344 64.4927C13.7767 63.7504 14.7835 63.3333 15.8333 63.3333H19.7917C21.8913 63.3333 23.9049 62.4993 25.3896 61.0146C26.8743 59.5299 27.7083 57.5163 27.7083 55.4167C27.7083 53.317 26.8743 51.3034 25.3896 49.8187C23.9049 48.3341 21.8913 47.5 19.7917 47.5H15.8333C14.7835 47.5 13.7767 47.083 13.0344 46.3406C12.292 45.5983 11.875 44.5915 11.875 43.5417V31.6667C11.875 30.6169 12.292 29.61 13.0344 28.8677C13.7767 28.1254 14.7835 27.7083 15.8333 27.7083Z" stroke="#0071BA" stroke-width="6" stroke-linecap="round" stroke-linejoin="round"/>
</svg>
