<svg width="50" height="50" viewBox="0 0 50 50" fill="none" xmlns="http://www.w3.org/2000/svg">
<path fill-rule="evenodd" clip-rule="evenodd" d="M24.9974 5.72949C23.5591 5.72949 22.3932 6.89541 22.3932 8.33366C22.3932 9.77191 23.5591 10.9378 24.9974 10.9378C26.4357 10.9378 27.6016 9.77191 27.6016 8.33366C27.6016 6.89541 26.4357 5.72949 24.9974 5.72949ZM19.2682 8.33366C19.2682 5.16953 21.8332 2.60449 24.9974 2.60449C28.1616 2.60449 30.7266 5.16953 30.7266 8.33366C30.7266 11.4978 28.1616 14.0628 24.9974 14.0628C21.8332 14.0628 19.2682 11.4978 19.2682 8.33366ZM35.392 14.925C38.352 14.2907 41.1432 16.5471 41.1432 19.5743C41.1432 21.621 39.8336 23.438 37.892 24.0853L33.3601 25.596C33.0745 25.6912 32.9036 25.7485 32.777 25.7964C32.6968 25.8266 32.663 25.8428 32.6549 25.8468C32.4839 25.9549 32.3907 26.152 32.4161 26.3526C32.4182 26.3616 32.4272 26.398 32.4547 26.4791C32.4982 26.6074 32.5626 26.7757 32.6707 27.0566L35.2682 33.8101C36.4351 36.8439 34.1957 40.1045 30.9451 40.1045C29.283 40.1045 27.7484 39.2139 26.9236 37.7707L24.9974 34.3997L23.0711 37.7707C22.2464 39.2139 20.7117 40.1045 19.0496 40.1045C15.7991 40.1045 13.5598 36.8439 14.7266 33.8101L17.3241 27.0566C17.4322 26.7757 17.4966 26.6074 17.5401 26.4791C17.5677 26.398 17.5766 26.3616 17.5787 26.3526C17.6041 26.152 17.511 25.9549 17.34 25.8468C17.3318 25.8428 17.2981 25.8266 17.2179 25.7964C17.0912 25.7485 16.9203 25.6912 16.6347 25.596L12.1029 24.0853C10.1612 23.438 8.85156 21.621 8.85156 19.5743C8.85156 16.5471 11.6428 14.2907 14.6028 14.925L18.5561 15.7721C18.778 15.8196 18.8816 15.8418 18.9839 15.863C22.9509 16.6836 27.0439 16.6836 31.0109 15.863C31.1132 15.8418 31.2168 15.8196 31.4386 15.7721L35.392 14.925ZM38.0182 19.5743C38.0182 18.5366 37.0614 17.7631 36.0468 17.9806L32.0878 18.8289C31.8736 18.8748 31.7584 18.8995 31.6439 18.9232C27.2593 19.8301 22.7355 19.8301 18.3509 18.9232C18.2364 18.8995 18.1213 18.8748 17.9076 18.8291L13.948 17.9806C12.9334 17.7631 11.9766 18.5366 11.9766 19.5743C11.9766 20.2759 12.4255 20.8989 13.0911 21.1207L17.6229 22.6314C17.6607 22.6439 17.6987 22.6564 17.7368 22.6691C18.1651 22.811 18.6101 22.9585 18.977 23.1849C20.2043 23.9424 20.8695 25.3524 20.6742 26.7812C20.6158 27.2085 20.4467 27.6457 20.284 28.0666C20.2695 28.1041 20.2551 28.1414 20.2408 28.1785L17.6433 34.932C17.2637 35.9189 17.9922 36.9795 19.0496 36.9795C19.5903 36.9795 20.0895 36.6897 20.3578 36.2203L23.6407 30.4751C23.9189 29.9882 24.4368 29.6878 24.9974 29.6878C25.558 29.6878 26.0759 29.9882 26.3541 30.4751L29.637 36.2203C29.9053 36.6897 30.4045 36.9795 30.9451 36.9795C32.0026 36.9795 32.7311 35.9189 32.3516 34.932L29.7541 28.1785C29.7397 28.1414 29.7253 28.1041 29.7107 28.0666C29.548 27.6457 29.3791 27.2085 29.3205 26.7812C29.1253 25.3524 29.7905 23.9424 31.0178 23.1849C31.3847 22.9585 31.8297 22.811 32.258 22.6691C32.2961 22.6564 32.3341 22.6439 32.3718 22.6314L36.9036 21.1207C37.5693 20.8989 38.0182 20.2759 38.0182 19.5743ZM10.8649 29.5068C11.2525 30.2778 10.9417 31.217 10.1708 31.6047C7.00217 33.1978 5.72656 34.9897 5.72656 36.4587C5.72656 38.0497 7.23492 40.0103 10.9072 41.6628C14.4328 43.2495 19.413 44.2712 24.9974 44.2712C30.5818 44.2712 35.562 43.2495 39.0876 41.6628C42.7599 40.0103 44.2682 38.0497 44.2682 36.4587C44.2682 34.9897 42.9926 33.1978 39.8241 31.6047C39.053 31.217 38.7422 30.2778 39.1299 29.5068C39.5176 28.7357 40.4568 28.4251 41.2278 28.8126C44.657 30.5368 47.3932 33.1253 47.3932 36.4587C47.3932 40.0453 44.2378 42.7722 40.3699 44.5126C36.3553 46.3193 30.9191 47.3962 24.9974 47.3962C19.0758 47.3962 13.6394 46.3193 9.62481 44.5126C5.75692 42.7722 2.60156 40.0453 2.60156 36.4587C2.60156 33.1253 5.33781 30.5368 8.767 28.8126C9.53798 28.4251 10.4772 28.7357 10.8649 29.5068Z" fill="#0071BA"/>
</svg>
