<svg width="95" height="95" viewBox="0 0 95 95" fill="none" xmlns="http://www.w3.org/2000/svg">
<path d="M15.832 31.6663V23.7497C15.832 21.65 16.6661 19.6364 18.1508 18.1517C19.6354 16.6671 21.6491 15.833 23.7487 15.833H31.6654" stroke="#0071BA" stroke-width="5" stroke-linecap="round" stroke-linejoin="round"/>
<path d="M15.832 63.333V71.2497C15.832 73.3493 16.6661 75.3629 18.1508 76.8476C19.6354 78.3323 21.6491 79.1663 23.7487 79.1663H31.6654" stroke="#0071BA" stroke-width="5" stroke-linecap="round" stroke-linejoin="round"/>
<path d="M63.332 15.833H71.2487C73.3483 15.833 75.362 16.6671 76.8466 18.1517C78.3313 19.6364 79.1654 21.65 79.1654 23.7497V31.6663" stroke="#0071BA" stroke-width="5" stroke-linecap="round" stroke-linejoin="round"/>
<path d="M63.332 79.1663H71.2487C73.3483 79.1663 75.362 78.3323 76.8466 76.8476C78.3313 75.3629 79.1654 73.3493 79.1654 71.2497V63.333" stroke="#0071BA" stroke-width="5" stroke-linecap="round" stroke-linejoin="round"/>
<path d="M34.0533 38.0392C34.805 37.2732 35.7019 36.6648 36.6914 36.2494C37.681 35.834 38.7435 35.6201 39.8167 35.6201C40.8899 35.6201 41.9523 35.834 42.9419 36.2494C43.9314 36.6648 44.8283 37.2732 45.58 38.0392L47.4998 39.5829L49.479 38.0154C50.2301 37.2579 51.1243 36.6571 52.1096 36.2479C53.0948 35.8387 54.1515 35.6294 55.2184 35.632C56.2852 35.6345 57.3409 35.849 58.3242 36.2629C59.3075 36.6768 60.1987 37.282 60.9462 38.0431C62.4763 39.6005 63.3336 41.6965 63.3336 43.8797C63.3336 46.0629 62.4763 48.1589 60.9462 49.7163L47.4998 63.3329L34.0533 49.7163C32.5221 48.1587 31.6641 46.0619 31.6641 43.8777C31.6641 41.6935 32.5221 39.5968 34.0533 38.0392Z" stroke="#0071BA" stroke-width="5" stroke-linecap="round" stroke-linejoin="round"/>
</svg>
