<svg width="95" height="95" viewBox="0 0 95 95" fill="none" xmlns="http://www.w3.org/2000/svg">
<path d="M19.793 35.6247C19.793 37.7243 20.627 39.7379 22.1117 41.2226C23.5964 42.7073 25.61 43.5413 27.7096 43.5413C29.8093 43.5413 31.8229 42.7073 33.3076 41.2226C34.7922 39.7379 35.6263 37.7243 35.6263 35.6247C35.6263 33.525 34.7922 31.5114 33.3076 30.0267C31.8229 28.5421 29.8093 27.708 27.7096 27.708C25.61 27.708 23.5964 28.5421 22.1117 30.0267C20.627 31.5114 19.793 33.525 19.793 35.6247Z" stroke="#0071BA" stroke-width="5" stroke-linecap="round" stroke-linejoin="round"/>
<path d="M87.0846 67.292V55.417H7.91797" stroke="#0071BA" stroke-width="5" stroke-linecap="round" stroke-linejoin="round"/>
<path d="M7.91797 31.667V67.292" stroke="#0071BA" stroke-width="5" stroke-linecap="round" stroke-linejoin="round"/>
<path d="M47.5 55.4167H87.0833V47.5C87.0833 44.3506 85.8322 41.3301 83.6052 39.1031C81.3782 36.8761 78.3578 35.625 75.2083 35.625H47.5V55.4167Z" stroke="#0071BA" stroke-width="5" stroke-linecap="round" stroke-linejoin="round"/>
</svg>
