<svg width="95" height="95" viewBox="0 0 95 95" fill="none" xmlns="http://www.w3.org/2000/svg">
<path fill-rule="evenodd" clip-rule="evenodd" d="M43.6118 11.0899C25.2187 13.032 10.8867 28.5925 10.8867 47.5003C10.8867 67.7219 27.2796 84.1149 47.5013 84.1149C66.4091 84.1149 81.9697 69.783 83.9116 51.3898C78.6601 58.0568 70.5095 62.3441 61.3555 62.3441C45.5059 62.3441 32.6576 49.4957 32.6576 33.6462C32.6576 24.492 36.945 16.3415 43.6118 11.0899ZM4.94922 47.5003C4.94922 23.9995 24.0004 4.94824 47.5013 4.94824C50.3378 4.94824 51.7581 7.20948 52.0011 9.01056C52.2355 10.7432 51.595 12.9466 49.6032 14.1501C42.9995 18.1406 38.5951 25.3804 38.5951 33.6462C38.5951 46.2162 48.7854 56.4066 61.3555 56.4066C69.6213 56.4066 76.8611 52.0021 80.8514 45.3984C82.0548 43.4066 84.2584 42.7662 85.9909 43.0005C87.792 43.2435 90.0534 44.6638 90.0534 47.5003C90.0534 71.0013 71.0023 90.0524 47.5013 90.0524C24.0004 90.0524 4.94922 71.0013 4.94922 47.5003ZM71.2513 10.8857C69.6118 10.8857 68.2826 9.55657 68.2826 7.91699C68.2826 6.27741 69.6118 4.94824 71.2513 4.94824H87.0846C88.2852 4.94824 89.3678 5.67155 89.8274 6.78091C90.2869 7.89023 90.0328 9.16715 89.1837 10.0162L78.4187 20.7816H87.0846C88.7242 20.7816 90.0534 22.1107 90.0534 23.7503C90.0534 25.3899 88.7242 26.7191 87.0846 26.7191H71.2513C70.0507 26.7191 68.9681 25.9958 68.5086 24.8864C68.049 23.7771 68.3031 22.5002 69.1522 21.6511L79.9173 10.8857H71.2513ZM53.4388 34.6357C51.7993 34.6357 50.4701 33.3066 50.4701 31.667C50.4701 30.0274 51.7993 28.6982 53.4388 28.6982H65.3138C66.5144 28.6982 67.597 29.4215 68.0565 30.5309C68.5161 31.6402 68.262 32.9172 67.4129 33.7662L60.6062 40.5732H65.3138C66.9533 40.5732 68.2826 41.9024 68.2826 43.542C68.2826 45.1815 66.9533 46.5107 65.3138 46.5107H53.4388C52.2382 46.5107 51.1556 45.7876 50.6961 44.678C50.2365 43.5689 50.4906 42.2919 51.3397 41.4429L58.1464 34.6357H53.4388Z" fill="#0071BA"/>
</svg>
