<svg width="95" height="95" viewBox="0 0 95 95" fill="none" xmlns="http://www.w3.org/2000/svg">
<path d="M53.2074 6.6244C52.8415 6.32013 52.4077 6.10831 51.9427 6.00679C51.4777 5.90528 50.9951 5.91705 50.5357 6.0411C50.0762 6.16516 49.6532 6.39787 49.3025 6.71962C48.9518 7.04136 48.6836 7.44271 48.5205 7.88983L40.3564 30.3076L31.3908 21.6203C31.0897 21.3283 30.7302 21.1033 30.3358 20.9604C29.9415 20.8174 29.5213 20.7596 29.103 20.7908C28.6848 20.822 28.2778 20.9415 27.9091 21.1414C27.5403 21.3413 27.2181 21.6171 26.9637 21.9506C18.9258 32.4822 14.8438 43.0769 14.8438 53.4379C14.8438 62.0989 18.2843 70.4051 24.4085 76.5293C30.5328 82.6536 38.839 86.0941 47.5 86.0941C56.161 86.0941 64.4672 82.6536 70.5915 76.5293C76.7157 70.4051 80.1562 62.0989 80.1562 53.4379C80.1562 31.3764 61.3084 13.3598 53.2074 6.6244ZM47.5 80.1566C40.4162 80.1488 33.6247 77.3312 28.6157 72.3222C23.6066 67.3132 20.7891 60.5217 20.7812 53.4379C20.7812 45.2738 23.7834 36.8166 29.7098 28.2629L39.4955 37.7555C39.8509 38.1006 40.287 38.3513 40.7641 38.4848C41.2412 38.6182 41.7441 38.6301 42.227 38.5195C42.7099 38.4088 43.1574 38.1791 43.5287 37.8512C43.9001 37.5233 44.1835 37.1076 44.3531 36.6422L52.6174 13.9795C60.9373 21.5535 74.2188 36.3342 74.2188 53.4379C74.2109 60.5217 71.3934 67.3132 66.3843 72.3222C61.3753 77.3312 54.5838 80.1488 47.5 80.1566Z" fill="#0071BA"/>
</svg>
