<svg width="95" height="95" viewBox="0 0 95 95" fill="none" xmlns="http://www.w3.org/2000/svg">
<path d="M71.25 31.667L68.0833 43.542C67.8588 44.6431 67.2661 45.635 66.4028 46.3545C65.5394 47.0739 64.4569 47.478 63.3333 47.5003H31.6667C30.5431 47.478 29.4606 47.0739 28.5972 46.3545C27.7339 45.635 27.1412 44.6431 26.9167 43.542L23.75 31.667" stroke="#0071BA" stroke-width="5" stroke-linecap="round" stroke-linejoin="round"/>
<path d="M11.875 19.7913C11.875 18.7415 12.292 17.7347 13.0344 16.9924C13.7767 16.25 14.7835 15.833 15.8333 15.833H79.1667C80.2165 15.833 81.2233 16.25 81.9656 16.9924C82.708 17.7347 83.125 18.7415 83.125 19.7913V27.708C83.125 28.7578 82.708 29.7646 81.9656 30.507C81.2233 31.2493 80.2165 31.6663 79.1667 31.6663H15.8333C14.7835 31.6663 13.7767 31.2493 13.0344 30.507C12.292 29.7646 11.875 28.7578 11.875 27.708V19.7913Z" stroke="#0071BA" stroke-width="5" stroke-linecap="round" stroke-linejoin="round"/>
<path d="M47.4996 63.333C50.0448 64.473 51.5252 66.3255 51.4579 68.2809C51.5252 70.2363 50.0448 72.0888 47.4996 73.2288C44.9544 74.3688 43.474 76.2213 43.5413 78.1768C43.474 80.1322 44.9544 81.9847 47.4996 83.1247" stroke="#0071BA" stroke-width="5" stroke-linecap="round" stroke-linejoin="round"/>
<path d="M27.7105 63.333C30.2557 64.473 31.7362 66.3255 31.6689 68.2809C31.7362 70.2363 30.2557 72.0888 27.7105 73.2288C25.1653 74.3688 23.6849 76.2213 23.7522 78.1768C23.6849 80.1322 25.1653 81.9847 27.7105 83.1247" stroke="#0071BA" stroke-width="5" stroke-linecap="round" stroke-linejoin="round"/>
<path d="M67.2887 63.333C69.8339 64.473 71.3143 66.3255 71.247 68.2809C71.3143 70.2363 69.8339 72.0888 67.2887 73.2288C64.7434 74.3688 63.263 76.2213 63.3303 78.1768C63.263 80.1322 64.7434 81.9847 67.2887 83.1247" stroke="#0071BA" stroke-width="5" stroke-linecap="round" stroke-linejoin="round"/>
</svg>
