<svg width="95" height="95" viewBox="0 0 95 95" fill="none" xmlns="http://www.w3.org/2000/svg">
<path d="M47.5026 7.91699C54.3624 7.91699 59.9682 13.2863 60.347 20.0511L60.3672 20.7811L60.3711 52.2582L60.6878 52.531C64.3513 55.8029 66.6934 60.3325 67.1937 65.2887L67.2689 66.2854L67.2943 67.292C67.2943 78.2225 58.4331 87.0837 47.5026 87.0837C36.572 87.0837 27.7109 78.2225 27.7109 67.292C27.7109 61.898 29.8864 56.8638 33.6058 53.1987L34.3211 52.5278L34.6341 52.2582L34.638 20.7816C34.638 14.1666 39.6307 8.71784 46.0535 7.99774L46.7727 7.93734L47.5026 7.91699ZM47.5026 13.8545C43.8681 13.8545 40.8874 16.6535 40.5985 20.2136L40.5755 20.7817L40.5735 55.1973L39.3535 56.0863C35.7933 58.681 33.6484 62.8048 33.6484 67.292C33.6484 74.9434 39.8511 81.1462 47.5026 81.1462C55.1541 81.1462 61.3568 74.9434 61.3568 67.292C61.3568 63.0867 59.473 59.2004 56.3055 56.593L55.6548 56.0887L54.4356 55.1997L54.4297 20.7816C54.4297 16.9558 51.3283 13.8545 47.5026 13.8545ZM47.5026 31.667C49.1421 31.667 50.4714 32.9962 50.4714 34.6357L50.4737 57.8498C54.4875 59.1117 57.3984 62.8618 57.3984 67.292C57.3984 72.7573 52.9679 77.1878 47.5026 77.1878C42.0373 77.1878 37.6068 72.7573 37.6068 67.292C37.6068 62.8602 40.5197 59.1093 44.5354 57.8486L44.5339 34.6357C44.5339 32.9962 45.8631 31.667 47.5026 31.667Z" fill="#0071BA"/>
</svg>
