<svg width="50" height="50" viewBox="0 0 50 50" fill="none" xmlns="http://www.w3.org/2000/svg">
<path d="M22.918 43.7493L25.0013 33.3327L22.918 24.9993L16.668 16.666H25.0013L31.2513 10.416" stroke="#0071BA" stroke-width="3" stroke-linecap="round" stroke-linejoin="round"/>
<path d="M12.5013 33.3327L10.418 24.9993L16.668 16.666" stroke="#0071BA" stroke-width="3" stroke-linecap="round" stroke-linejoin="round"/>
<path d="M10.418 10.4173C10.418 10.9699 10.6375 11.4998 11.0282 11.8905C11.4189 12.2812 11.9488 12.5007 12.5013 12.5007C13.0538 12.5007 13.5837 12.2812 13.9744 11.8905C14.3651 11.4998 14.5846 10.9699 14.5846 10.4173C14.5846 9.86478 14.3651 9.33488 13.9744 8.94418C13.5837 8.55348 13.0538 8.33398 12.5013 8.33398C11.9488 8.33398 11.4189 8.55348 11.0282 8.94418C10.6375 9.33488 10.418 9.86478 10.418 10.4173Z" stroke="#0071BA" stroke-width="3" stroke-linecap="round" stroke-linejoin="round"/>
<path d="M28.125 25H33.3333L41.6667 29.1667" stroke="#0071BA" stroke-width="3" stroke-linecap="round" stroke-linejoin="round"/>
</svg>
