<svg width="50" height="50" viewBox="0 0 50 50" fill="none" xmlns="http://www.w3.org/2000/svg">
<path d="M24.9987 16.667C26.1038 16.667 27.1636 17.106 27.945 17.8874C28.7264 18.6688 29.1654 19.7286 29.1654 20.8337V29.167C29.1654 30.2721 28.7264 31.3319 27.945 32.1133C27.1636 32.8947 26.1038 33.3337 24.9987 33.3337C23.8936 33.3337 22.8338 32.8947 22.0524 32.1133C21.271 31.3319 20.832 30.2721 20.832 29.167V20.8337C20.832 19.7286 21.271 18.6688 22.0524 17.8874C22.8338 17.106 23.8936 16.667 24.9987 16.667Z" stroke="#0071BA" stroke-width="3" stroke-linecap="round" stroke-linejoin="round"/>
<path d="M35.418 31.2503C36.1367 32.5003 38.0388 33.3337 39.5846 33.3337C40.6897 33.3337 41.7495 32.8947 42.5309 32.1133C43.3123 31.3319 43.7513 30.2721 43.7513 29.167C43.7513 28.0619 43.3123 27.0021 42.5309 26.2207C41.7495 25.4393 40.6897 25.0003 39.5846 25.0003C38.4796 25.0003 37.4198 24.5613 36.6384 23.7799C35.857 22.9985 35.418 21.9387 35.418 20.8337C35.418 19.7286 35.857 18.6688 36.6384 17.8874C37.4198 17.106 38.4796 16.667 39.5846 16.667C41.1388 16.667 43.0346 17.4878 43.7513 18.7503" stroke="#0071BA" stroke-width="3" stroke-linecap="round" stroke-linejoin="round"/>
<path d="M6.25 31.2503C6.96875 32.5003 8.87083 33.3337 10.4167 33.3337C11.5217 33.3337 12.5815 32.8947 13.3629 32.1133C14.1443 31.3319 14.5833 30.2721 14.5833 29.167C14.5833 28.0619 14.1443 27.0021 13.3629 26.2207C12.5815 25.4393 11.5217 25.0003 10.4167 25.0003C9.3116 25.0003 8.25179 24.5613 7.47039 23.7799C6.68899 22.9985 6.25 21.9387 6.25 20.8337C6.25 19.7286 6.68899 18.6688 7.47039 17.8874C8.25179 17.106 9.3116 16.667 10.4167 16.667C11.9708 16.667 13.8667 17.4878 14.5833 18.7503" stroke="#0071BA" stroke-width="3" stroke-linecap="round" stroke-linejoin="round"/>
</svg>
