<svg width="36" height="36" viewBox="0 0 36 36" fill="none" xmlns="http://www.w3.org/2000/svg">
<path d="M4.64926 16.5546C4.26313 17.0413 4.25727 17.7501 4.6966 18.1894C5.13595 18.6288 5.85291 18.6318 6.24945 18.1534C7.9714 16.0762 9.00649 13.409 9.00649 10.5001C9.00649 7.59106 7.9714 4.92384 6.24945 2.84659C5.85291 2.36824 5.13595 2.3713 4.6966 2.81065C4.25727 3.24999 4.26313 3.95869 4.64926 4.44544C5.96856 6.10857 6.75649 8.21229 6.75649 10.5001C6.75649 12.7878 5.96856 14.8915 4.64926 16.5546ZM1.51459 15.0075C1.95396 15.4468 2.67436 15.4509 3.0435 14.9511C3.96297 13.7061 4.50649 12.1666 4.50649 10.5001C4.50649 8.83354 3.96297 7.29399 3.0435 6.04899C2.67436 5.54917 1.95396 5.5533 1.51459 5.99266C1.07527 6.43198 1.08777 7.13965 1.42407 7.66204C1.95087 8.48035 2.25649 9.45451 2.25649 10.5001C2.25649 11.5456 1.95087 12.5198 1.42407 13.3381C1.08777 13.8605 1.07527 14.5681 1.51459 15.0075ZM26.6317 21.0003C28.4949 21.0003 30.0051 22.5105 30.0051 24.3736V25.2367C30.0051 26.5782 29.5257 27.8754 28.6535 28.8945C26.2994 31.6447 22.7185 33.0019 18.0006 33.0019C13.2817 33.0019 9.70273 31.6443 7.35328 28.8928C6.48363 27.8745 6.00586 26.5792 6.00586 25.24V24.3736C6.00586 22.5105 7.51614 21.0003 9.37917 21.0003H26.6317ZM26.6317 23.2503H9.37917C8.75878 23.2503 8.25586 23.7532 8.25586 24.3736V25.24C8.25586 26.0436 8.54253 26.8207 9.0643 27.4317C10.9443 29.6332 13.8931 30.7519 18.0006 30.7519C22.108 30.7519 25.0595 29.6332 26.944 27.4314C27.4676 26.8198 27.7551 26.0415 27.7551 25.2367V24.3736C27.7551 23.7532 27.2521 23.2503 26.6317 23.2503ZM18.0006 3.00732C22.1427 3.00732 25.5006 6.36519 25.5006 10.5073C25.5006 14.6495 22.1427 18.0073 18.0006 18.0073C13.8584 18.0073 10.5005 14.6495 10.5005 10.5073C10.5005 6.36519 13.8584 3.00732 18.0006 3.00732ZM18.0006 5.25732C15.1011 5.25732 12.7505 7.60783 12.7505 10.5073C12.7505 13.4068 15.1011 15.7573 18.0006 15.7573C20.9001 15.7573 23.2506 13.4068 23.2506 10.5073C23.2506 7.60783 20.9001 5.25732 18.0006 5.25732ZM29.7633 18.1543C30.1597 18.6327 30.8767 18.6295 31.3161 18.1902C31.7554 17.7508 31.7496 17.0421 31.3633 16.5553C30.0439 14.8922 29.2559 12.7884 29.2559 10.5004C29.2559 8.21253 30.0439 6.10866 31.3633 4.44549C31.7496 3.95874 31.7554 3.24999 31.3161 2.81065C30.8767 2.37132 30.1597 2.36824 29.7633 2.84656C28.0411 4.92387 27.0059 7.59126 27.0059 10.5004C27.0059 13.4096 28.0411 16.077 29.7633 18.1543ZM32.9692 6.04891C33.3384 5.54914 34.0587 5.5533 34.498 5.99263C34.9374 6.43197 34.9248 7.1397 34.5885 7.66209C34.0616 8.48047 33.7559 9.45475 33.7559 10.5004C33.7559 11.5461 34.0616 12.5204 34.5885 13.3388C34.9248 13.8612 34.9374 14.5689 34.498 15.0082C34.0587 15.4476 33.3384 15.4518 32.9692 14.952C32.0496 13.7069 31.5059 12.1672 31.5059 10.5004C31.5059 8.83372 32.0496 7.29399 32.9692 6.04891Z" fill="#0071BA"/>
</svg>
