<svg width="36" height="36" viewBox="0 0 36 36" fill="none" xmlns="http://www.w3.org/2000/svg">
<path fill-rule="evenodd" clip-rule="evenodd" d="M18 4.125C12.4081 4.125 7.875 8.65812 7.875 14.25C7.875 17.2478 9.17637 19.9401 11.2486 21.7956L11.2551 21.8015C12.0901 22.5492 12.7244 23.1171 13.1779 23.5329C13.6048 23.9243 13.9431 24.2442 14.1203 24.4629L14.1395 24.4866C14.4714 24.8961 14.7607 25.253 14.9514 25.6799C15.1422 26.1066 15.2151 26.5601 15.2988 27.0806L15.3036 27.1107C15.3465 27.3776 15.3637 27.7052 15.3705 28.125H20.6295C20.6363 27.7052 20.6535 27.3776 20.6964 27.1107L20.7012 27.0806C20.7849 26.5601 20.8578 26.1066 21.0486 25.6799C21.2394 25.253 21.5286 24.8961 21.8604 24.4866L21.8797 24.4629C22.0569 24.2442 22.3951 23.9243 22.8221 23.5329C23.2757 23.1171 23.91 22.5491 24.7449 21.8015L24.7514 21.7956C26.8236 19.9401 28.125 17.2478 28.125 14.25C28.125 8.65812 23.5919 4.125 18 4.125ZM20.6154 30.375H15.3846C15.3896 30.5313 15.3969 30.668 15.4082 30.791C15.4388 31.1286 15.4903 31.2512 15.5258 31.3125C15.6244 31.4835 15.7665 31.6256 15.9375 31.7243C15.9988 31.7597 16.1214 31.8113 16.4591 31.8419C16.8123 31.874 17.2783 31.875 18 31.875C18.7217 31.875 19.1877 31.874 19.5409 31.8419C19.8786 31.8113 20.0012 31.7597 20.0625 31.7243C20.2335 31.6256 20.3756 31.4835 20.4742 31.3125C20.5097 31.2512 20.5612 31.1286 20.5918 30.791C20.6031 30.668 20.6104 30.5313 20.6154 30.375ZM5.625 14.25C5.625 7.41548 11.1655 1.875 18 1.875C24.8344 1.875 30.375 7.41548 30.375 14.25C30.375 17.9142 28.7811 21.2076 26.2524 23.4719C25.4095 24.2265 24.7851 24.7857 24.3426 25.1913C24.1213 25.3943 23.9522 25.5527 23.8274 25.6743C23.7651 25.7349 23.7176 25.7829 23.682 25.8201C23.6644 25.8384 23.6512 25.8528 23.6416 25.8635C23.6319 25.8744 23.6278 25.8794 23.6278 25.8794C23.2375 26.361 23.1531 26.4852 23.1028 26.5979C23.0525 26.7104 23.0163 26.8562 22.9179 27.4682C22.879 27.7098 22.875 28.1237 22.875 29.25V29.2983C22.875 29.958 22.875 30.5271 22.8327 30.9941C22.788 31.4877 22.6889 31.9767 22.4229 32.4375C22.1266 32.9505 21.7005 33.3767 21.1875 33.6729C20.7267 33.9389 20.2377 34.038 19.744 34.0827C19.2771 34.125 18.708 34.125 18.0483 34.125H17.9517C17.292 34.125 16.7229 34.125 16.2561 34.0827C15.7623 34.038 15.2733 33.9389 14.8125 33.6729C14.2994 33.3767 13.8734 32.9505 13.5772 32.4375C13.3111 31.9767 13.212 31.4877 13.1673 30.9941C13.125 30.5271 13.125 29.958 13.125 29.2983V29.25C13.125 28.1237 13.121 27.7098 13.0822 27.4682C12.9837 26.8562 12.9475 26.7104 12.8972 26.5979C12.8469 26.4852 12.7624 26.361 12.3722 25.8794C12.3722 25.8794 12.3677 25.874 12.3583 25.8635C12.3487 25.8528 12.3355 25.8384 12.318 25.8201C12.2825 25.7829 12.2349 25.7349 12.1727 25.6743C12.0478 25.5527 11.8787 25.3943 11.6574 25.1913C11.2149 24.7857 10.5905 24.2265 9.74767 23.4719C7.21894 21.2076 5.625 17.9142 5.625 14.25ZM14.838 20.0262C15.3759 19.7151 16.0641 19.8989 16.3752 20.4368C16.701 21 17.3075 21.375 18 21.375C18.6925 21.375 19.299 21 19.6248 20.4368C19.9359 19.8989 20.6241 19.7151 21.162 20.0262C21.6997 20.3373 21.8835 21.0255 21.5724 21.5633C21.0426 22.4793 20.1681 23.1744 19.125 23.4696V25.5C19.125 26.1213 18.6213 26.625 18 26.625C17.3787 26.625 16.875 26.1213 16.875 25.5V23.4696C15.8319 23.1744 14.9574 22.4793 14.4275 21.5633C14.1164 21.0255 14.3002 20.3373 14.838 20.0262Z" fill="#0071BA"/>
</svg>
