<svg width="95" height="95" viewBox="0 0 95 95" fill="none" xmlns="http://www.w3.org/2000/svg">
<g clip-path="url(#clip0_305_2415)">
<path d="M71.25 59.375L67.0641 63.5609L77.6922 74.2188H29.6875C26.5381 74.2188 23.5176 72.9676 21.2906 70.7406C19.0636 68.5136 17.8125 65.4932 17.8125 62.3438C17.8125 59.1943 19.0636 56.1739 21.2906 53.9469C23.5176 51.7199 26.5381 50.4687 29.6875 50.4688H65.3125C70.0367 50.4687 74.5674 48.5921 77.9078 45.2516C81.2483 41.9111 83.125 37.3804 83.125 32.6562C83.125 27.9321 81.2483 23.4014 77.9078 20.0609C74.5674 16.7204 70.0367 14.8438 65.3125 14.8438H17.3078L27.9359 4.18594L23.75 0L5.9375 17.8125L23.75 35.625L27.9359 31.4391L17.3078 20.7812H65.3125C68.4619 20.7813 71.4824 22.0324 73.7094 24.2594C75.9364 26.4864 77.1875 29.5068 77.1875 32.6562C77.1875 35.8057 75.9364 38.8261 73.7094 41.0531C71.4824 43.2801 68.4619 44.5312 65.3125 44.5312H29.6875C24.9633 44.5312 20.4327 46.4079 17.0922 49.7484C13.7517 53.0889 11.875 57.6196 11.875 62.3438C11.875 67.0679 13.7517 71.5986 17.0922 74.9391C20.4327 78.2796 24.9633 80.1562 29.6875 80.1562H77.6922L67.0641 90.8141L71.25 95L89.0625 77.1875L71.25 59.375Z" fill="#0071BA" stroke="#0071BA" stroke-width="0.208333"/>
</g>
<defs>
<clipPath id="clip0_305_2415">
<rect width="95" height="95" fill="white"/>
</clipPath>
</defs>
</svg>
