<svg width="50" height="50" viewBox="0 0 50 50" fill="none" xmlns="http://www.w3.org/2000/svg">
<path d="M37.5 25C37.5 18.0964 31.9035 12.5 25 12.5C18.0964 12.5 12.5 18.0964 12.5 25C12.5 31.9033 14.5833 36.4583 18.7497 41.6667" stroke="#0071BA" stroke-width="3" stroke-linecap="round" stroke-linejoin="round"/>
<path d="M31.25 43.75C19.7917 36.4583 18.75 28.4517 18.75 25C18.75 21.5481 21.5481 18.75 25 18.75C28.4519 18.75 31.25 21.5481 31.25 25C31.25 28.4519 34.0481 31.25 37.5 31.25C40.9519 31.25 43.75 28.4519 43.75 25C43.75 14.6446 35.3554 6.25 25 6.25C14.6446 6.25 6.25 14.6446 6.25 25C6.25 26.4321 6.41056 27.8267 6.71465 29.1667" stroke="#0071BA" stroke-width="3" stroke-linecap="round" stroke-linejoin="round"/>
<path d="M25 25C26.0417 35.4167 36.4583 39.5833 36.4583 39.5833" stroke="#0071BA" stroke-width="3" stroke-linecap="round" stroke-linejoin="round"/>
</svg>
