<svg width="50" height="50" viewBox="0 0 50 50" fill="none" xmlns="http://www.w3.org/2000/svg">
<path fill-rule="evenodd" clip-rule="evenodd" d="M26.0407 5.72949C24.0272 5.72949 22.3949 7.36178 22.3949 9.37533C22.3949 11.3889 24.0272 13.0212 26.0407 13.0212C28.0543 13.0212 29.6866 11.3889 29.6866 9.37533C29.6866 7.36178 28.0543 5.72949 26.0407 5.72949ZM19.2699 9.37533C19.2699 5.63589 22.3014 2.60449 26.0407 2.60449C29.7801 2.60449 32.8116 5.63589 32.8116 9.37533C32.8116 13.1148 29.7801 16.1462 26.0407 16.1462C22.3014 16.1462 19.2699 13.1148 19.2699 9.37533ZM28.182 22.4028C28.1026 22.3972 28.0032 22.3962 27.6445 22.3962H25.3714L25.1816 24.2951C24.8189 27.9209 24.6928 29.378 25.0168 30.7568C25.3407 32.1353 26.1024 33.3837 28.0418 36.4687L33.406 45.002C33.8653 45.7326 33.6453 46.6972 32.9147 47.1566C32.1841 47.6157 31.2197 47.3957 30.7603 46.6653L25.396 38.1318C25.3449 38.0507 25.2945 37.9703 25.2445 37.8909C23.5053 35.1251 22.432 33.4184 21.9745 31.4714C21.5172 29.5243 21.718 27.5182 22.0437 24.2674C22.053 24.1741 22.0624 24.0797 22.072 23.9843L22.2305 22.398C21.1866 22.4035 20.4141 22.4237 19.7906 22.4993C19.0047 22.5947 18.6382 22.7607 18.3786 22.9689C18.119 23.1772 17.8774 23.4991 17.6138 24.2455C17.3361 25.0322 17.0969 26.0962 16.7409 27.6982L16.1077 30.5476C15.9205 31.3899 15.0858 31.9212 14.2434 31.7339C13.401 31.5468 12.8699 30.7122 13.0571 29.8697L13.7106 26.9287C14.0408 25.4426 14.3188 24.1916 14.6671 23.2049C15.0368 22.158 15.5403 21.2395 16.4232 20.5313C17.3061 19.8231 18.312 19.5308 19.4141 19.3971C20.4527 19.2711 21.7343 19.2711 23.2568 19.2712H27.6445C27.6618 19.2712 27.6791 19.2712 27.696 19.2712C27.9793 19.2711 28.1995 19.2711 28.4055 19.2858C30.7264 19.4522 32.716 21.0057 33.4403 23.2168C33.5045 23.413 33.558 23.6268 33.6266 23.9016L33.6391 23.9516C33.756 24.4193 33.7907 24.552 33.823 24.6447C34.261 25.9074 35.5837 26.6334 36.8841 26.3251C36.9797 26.3026 37.1103 26.2605 37.5678 26.1082L39.0882 25.6014C39.907 25.3284 40.7918 25.771 41.0647 26.5895C41.3376 27.4082 40.8951 28.293 40.0764 28.5659L38.556 29.0728C38.533 29.0803 38.5105 29.088 38.4885 29.0953C38.1301 29.2149 37.8549 29.3066 37.6051 29.3659C34.7443 30.0443 31.8343 28.4468 30.8705 25.6691C30.7864 25.4264 30.7162 25.1451 30.6247 24.7785C30.6191 24.756 30.6132 24.7328 30.6074 24.7095C30.5203 24.3616 30.4953 24.2653 30.4705 24.1897C30.1414 23.1847 29.237 22.4784 28.182 22.4028ZM21.6991 35.1587C22.417 35.6372 22.6112 36.6074 22.1324 37.3253L15.8825 46.7003C15.4038 47.4184 14.4337 47.6124 13.7156 47.1337C12.9976 46.6551 12.8036 45.6849 13.2823 44.967L19.5323 35.592C20.011 34.8739 20.9812 34.6799 21.6991 35.1587Z" fill="#0071BA"/>
</svg>
