<svg width="50" height="50" viewBox="0 0 50 50" fill="none" xmlns="http://www.w3.org/2000/svg">
<path fill-rule="evenodd" clip-rule="evenodd" d="M25.0013 5.72949C23.563 5.72949 22.3971 6.89541 22.3971 8.33366C22.3971 9.77191 23.563 10.9378 25.0013 10.9378C26.4396 10.9378 27.6055 9.77191 27.6055 8.33366C27.6055 6.89541 26.4396 5.72949 25.0013 5.72949ZM19.2721 8.33366C19.2721 5.16953 21.8371 2.60449 25.0013 2.60449C28.1655 2.60449 30.7305 5.16953 30.7305 8.33366C30.7305 11.4978 28.1655 14.0628 25.0013 14.0628C21.8371 14.0628 19.2721 11.4978 19.2721 8.33366ZM35.3959 14.925C38.3559 14.2907 41.1471 16.5471 41.1471 19.5743C41.1471 21.621 39.8376 23.438 37.8959 24.0853L33.364 25.596C33.0784 25.6912 32.9076 25.7485 32.7809 25.7964C32.7007 25.8266 32.6669 25.8428 32.6588 25.8468C32.4878 25.9549 32.3946 26.152 32.4201 26.3526C32.4221 26.3616 32.4311 26.398 32.4586 26.4791C32.5021 26.6074 32.5665 26.7757 32.6746 27.0566L35.2721 33.8101C36.439 36.8439 34.1996 40.1045 30.949 40.1045C29.2869 40.1045 27.7523 39.2139 26.9276 37.7707L25.0013 34.3997L23.0751 37.7707C22.2503 39.2139 20.7156 40.1045 19.0535 40.1045C15.8031 40.1045 13.5637 36.8439 14.7305 33.8101L17.328 27.0566C17.4361 26.7757 17.5005 26.6074 17.544 26.4791C17.5716 26.398 17.5805 26.3616 17.5826 26.3526C17.608 26.152 17.5149 25.9549 17.3439 25.8468C17.3357 25.8428 17.302 25.8266 17.2218 25.7964C17.0951 25.7485 16.9242 25.6912 16.6386 25.596L12.1068 24.0853C10.1651 23.438 8.85547 21.621 8.85547 19.5743C8.85547 16.5471 11.6467 14.2907 14.6067 14.925L18.56 15.7721C18.7819 15.8196 18.8855 15.8418 18.9878 15.863C22.9548 16.6836 27.0478 16.6836 31.0148 15.863C31.1171 15.8418 31.2207 15.8196 31.4426 15.7721L35.3959 14.925ZM38.0221 19.5743C38.0221 18.5366 37.0653 17.7631 36.0507 17.9806L32.0917 18.8289C31.8776 18.8748 31.7623 18.8995 31.6478 18.9232C27.2632 19.8301 22.7394 19.8301 18.3548 18.9232C18.2403 18.8995 18.1252 18.8748 17.9115 18.8291L13.9519 17.9806C12.9373 17.7631 11.9805 18.5366 11.9805 19.5743C11.9805 20.2759 12.4294 20.8989 13.095 21.1207L17.6268 22.6314C17.6646 22.6439 17.7026 22.6564 17.7407 22.6691C18.169 22.811 18.614 22.9585 18.9809 23.1849C20.2082 23.9424 20.8734 25.3524 20.6781 26.7812C20.6197 27.2085 20.4506 27.6457 20.2879 28.0666C20.2734 28.1041 20.259 28.1414 20.2447 28.1785L17.6472 34.932C17.2676 35.9189 17.9961 36.9795 19.0535 36.9795C19.5942 36.9795 20.0934 36.6897 20.3617 36.2203L23.6446 30.4751C23.9228 29.9882 24.4407 29.6878 25.0013 29.6878C25.5619 29.6878 26.0798 29.9882 26.358 30.4751L29.6409 36.2203C29.9092 36.6897 30.4084 36.9795 30.949 36.9795C32.0065 36.9795 32.7351 35.9189 32.3555 34.932L29.758 28.1785C29.7436 28.1414 29.7292 28.1041 29.7146 28.0666C29.5519 27.6457 29.383 27.2085 29.3244 26.7812C29.1292 25.3524 29.7944 23.9424 31.0217 23.1849C31.3886 22.9585 31.8336 22.811 32.2619 22.6691C32.3001 22.6564 32.338 22.6439 32.3757 22.6314L36.9076 21.1207C37.5732 20.8989 38.0221 20.2759 38.0221 19.5743ZM10.8688 29.5068C11.2564 30.2778 10.9456 31.217 10.1747 31.6047C7.00607 33.1978 5.73047 34.9897 5.73047 36.4587C5.73047 38.0497 7.23882 40.0103 10.9111 41.6628C14.4367 43.2495 19.4169 44.2712 25.0013 44.2712C30.5857 44.2712 35.5659 43.2495 39.0915 41.6628C42.7638 40.0103 44.2721 38.0497 44.2721 36.4587C44.2721 34.9897 42.9965 33.1978 39.828 31.6047C39.0569 31.217 38.7461 30.2778 39.1338 29.5068C39.5215 28.7357 40.4607 28.4251 41.2317 28.8126C44.6609 30.5368 47.3971 33.1253 47.3971 36.4587C47.3971 40.0453 44.2417 42.7722 40.3738 44.5126C36.3592 46.3193 30.923 47.3962 25.0013 47.3962C19.0797 47.3962 13.6433 46.3193 9.62872 44.5126C5.76082 42.7722 2.60547 40.0453 2.60547 36.4587C2.60547 33.1253 5.34172 30.5368 8.77091 28.8126C9.54189 28.4251 10.4811 28.7357 10.8688 29.5068Z" fill="#0071BA"/>
</svg>
