<svg width="95" height="95" viewBox="0 0 95 95" fill="none" xmlns="http://www.w3.org/2000/svg">
<path d="M44.5312 38.2968V65.3124C44.5312 66.0998 44.844 66.8549 45.4008 67.4116C45.9575 67.9684 46.7126 68.2812 47.5 68.2812C48.2874 68.2812 49.0425 67.9684 49.5992 67.4116C50.156 66.8549 50.4687 66.0998 50.4687 65.3124V38.2968C54.0729 37.5611 57.2756 35.5133 59.4557 32.5505C61.6359 29.5877 62.6383 25.9209 62.2686 22.261C61.8989 18.6011 60.1834 15.2089 57.4547 12.742C54.726 10.275 51.1785 8.90918 47.5 8.90918C43.8215 8.90918 40.274 10.275 37.5453 12.742C34.8166 15.2089 33.1011 18.6011 32.7314 22.261C32.3617 25.9209 33.3641 29.5877 35.5443 32.5505C37.7244 35.5133 40.9271 37.5611 44.5312 38.2968ZM47.5 14.8437C49.2615 14.8437 50.9834 15.366 52.448 16.3446C53.9127 17.3233 55.0542 18.7142 55.7283 20.3416C56.4024 21.969 56.5788 23.7598 56.2351 25.4874C55.8915 27.2151 55.0432 28.802 53.7977 30.0476C52.5521 31.2931 50.9652 32.1414 49.2375 32.485C47.5099 32.8287 45.7191 32.6523 44.0917 31.9782C42.4643 31.3041 41.0734 30.1626 40.0947 28.6979C39.1161 27.2333 38.5937 25.5114 38.5937 23.7499C38.5937 21.3878 39.5321 19.1225 41.2023 17.4522C42.8726 15.782 45.1379 14.8437 47.5 14.8437ZM89.0625 65.3124C89.0625 76.8831 67.6467 83.1249 47.5 83.1249C27.3533 83.1249 5.9375 76.8831 5.9375 65.3124C5.9375 62.4401 7.35137 58.2134 14.1016 54.3985C18.6512 51.8231 24.9078 49.8452 32.1998 48.6763C32.5855 48.6154 32.9795 48.631 33.3591 48.7223C33.7388 48.8137 34.0968 48.9789 34.4126 49.2086C34.7284 49.4382 34.9959 49.7279 35.1998 50.0609C35.4037 50.3939 35.54 50.7639 35.6009 51.1496C35.6618 51.5353 35.6461 51.9293 35.5548 52.3089C35.4635 52.6886 35.2983 53.0466 35.0686 53.3624C34.8389 53.6782 34.5493 53.9457 34.2162 54.1496C33.8832 54.3535 33.5133 54.4898 33.1275 54.5507C26.6186 55.5972 20.8814 57.3821 17.0146 59.579C13.749 61.4159 11.875 63.5089 11.875 65.3124C11.875 70.2702 25.4273 77.1874 47.5 77.1874C69.5727 77.1874 83.125 70.2702 83.125 65.3124C83.125 63.5089 81.251 61.4159 77.9853 59.5642C74.1037 57.3673 68.3814 55.5823 61.8725 54.5358C61.4785 54.4844 61.099 54.3544 60.7562 54.1536C60.4134 53.9527 60.1145 53.6852 59.877 53.3667C59.6396 53.0482 59.4684 52.6853 59.3738 52.2995C59.2791 51.9137 59.2628 51.5128 59.3259 51.1206C59.389 50.7284 59.5302 50.3528 59.7411 50.0162C59.9519 49.6795 60.2282 49.3886 60.5536 49.1606C60.879 48.9327 61.2468 48.7724 61.6352 48.6892C62.0237 48.606 62.4249 48.6016 62.815 48.6763C70.107 49.8452 76.3637 51.8231 80.9133 54.3985C87.6486 58.2134 89.0625 62.4401 89.0625 65.3124Z" fill="#0071BA"/>
</svg>
