<svg width="95" height="95" viewBox="0 0 95 95" fill="none" xmlns="http://www.w3.org/2000/svg">
<path fill-rule="evenodd" clip-rule="evenodd" d="M49.4805 10.8857C45.6548 10.8857 42.5535 13.9871 42.5535 17.8128C42.5535 21.6386 45.6548 24.7399 49.4805 24.7399C53.3063 24.7399 56.4076 21.6386 56.4076 17.8128C56.4076 13.9871 53.3063 10.8857 49.4805 10.8857ZM36.6159 17.8128C36.6159 10.7079 42.3757 4.94824 49.4805 4.94824C56.5854 4.94824 62.3451 10.7079 62.3451 17.8128C62.3451 24.9178 56.5854 30.6774 49.4805 30.6774C42.3757 30.6774 36.6159 24.9178 36.6159 17.8128ZM53.5489 42.5651C53.3981 42.5544 53.2093 42.5524 52.5277 42.5524H48.2087L47.8481 46.1604C47.159 53.0495 46.9195 55.818 47.535 58.4376C48.1505 61.0568 49.5977 63.4287 53.2825 69.2902L63.4744 85.5035C64.3472 86.8917 63.9292 88.7244 62.5411 89.5972C61.1529 90.4696 59.3206 90.0516 58.4477 88.6638L48.2554 72.4501C48.1585 72.2961 48.0627 72.1433 47.9677 71.9925C44.6632 66.7374 42.6239 63.4948 41.7547 59.7953C40.8858 56.0958 41.2674 52.2844 41.8861 46.1078C41.9039 45.9305 41.9217 45.7511 41.9399 45.5698L42.2411 42.556C40.2576 42.5663 38.79 42.6047 37.6053 42.7483C36.1121 42.9296 35.4157 43.2451 34.9224 43.6406C34.4291 44.0364 33.9702 44.648 33.4694 46.0662C32.9417 47.5609 32.4872 49.5824 31.8108 52.6264L30.6077 58.0402C30.252 59.6405 28.6662 60.6499 27.0656 60.2941C25.4651 59.9386 24.4559 58.3529 24.8116 56.7521L26.0533 51.1642C26.6807 48.3407 27.2088 45.9637 27.8707 44.089C28.573 42.1 29.5297 40.3547 31.2072 39.0093C32.8847 37.6636 34.7959 37.1083 36.8899 36.8542C38.8632 36.6147 41.2983 36.6148 44.191 36.6149H52.5277C52.5605 36.6149 52.5934 36.6149 52.6254 36.6149C53.1638 36.6148 53.5822 36.6147 53.9736 36.6428C58.3832 36.9589 62.1634 39.9106 63.5397 44.1116C63.6617 44.4845 63.7634 44.8906 63.8936 45.4127L63.9174 45.5077C64.1394 46.3963 64.2055 46.6485 64.2669 46.8246C65.0989 49.2238 67.6121 50.6033 70.0829 50.0174C70.2646 49.9747 70.5127 49.8947 71.382 49.6054L74.2708 48.6423C75.8264 48.1238 77.5075 48.9645 78.0261 50.5197C78.5446 52.0754 77.7039 53.7565 76.1482 54.275L73.2594 55.2381C73.2159 55.2523 73.1731 55.267 73.1312 55.2808C72.4503 55.508 71.9275 55.6822 71.4528 55.795C66.0173 57.0838 60.4883 54.0486 58.6571 48.771C58.4972 48.3098 58.3638 47.7754 58.1901 47.0788C58.1794 47.036 58.1683 46.9921 58.1572 46.9477C57.9917 46.2867 57.9442 46.1038 57.8971 45.9601C57.2717 44.0506 55.5534 42.7088 53.5489 42.5651ZM41.2314 66.8012C42.5954 67.7104 42.9643 69.5538 42.0547 70.9178L30.1798 88.7303C29.2703 90.0948 27.4271 90.4633 26.0628 89.5537C24.6986 88.6444 24.33 86.801 25.2395 85.437L37.1145 67.6245C38.0239 66.2601 39.8673 65.8915 41.2314 66.8012Z" fill="#0071BA"/>
</svg>
