<svg width="95" height="95" viewBox="0 0 95 95" fill="none" xmlns="http://www.w3.org/2000/svg">
<path d="M11.875 47.5H15.8333M47.5 11.875V15.8333M79.1667 47.5H83.125M22.1667 22.1667L24.9375 24.9375M72.8333 22.1667L70.0625 24.9375" stroke="#0071BA" stroke-width="5" stroke-linecap="round" stroke-linejoin="round"/>
<path d="M35.6237 63.333C32.3006 60.8407 29.8458 57.3659 28.6073 53.4009C27.3687 49.4359 27.4091 45.1818 28.7227 41.241C30.0363 37.3002 32.5565 33.8727 35.9263 31.4438C39.2961 29.015 43.3448 27.708 47.4987 27.708C51.6526 27.708 55.7013 29.015 59.0711 31.4438C62.4409 33.8727 64.9611 37.3002 66.2747 41.241C67.5883 45.1818 67.6287 49.4359 66.3901 53.4009C65.1515 57.3659 62.6968 60.8407 59.3737 63.333C57.8282 64.8628 56.6646 66.735 55.9769 68.798C55.2893 70.861 55.0969 73.0569 55.4154 75.208C55.4154 77.3076 54.5813 79.3213 53.0966 80.8059C51.612 82.2906 49.5983 83.1247 47.4987 83.1247C45.3991 83.1247 43.3854 82.2906 41.9008 80.8059C40.4161 79.3213 39.582 77.3076 39.582 75.208C39.9005 73.0569 39.7081 70.861 39.0205 68.798C38.3328 66.735 37.1692 64.8628 35.6237 63.333Z" stroke="#0071BA" stroke-width="5" stroke-linecap="round" stroke-linejoin="round"/>
<path d="M38.3945 67.292H56.6029" stroke="#0071BA" stroke-width="5" stroke-linecap="round" stroke-linejoin="round"/>
</svg>
