<svg width="95" height="95" viewBox="0 0 95 95" fill="none" xmlns="http://www.w3.org/2000/svg">
<path fill-rule="evenodd" clip-rule="evenodd" d="M50.341 14.8459C48.7648 13.1829 46.2378 13.1829 44.6616 14.8459C42.3986 17.2334 39.8198 20.2173 37.8248 23.2392C35.7563 26.3728 34.6367 29.0763 34.6367 31.006C34.6367 38.5906 40.5093 44.5304 47.5013 44.5304C54.4933 44.5304 60.3659 38.5906 60.3659 31.006C60.3659 29.0763 59.2465 26.3728 57.1778 23.2392C55.1828 20.2173 52.604 17.2334 50.341 14.8459ZM40.3522 10.7615C44.2701 6.62766 50.7325 6.62766 54.6504 10.7615C57.0282 13.2702 59.8683 16.5377 62.1329 19.9681C64.3238 23.2868 66.3034 27.2363 66.3034 31.006C66.3034 41.6389 57.9984 50.4679 47.5013 50.4679C37.0042 50.4679 28.6992 41.6389 28.6992 31.006C28.6992 27.2363 30.6789 23.2868 32.8696 19.9681C35.1342 16.5377 37.9745 13.2702 40.3522 10.7615ZM26.591 54.4294C25.0149 52.7662 22.4877 52.7662 20.9116 54.4294C18.6488 56.8167 16.0697 59.8005 14.0748 62.8227C12.0063 65.9561 10.8867 68.6597 10.8867 70.5893C10.8867 78.1739 16.7595 84.1138 23.7513 84.1138C30.7431 84.1138 36.6159 78.1739 36.6159 70.5893C36.6159 68.6597 35.4963 65.9561 33.4278 62.8227C31.4329 59.8005 28.8538 56.8167 26.591 54.4294ZM16.602 50.3448C20.52 46.2112 26.9826 46.2112 30.9006 50.3448C33.2781 52.8536 36.1184 56.1212 38.383 59.5515C40.5738 62.8702 42.5534 66.8198 42.5534 70.5893C42.5534 81.2222 34.2484 90.0513 23.7513 90.0513C13.2542 90.0513 4.94922 81.2222 4.94922 70.5893C4.94922 66.8198 6.9289 62.8702 9.11964 59.5515C11.3842 56.1212 14.2245 52.8536 16.602 50.3448ZM74.091 54.4294C72.5148 52.7662 69.9878 52.7662 68.4116 54.4294C66.1486 56.8167 63.5698 59.8005 61.5748 62.8227C59.5061 65.9561 58.3867 68.6597 58.3867 70.5893C58.3867 78.1739 64.2593 84.1138 71.2513 84.1138C78.2433 84.1138 84.1159 78.1739 84.1159 70.5893C84.1159 68.6597 82.9965 65.9561 80.9278 62.8227C78.9328 59.8005 76.354 56.8167 74.091 54.4294ZM64.1022 50.3448C68.0201 46.2112 74.4825 46.2112 78.4004 50.3448C80.7782 52.8536 83.6183 56.1212 85.8829 59.5515C88.0738 62.8702 90.0534 66.8198 90.0534 70.5893C90.0534 81.2222 81.7484 90.0513 71.2513 90.0513C60.7542 90.0513 52.4492 81.2222 52.4492 70.5893C52.4492 66.8198 54.4288 62.8702 56.6197 59.5515C58.8843 56.1212 61.7244 52.8536 64.1022 50.3448Z" fill="#0071BA"/>
</svg>
