<svg width="95" height="95" viewBox="0 0 95 95" fill="none" xmlns="http://www.w3.org/2000/svg">
<path d="M27.707 71.2497V27.708C27.707 25.6084 28.5411 23.5947 30.0258 22.1101C31.5104 20.6254 33.5241 19.7913 35.6237 19.7913H37.6029C38.1278 19.7913 38.6312 19.5828 39.0023 19.2117C39.3735 18.8405 39.582 18.3371 39.582 17.8122C39.582 17.2873 39.7905 16.7839 40.1617 16.4127C40.5329 16.0415 41.0363 15.833 41.5612 15.833H53.4362C53.9611 15.833 54.4645 16.0415 54.8357 16.4127C55.2068 16.7839 55.4154 17.2873 55.4154 17.8122C55.4154 18.3371 55.6239 18.8405 55.995 19.2117C56.3662 19.5828 56.8696 19.7913 57.3945 19.7913H59.3737C61.4733 19.7913 63.487 20.6254 64.9716 22.1101C66.4563 23.5947 67.2904 25.6084 67.2904 27.708V71.2497C67.2904 73.3493 66.4563 75.3629 64.9716 76.8476C63.487 78.3323 61.4733 79.1663 59.3737 79.1663H35.6237C33.5241 79.1663 31.5104 78.3323 30.0258 76.8476C28.5411 75.3629 27.707 73.3493 27.707 71.2497Z" stroke="#0071BA" stroke-width="5" stroke-linecap="round" stroke-linejoin="round"/>
<path d="M39.582 67.292H55.4154" stroke="#0071BA" stroke-width="5" stroke-linecap="round" stroke-linejoin="round"/>
</svg>
