<svg width="95" height="95" viewBox="0 0 95 95" fill="none" xmlns="http://www.w3.org/2000/svg">
<path d="M63.332 83.125V75.2083C63.332 71.0091 61.6639 66.9818 58.6946 64.0125C55.7252 61.0432 51.698 59.375 47.4987 59.375H19.7904C15.5911 59.375 11.5638 61.0432 8.59451 64.0125C5.62518 66.9818 3.95703 71.0091 3.95703 75.2083V83.125" stroke="#0071BA" stroke-width="5" stroke-linecap="round" stroke-linejoin="round"/>
<path d="M33.6458 43.5417C42.3903 43.5417 49.4792 36.4528 49.4792 27.7083C49.4792 18.9638 42.3903 11.875 33.6458 11.875C24.9013 11.875 17.8125 18.9638 17.8125 27.7083C17.8125 36.4528 24.9013 43.5417 33.6458 43.5417Z" stroke="#0071BA" stroke-width="5" stroke-linecap="round" stroke-linejoin="round"/>
<path d="M67.293 43.5417L75.2096 51.4583L91.043 35.625" stroke="#0071BA" stroke-width="5" stroke-linecap="round" stroke-linejoin="round"/>
</svg>
