<svg width="50" height="50" viewBox="0 0 50 50" fill="none" xmlns="http://www.w3.org/2000/svg">
<path d="M36.7187 17.5777C35.749 17.5766 34.7996 17.8553 33.9844 18.3804V11.7183C33.984 10.796 33.7324 9.89117 33.2567 9.10101C32.781 8.31086 32.099 7.66519 31.2841 7.23332C30.4691 6.80145 29.5519 6.59968 28.631 6.64968C27.71 6.69968 26.8201 6.99955 26.0566 7.51711C25.7912 6.29236 25.0822 5.20902 24.0662 4.47548C23.0501 3.74195 21.7986 3.41003 20.5526 3.54358C19.3065 3.67713 18.1539 4.26671 17.3163 5.19891C16.4788 6.13112 16.0155 7.34009 16.0156 8.59329V10.5679C15.2484 10.0776 14.3635 9.80267 13.4536 9.77178C12.5436 9.74088 11.6421 9.95519 10.8434 10.3923C10.0447 10.8294 9.37823 11.4731 8.91372 12.2562C8.44922 13.0393 8.20379 13.9328 8.20312 14.8433V29.687C8.20313 34.1418 9.97279 38.4142 13.1228 41.5642C16.2728 44.7142 20.5452 46.4839 25 46.4839C29.4548 46.4839 33.7272 44.7142 36.8772 41.5642C40.0272 38.4142 41.7969 34.1418 41.7969 29.687V22.6558C41.7969 21.9889 41.6655 21.3286 41.4103 20.7125C41.1551 20.0964 40.7811 19.5366 40.3095 19.065C39.838 18.5935 39.2782 18.2194 38.6621 17.9642C38.046 17.709 37.3856 17.5777 36.7187 17.5777ZM39.4531 29.687C39.4531 33.5202 37.9304 37.1965 35.2199 39.9069C32.5094 42.6174 28.8332 44.1402 25 44.1402C21.1668 44.1402 17.4906 42.6174 14.7801 39.9069C12.0696 37.1965 10.5469 33.5202 10.5469 29.687V14.8433C10.5469 14.1181 10.835 13.4226 11.3478 12.9098C11.8605 12.397 12.556 12.1089 13.2812 12.1089C14.0065 12.1089 14.702 12.397 15.2147 12.9098C15.7275 13.4226 16.0156 14.1181 16.0156 14.8433V23.437C16.0156 23.7478 16.1391 24.0459 16.3589 24.2657C16.5786 24.4854 16.8767 24.6089 17.1875 24.6089C17.4983 24.6089 17.7964 24.4854 18.0161 24.2657C18.2359 24.0459 18.3594 23.7478 18.3594 23.437V8.59329C18.3594 7.86808 18.6475 7.17258 19.1603 6.65979C19.673 6.147 20.3685 5.85891 21.0937 5.85891C21.819 5.85891 22.5144 6.147 23.0272 6.65979C23.54 7.17258 23.8281 7.86808 23.8281 8.59329V21.8745C23.8281 22.1853 23.9516 22.4834 24.1714 22.7032C24.3911 22.9229 24.6892 23.0464 25 23.0464C25.3108 23.0464 25.6089 22.9229 25.8286 22.7032C26.0484 22.4834 26.1719 22.1853 26.1719 21.8745V11.7183C26.1719 10.9931 26.46 10.2976 26.9728 9.78479C27.4855 9.272 28.181 8.98391 28.9062 8.98391C29.6315 8.98391 30.3269 9.272 30.8397 9.78479C31.3525 10.2976 31.6406 10.9931 31.6406 11.7183V25.4663C29.4805 25.7534 27.498 26.8147 26.0612 28.453C24.6243 30.0913 23.8309 32.1954 23.8281 34.3745C23.8281 34.6853 23.9516 34.9834 24.1714 35.2032C24.3911 35.4229 24.6892 35.5464 25 35.5464C25.3108 35.5464 25.6089 35.4229 25.8286 35.2032C26.0484 34.9834 26.1719 34.6853 26.1719 34.3745C26.1719 32.6133 26.8715 30.9243 28.1169 29.6789C29.3622 28.4335 31.0513 27.7339 32.8125 27.7339C33.1233 27.7339 33.4214 27.6104 33.6411 27.3907C33.8609 27.1709 33.9844 26.8728 33.9844 26.562V22.6558C33.9844 21.9306 34.2725 21.2351 34.7853 20.7223C35.298 20.2095 35.9935 19.9214 36.7187 19.9214C37.444 19.9214 38.1394 20.2095 38.6522 20.7223C39.165 21.2351 39.4531 21.9306 39.4531 22.6558V29.687Z" fill="#0071BA"/>
</svg>
