<svg width="50" height="50" viewBox="0 0 50 50" fill="none" xmlns="http://www.w3.org/2000/svg">
<path d="M26.0958 32.2919C26.2051 31.1908 26.486 30.1402 26.9112 29.1669H8.86093C6.27339 29.1669 4.17578 31.2646 4.17578 33.8521V35.0556C4.17578 36.9156 4.83934 38.7146 6.0472 40.129C9.31032 43.9502 14.2812 45.8361 20.8351 45.8361C22.2303 45.8361 23.5541 45.7506 24.8049 45.5792C24.7733 45.5658 24.7418 45.5519 24.7101 45.5371C23.5562 44.9948 22.8874 43.8363 22.9143 42.6371C22.2466 42.6865 21.5535 42.7111 20.8351 42.7111C15.1303 42.7111 11.0347 41.1573 8.42361 38.0996C7.69893 37.2508 7.30078 36.1717 7.30078 35.0556V33.8521C7.30078 32.9904 7.99928 32.2919 8.86093 32.2919H26.0958ZM20.8351 4.17676C26.5881 4.17676 31.2518 8.84045 31.2518 14.5934C31.2518 20.3464 26.5881 25.01 20.8351 25.01C15.0821 25.01 10.4184 20.3464 10.4184 14.5934C10.4184 8.84045 15.0821 4.17676 20.8351 4.17676ZM20.8351 7.30176C16.808 7.30176 13.5434 10.5663 13.5434 14.5934C13.5434 18.6205 16.808 21.885 20.8351 21.885C24.8622 21.885 28.1268 18.6205 28.1268 14.5934C28.1268 10.5663 24.8622 7.30176 20.8351 7.30176ZM36.4645 25.0004C31.8622 25.0004 28.1312 28.7315 28.1312 33.3338L28.1308 39.5838L26.1549 41.2513C25.5139 41.7921 25.1933 42.0627 25.0962 42.274C24.8576 42.7936 25.0824 43.4083 25.5999 43.6515C25.8103 43.7504 26.2297 43.7504 27.0687 43.7504H45.8595C46.6985 43.7504 47.118 43.7504 47.3285 43.6515C47.846 43.4083 48.0708 42.7936 47.832 42.274C47.7349 42.0627 47.4143 41.7921 46.7733 41.2511L44.7978 39.5838V33.3338C44.7978 28.7315 41.0668 25.0004 36.4645 25.0004ZM39.5895 45.8338C39.1347 47.0475 37.9072 47.9171 36.4645 47.9171C35.0218 47.9171 33.7943 47.0475 33.3395 45.8338H39.5895Z" fill="#0071BA"/>
</svg>
