<svg width="50" height="50" viewBox="0 0 50 50" fill="none" xmlns="http://www.w3.org/2000/svg">
<path d="M22.9141 41.667H4.16406" stroke="#0071BA" stroke-width="3" stroke-linecap="round" stroke-linejoin="round"/>
<path d="M22.9141 9.50393V43.1643C22.9141 43.4808 22.9863 43.7931 23.1251 44.0775C23.2639 44.3619 23.4657 44.6109 23.7151 44.8057C23.9645 45.0005 24.255 45.1359 24.5645 45.2016C24.8741 45.2674 25.1945 45.2618 25.5016 45.1852L39.5807 41.6664V11.5873C39.5806 10.6581 39.2699 9.75567 38.698 9.02336C38.1261 8.29106 37.3259 7.77091 36.4245 7.54559L28.0911 5.46226C27.4771 5.30877 26.8361 5.29719 26.2169 5.42841C25.5977 5.55964 25.0165 5.8302 24.5175 6.21958C24.0185 6.60896 23.6148 7.1069 23.3369 7.67562C23.0591 8.24434 22.9145 8.87097 22.9141 9.50393Z" stroke="#0071BA" stroke-width="3" stroke-linecap="round" stroke-linejoin="round"/>
<path d="M22.9167 8.33301H16.6667C15.5616 8.33301 14.5018 8.77199 13.7204 9.5534C12.939 10.3348 12.5 11.3946 12.5 12.4997V41.6663" stroke="#0071BA" stroke-width="3" stroke-linecap="round" stroke-linejoin="round"/>
<path d="M29.1641 25H29.1849" stroke="#0071BA" stroke-width="3" stroke-linecap="round" stroke-linejoin="round"/>
<path d="M45.8359 41.667H39.5859" stroke="#0071BA" stroke-width="3" stroke-linecap="round" stroke-linejoin="round"/>
</svg>
