<svg width="48" height="48" viewBox="0 0 48 48" fill="none" xmlns="http://www.w3.org/2000/svg">
<path d="M16 34C17.1046 34 18 33.1046 18 32C18 30.8954 17.1046 30 16 30C14.8954 30 14 30.8954 14 32C14 33.1046 14.8954 34 16 34Z" fill="#0071BA"/>
<path d="M24 34C25.1046 34 26 33.1046 26 32C26 30.8954 25.1046 30 24 30C22.8954 30 22 30.8954 22 32C22 33.1046 22.8954 34 24 34Z" fill="#0071BA"/>
<path d="M34 32C34 33.1046 33.1046 34 32 34C30.8954 34 30 33.1046 30 32C30 30.8954 30.8954 30 32 30C33.1046 30 34 30.8954 34 32Z" fill="#0071BA"/>
<path fill-rule="evenodd" clip-rule="evenodd" d="M13.5 16C13.5 10.201 18.201 5.5 24 5.5C28.8906 5.5 33.0036 8.84484 34.1692 13.3739C34.3758 14.1762 35.1936 14.6591 35.9958 14.4527C36.7982 14.2462 37.281 13.4284 37.0746 12.6261C35.576 6.8038 30.2926 2.5 24 2.5C16.5442 2.5 10.5 8.54416 10.5 16V18.6055C10.0463 18.6374 9.61876 18.679 9.2165 18.733C7.41628 18.9751 5.90054 19.4929 4.6967 20.6966C3.49286 21.9006 2.97508 23.4162 2.73304 25.2164C2.49992 26.9504 2.49996 29.155 2.5 31.8902V32.1098C2.49996 34.845 2.49992 37.0496 2.73304 38.7836C2.97508 40.5838 3.49286 42.0994 4.6967 43.3032C5.90054 44.5072 7.41628 45.025 9.2165 45.267C10.9504 45.5 13.1551 45.5 15.8903 45.5H32.1098C34.845 45.5 37.0496 45.5 38.7836 45.267C40.5838 45.025 42.0994 44.5072 43.3034 43.3032C44.5072 42.0994 45.025 40.5838 45.267 38.7836C45.5 37.0496 45.5 34.845 45.5 32.1098V31.8902C45.5 29.155 45.5 26.9504 45.267 25.2164C45.025 23.4162 44.5072 21.9006 43.3034 20.6966C42.0994 19.4929 40.5838 18.9751 38.7836 18.733C37.0496 18.4999 34.845 18.5 32.1098 18.5H15.8903C15.0432 18.5 14.2471 18.5 13.5 18.5069V16ZM9.61624 21.7062C8.1487 21.9036 7.37154 22.2644 6.81802 22.818C6.2645 23.3716 5.9036 24.1486 5.7063 25.6162C5.50318 27.127 5.5 29.1292 5.5 32C5.5 34.8708 5.50318 36.873 5.7063 38.3838C5.9036 39.8514 6.2645 40.6284 6.81802 41.182C7.37154 41.7356 8.1487 42.0964 9.61624 42.2938C11.1269 42.4968 13.1292 42.5 16 42.5H32C34.8708 42.5 36.873 42.4968 38.3838 42.2938C39.8514 42.0964 40.6284 41.7356 41.182 41.182C41.7356 40.6284 42.0964 39.8514 42.2938 38.3838C42.4968 36.873 42.5 34.8708 42.5 32C42.5 29.1292 42.4968 27.127 42.2938 25.6162C42.0964 24.1486 41.7356 23.3716 41.182 22.818C40.6284 22.2644 39.8514 21.9036 38.3838 21.7062C36.873 21.5032 34.8708 21.5 32 21.5H16C13.1292 21.5 11.1269 21.5032 9.61624 21.7062Z" fill="#0071BA"/>
</svg>
