<svg width="48" height="48" viewBox="0 0 48 48" fill="none" xmlns="http://www.w3.org/2000/svg">
<path d="M36.0078 33.3269C34.9024 32.8017 33.9564 31.9955 33.2624 31.0003C32.652 30.1253 32.2366 29.1045 32.0786 28.0003C32.032 27.6739 32.0078 27.3399 32.0078 27.0005C32.0078 23.1345 35.1418 20.0005 39.0078 20.0005C42.8738 20.0005 46.0078 23.1345 46.0078 27.0005C46.0078 30.1715 43.8992 32.8501 41.0078 33.7107V34.0005L43.3006 36.2933C43.6912 36.6839 43.6912 37.3171 43.3006 37.7077L41.0078 40.0005L43.33 42.3227C43.709 42.7017 43.7218 43.3117 43.3594 43.7063L39.7136 47.6747C39.3288 48.0937 38.6724 48.1075 38.27 47.7053L36.3006 45.7359C36.1132 45.5483 36.0078 45.2941 36.0078 45.0289V33.3269ZM41.0078 26.0005C41.0078 24.8959 40.1124 24.0005 39.0078 24.0005C37.9032 24.0005 37.0078 24.8959 37.0078 26.0005C37.0078 27.1051 37.9032 28.0005 39.0078 28.0005C40.1124 28.0005 41.0078 27.1051 41.0078 26.0005ZM24.0086 44.0027C27.9452 44.0027 31.288 43.2939 34.0078 41.8649V38.3455C31.5608 40.1097 28.246 41.0027 24.0086 41.0027C18.5319 41.0027 14.6002 39.5111 12.0935 36.5757C11.3978 35.7609 11.0156 34.7249 11.0156 33.6535V32.4981C11.0156 31.6709 11.6862 31.0003 12.5134 31.0003H30.9434C30.4856 30.0791 30.1808 29.0681 30.0628 28.0003H12.5134C10.0293 28.0003 8.01562 30.0141 8.01562 32.4981V33.6535C8.01562 35.4391 8.65265 37.1661 9.81219 38.5239C12.9448 42.1923 17.7168 44.0027 24.0086 44.0027ZM24.0086 4.00977C29.5314 4.00977 34.0086 8.48691 34.0086 14.0098C34.0086 19.5326 29.5314 24.0097 24.0086 24.0097C18.4857 24.0097 14.0085 19.5326 14.0085 14.0098C14.0085 8.48691 18.4857 4.00977 24.0086 4.00977ZM24.0086 7.00977C20.1426 7.00977 17.0085 10.1438 17.0085 14.0098C17.0085 17.8758 20.1426 21.0097 24.0086 21.0097C27.8746 21.0097 31.0086 17.8758 31.0086 14.0098C31.0086 10.1438 27.8746 7.00977 24.0086 7.00977Z" fill="#0071BA"/>
</svg>
