<svg width="50" height="50" viewBox="0 0 50 50" fill="none" xmlns="http://www.w3.org/2000/svg">
<path fill-rule="evenodd" clip-rule="evenodd" d="M26.492 7.81369C25.6624 6.9384 24.3324 6.9384 23.5028 7.81369C22.3118 9.07027 20.9545 10.6408 19.9045 12.2312C18.8158 13.8805 18.2266 15.3034 18.2266 16.319C18.2266 20.3109 21.3174 23.4371 24.9974 23.4371C28.6774 23.4371 31.7682 20.3109 31.7682 16.319C31.7682 15.3034 31.1791 13.8805 30.0903 12.2312C29.0403 10.6408 27.683 9.07027 26.492 7.81369ZM21.2347 5.66402C23.2968 3.48829 26.698 3.48829 28.7601 5.66402C30.0116 6.98436 31.5064 8.70413 32.6982 10.5096C33.8514 12.2563 34.8932 14.335 34.8932 16.319C34.8932 21.9153 30.5222 26.5621 24.9974 26.5621C19.4726 26.5621 15.1016 21.9153 15.1016 16.319C15.1016 14.335 16.1435 12.2563 17.2965 10.5096C18.4884 8.70413 19.9833 6.98436 21.2347 5.66402ZM13.992 28.6471C13.1624 27.7717 11.8324 27.7717 11.0028 28.6471C9.81185 29.9036 8.45444 31.474 7.40452 33.0646C6.31579 34.7138 5.72656 36.1367 5.72656 37.1523C5.72656 41.1442 8.81748 44.2705 12.4974 44.2705C16.1773 44.2705 19.2682 41.1442 19.2682 37.1523C19.2682 36.1367 18.679 34.7138 17.5903 33.0646C16.5404 31.474 15.1829 29.9036 13.992 28.6471ZM8.73463 26.4973C10.7967 24.3217 14.1981 24.3217 16.2602 26.4973C17.5115 27.8178 19.0064 29.5375 20.1983 31.343C21.3514 33.0896 22.3932 35.1684 22.3932 37.1523C22.3932 42.7486 18.0222 47.3955 12.4974 47.3955C6.97258 47.3955 2.60156 42.7486 2.60156 37.1523C2.60156 35.1684 3.6435 33.0896 4.79652 31.343C5.98838 29.5375 7.48327 27.8178 8.73463 26.4973ZM38.992 28.6471C38.1624 27.7717 36.8324 27.7717 36.0028 28.6471C34.8118 29.9036 33.4545 31.474 32.4045 33.0646C31.3157 34.7138 30.7266 36.1367 30.7266 37.1523C30.7266 41.1442 33.8174 44.2705 37.4974 44.2705C41.1774 44.2705 44.2682 41.1442 44.2682 37.1523C44.2682 36.1367 43.6791 34.7138 42.5903 33.0646C41.5403 31.474 40.183 29.9036 38.992 28.6471ZM33.7347 26.4973C35.7968 24.3217 39.198 24.3217 41.2601 26.4973C42.5116 27.8178 44.0064 29.5375 45.1982 31.343C46.3514 33.0896 47.3932 35.1684 47.3932 37.1523C47.3932 42.7486 43.0222 47.3955 37.4974 47.3955C31.9726 47.3955 27.6016 42.7486 27.6016 37.1523C27.6016 35.1684 28.6434 33.0896 29.7966 31.343C30.9884 29.5375 32.4832 27.8178 33.7347 26.4973Z" fill="#0071BA"/>
</svg>
