<svg width="50" height="50" viewBox="0 0 50 50" fill="none" xmlns="http://www.w3.org/2000/svg">
<path d="M10.4141 18.7497C10.4141 19.8547 10.853 20.9146 11.6345 21.696C12.4159 22.4774 13.4757 22.9163 14.5807 22.9163C15.6858 22.9163 16.7456 22.4774 17.527 21.696C18.3084 20.9146 18.7474 19.8547 18.7474 18.7497C18.7474 17.6446 18.3084 16.5848 17.527 15.8034C16.7456 15.022 15.6858 14.583 14.5807 14.583C13.4757 14.583 12.4159 15.022 11.6345 15.8034C10.853 16.5848 10.4141 17.6446 10.4141 18.7497Z" stroke="#0071BA" stroke-width="3.125" stroke-linecap="round" stroke-linejoin="round"/>
<path d="M45.8307 35.417V29.167H4.16406" stroke="#0071BA" stroke-width="3.125" stroke-linecap="round" stroke-linejoin="round"/>
<path d="M4.16406 16.667V35.417" stroke="#0071BA" stroke-width="3.125" stroke-linecap="round" stroke-linejoin="round"/>
<path d="M25 29.1667H45.8333V25C45.8333 23.3424 45.1749 21.7527 44.0028 20.5806C42.8307 19.4085 41.2409 18.75 39.5833 18.75H25V29.1667Z" stroke="#0071BA" stroke-width="3.125" stroke-linecap="round" stroke-linejoin="round"/>
</svg>
