<svg width="50" height="50" viewBox="0 0 50 50" fill="none" xmlns="http://www.w3.org/2000/svg">
<path d="M37.4922 16.667L35.8255 22.917C35.7073 23.4965 35.3954 24.0186 34.941 24.3972C34.4866 24.7759 33.9169 24.9886 33.3255 25.0003H16.6589C16.0675 24.9886 15.4977 24.7759 15.0434 24.3972C14.589 24.0186 14.277 23.4965 14.1589 22.917L12.4922 16.667" stroke="#0071BA" stroke-width="3.11587" stroke-linecap="round" stroke-linejoin="round"/>
<path d="M6.24219 10.4163C6.24219 9.86381 6.46168 9.3339 6.85238 8.9432C7.24308 8.5525 7.77299 8.33301 8.32552 8.33301H41.6589C42.2114 8.33301 42.7413 8.5525 43.132 8.9432C43.5227 9.3339 43.7422 9.86381 43.7422 10.4163V14.583C43.7422 15.1355 43.5227 15.6654 43.132 16.0561C42.7413 16.4468 42.2114 16.6663 41.6589 16.6663H8.32552C7.77299 16.6663 7.24308 16.4468 6.85238 16.0561C6.46168 15.6654 6.24219 15.1355 6.24219 14.583V10.4163Z" stroke="#0071BA" stroke-width="3.11587" stroke-linecap="round" stroke-linejoin="round"/>
<path d="M24.9986 33.333C26.3381 33.933 27.1173 34.908 27.0819 35.9372C27.1173 36.9663 26.3381 37.9413 24.9986 38.5413C23.659 39.1413 22.8798 40.1163 22.9152 41.1455C22.8798 42.1747 23.659 43.1497 24.9986 43.7497" stroke="#0071BA" stroke-width="3.11587" stroke-linecap="round" stroke-linejoin="round"/>
<path d="M14.5767 33.333C15.9163 33.933 16.6954 34.908 16.66 35.9372C16.6954 36.9663 15.9163 37.9413 14.5767 38.5413C13.2371 39.1413 12.4579 40.1163 12.4933 41.1455C12.4579 42.1747 13.2371 43.1497 14.5767 43.7497" stroke="#0071BA" stroke-width="3.11587" stroke-linecap="round" stroke-linejoin="round"/>
<path d="M35.4126 33.333C36.7522 33.933 37.5314 34.908 37.4959 35.9372C37.5314 36.9663 36.7522 37.9413 35.4126 38.5413C34.073 39.1413 33.2939 40.1163 33.3293 41.1455C33.2939 42.1747 34.073 43.1497 35.4126 43.7497" stroke="#0071BA" stroke-width="3.11587" stroke-linecap="round" stroke-linejoin="round"/>
</svg>
