<svg width="50" height="50" viewBox="0 0 50 50" fill="none" xmlns="http://www.w3.org/2000/svg">
<path d="M25 7.8125C21.2916 7.8125 17.6665 8.91217 14.5831 10.9724C11.4996 13.0327 9.09641 15.9611 7.67727 19.3872C6.25812 22.8133 5.88681 26.5833 6.61028 30.2204C7.33376 33.8576 9.11952 37.1985 11.7418 39.8208C14.364 42.443 17.7049 44.2287 21.3421 44.9522C24.9792 45.6757 28.7492 45.3044 32.1753 43.8852C35.6014 42.4661 38.5298 40.0629 40.5901 36.9794C42.6503 33.896 43.75 30.2709 43.75 26.5625C43.7443 21.5914 41.7671 16.8256 38.252 13.3105C34.7369 9.79545 29.9711 7.81819 25 7.8125ZM25 42.1875C21.9097 42.1875 18.8887 41.2711 16.3192 39.5542C13.7497 37.8373 11.747 35.397 10.5644 32.5419C9.38177 29.6868 9.07234 26.5452 9.67524 23.5142C10.2781 20.4833 11.7663 17.6992 13.9515 15.514C16.1367 13.3288 18.9208 11.8406 21.9517 11.2377C24.9827 10.6348 28.1243 10.9443 30.9794 12.1269C33.8345 13.3095 36.2748 15.3122 37.9917 17.8817C39.7086 20.4512 40.625 23.4722 40.625 26.5625C40.6204 30.7051 38.9727 34.6767 36.0434 37.6059C33.1142 40.5352 29.1426 42.1828 25 42.1875ZM33.918 17.6445C34.0633 17.7896 34.1785 17.962 34.2571 18.1517C34.3358 18.3413 34.3762 18.5447 34.3762 18.75C34.3762 18.9553 34.3358 19.1587 34.2571 19.3483C34.1785 19.538 34.0633 19.7104 33.918 19.8555L26.1055 27.668C25.9603 27.8131 25.788 27.9283 25.5983 28.0069C25.4086 28.0854 25.2053 28.1259 25 28.1259C24.7947 28.1259 24.5914 28.0854 24.4017 28.0069C24.2121 27.9283 24.0397 27.8131 23.8945 27.668C23.7494 27.5228 23.6342 27.3505 23.5556 27.1608C23.4771 26.9711 23.4366 26.7678 23.4366 26.5625C23.4366 26.3572 23.4771 26.1539 23.5556 25.9642C23.6342 25.7745 23.7494 25.6022 23.8945 25.457L31.707 17.6445C31.8522 17.4993 32.0245 17.384 32.2142 17.3054C32.4038 17.2267 32.6072 17.1863 32.8125 17.1863C33.0178 17.1863 33.2212 17.2267 33.4109 17.3054C33.6005 17.384 33.7729 17.4993 33.918 17.6445ZM18.75 3.125C18.75 2.7106 18.9146 2.31317 19.2077 2.02015C19.5007 1.72712 19.8981 1.5625 20.3125 1.5625H29.6875C30.1019 1.5625 30.4993 1.72712 30.7924 2.02015C31.0854 2.31317 31.25 2.7106 31.25 3.125C31.25 3.5394 31.0854 3.93683 30.7924 4.22985C30.4993 4.52288 30.1019 4.6875 29.6875 4.6875H20.3125C19.8981 4.6875 19.5007 4.52288 19.2077 4.22985C18.9146 3.93683 18.75 3.5394 18.75 3.125Z" fill="#0071BA"/>
</svg>
