<svg width="95" height="95" viewBox="0 0 95 95" fill="none" xmlns="http://www.w3.org/2000/svg">
<path fill-rule="evenodd" clip-rule="evenodd" d="M47.4974 10.8853C44.7646 10.8853 42.5495 13.1005 42.5495 15.8332C42.5495 18.5658 44.7646 20.7811 47.4974 20.7811C50.2302 20.7811 52.4453 18.5658 52.4453 15.8332C52.4453 13.1005 50.2302 10.8853 47.4974 10.8853ZM36.612 15.8332C36.612 9.82133 41.4855 4.94775 47.4974 4.94775C53.5093 4.94775 58.3828 9.82133 58.3828 15.8332C58.3828 21.845 53.5093 26.7186 47.4974 26.7186C41.4855 26.7186 36.612 21.845 36.612 15.8332ZM67.2471 28.3566C72.8711 27.1515 78.1745 31.4388 78.1745 37.1905C78.1745 41.079 75.6863 44.5315 71.9971 45.7613L63.3865 48.6315C62.8439 48.8124 62.5193 48.9213 62.2786 49.0123C62.1262 49.0697 62.0621 49.1006 62.0467 49.1081C61.7217 49.3136 61.5447 49.688 61.593 50.0692C61.597 50.0862 61.614 50.1555 61.6663 50.3095C61.749 50.5533 61.8713 50.8731 62.0767 51.4067L67.012 64.2385C69.2291 70.0026 64.9742 76.1978 58.7981 76.1978C55.6401 76.1978 52.7244 74.5056 51.1573 71.7636L47.4974 65.3587L43.8375 71.7636C42.2704 74.5056 39.3546 76.1978 36.1966 76.1978C30.0207 76.1978 25.7659 70.0026 27.9829 64.2385L32.9181 51.4067C33.1235 50.8731 33.2458 50.5533 33.3286 50.3095C33.3809 50.1555 33.3979 50.0862 33.4018 50.0692C33.4501 49.688 33.2732 49.3136 32.9483 49.1081C32.9328 49.1006 32.8687 49.0697 32.7163 49.0123C32.4756 48.9213 32.151 48.8124 31.6083 48.6315L22.9978 45.7613C19.3086 44.5315 16.8203 41.079 16.8203 37.1905C16.8203 31.4388 22.1237 27.1515 27.7477 28.3566L35.2589 29.9662C35.6805 30.0565 35.8774 30.0987 36.0718 30.1389C43.6091 31.698 51.3857 31.698 58.9231 30.1389C59.1175 30.0987 59.3142 30.0565 59.7358 29.9662L67.2471 28.3566ZM72.237 37.1905C72.237 35.2188 70.4189 33.7492 68.4912 34.1623L60.9692 35.7742C60.5623 35.8614 60.3434 35.9083 60.1257 35.9533C51.795 37.6765 43.1998 37.6765 34.8691 35.9533C34.6514 35.9083 34.4328 35.8614 34.0267 35.7744L26.5036 34.1623C24.5758 33.7492 22.7578 35.2188 22.7578 37.1905C22.7578 38.5234 23.6108 39.7071 24.8754 40.1286L33.4859 42.9988C33.5577 43.0226 33.6298 43.0463 33.7022 43.0705C34.516 43.34 35.3615 43.6203 36.0586 44.0506C38.3904 45.4898 39.6544 48.1688 39.2833 50.8834C39.1723 51.6953 38.8511 52.5261 38.5419 53.3257C38.5144 53.397 38.487 53.4678 38.4599 53.5383L33.5246 66.37C32.8034 68.2451 34.1875 70.2603 36.1966 70.2603C37.2239 70.2603 38.1724 69.7097 38.6822 68.8178L44.9197 57.902C45.4482 56.9769 46.4322 56.4061 47.4974 56.4061C48.5626 56.4061 49.5466 56.9769 50.0751 57.902L56.3126 68.8178C56.8224 69.7097 57.7709 70.2603 58.7981 70.2603C60.8073 70.2603 62.1915 68.2451 61.4703 66.37L56.5351 53.5383C56.5078 53.4678 56.4804 53.397 56.4527 53.3257C56.1436 52.5261 55.8226 51.6953 55.7113 50.8834C55.3404 48.1688 56.6043 45.4898 58.9362 44.0506C59.6333 43.6203 60.4788 43.34 61.2926 43.0705C61.365 43.0463 61.4371 43.0226 61.5087 42.9988L70.1193 40.1286C71.384 39.7071 72.237 38.5234 72.237 37.1905ZM20.6456 56.0621C21.3821 57.5271 20.7916 59.3115 19.3268 60.0482C13.3065 63.0751 10.8828 66.4797 10.8828 69.2707C10.8828 72.2937 13.7487 76.0188 20.726 79.1586C27.4247 82.1733 36.8871 84.1144 47.4974 84.1144C58.1077 84.1144 67.5701 82.1733 74.2688 79.1586C81.2462 76.0188 84.112 72.2937 84.112 69.2707C84.112 66.4797 81.6883 63.0751 75.6681 60.0482C74.2031 59.3115 73.6125 57.5271 74.3492 56.0621C75.0858 54.5971 76.8702 54.0069 78.3352 54.7432C84.8506 58.0191 90.0495 62.9373 90.0495 69.2707C90.0495 76.0853 84.0542 81.2664 76.7052 84.5732C69.0774 88.0059 58.7486 90.0519 47.4974 90.0519C36.2464 90.0519 25.9172 88.0059 18.2895 84.5732C10.9405 81.2664 4.94531 76.0853 4.94531 69.2707C4.94531 62.9373 10.1442 58.0191 16.6596 54.7432C18.1245 54.0069 19.9091 54.5971 20.6456 56.0621Z" fill="#0071BA"/>
</svg>
