<svg width="92" height="92" viewBox="0 0 92 92" fill="none" xmlns="http://www.w3.org/2000/svg">
<path d="M10.4516 13.2998C8.87756 13.2998 7.60156 14.5758 7.60156 16.1498C7.60156 17.7238 8.87756 18.9998 10.4516 18.9998H80.7516C82.3255 18.9998 83.6016 17.7238 83.6016 16.1498C83.6016 14.5758 82.3255 13.2998 80.7516 13.2998H10.4516ZM7.60156 40.8498C7.60156 38.2263 9.72819 36.0998 12.3516 36.0998H78.8516C81.4751 36.0998 83.6016 38.2263 83.6016 40.8498C83.6016 43.4733 81.4751 45.5998 78.8516 45.5998H12.3516C9.72819 45.5998 7.60156 43.4733 7.60156 40.8498ZM7.60156 69.3498C7.60156 65.6771 10.5789 62.6998 14.2516 62.6998H76.9516C80.6243 62.6998 83.6016 65.6771 83.6016 69.3498C83.6016 73.0225 80.6243 75.9998 76.9516 75.9998H14.2516C10.5789 75.9998 7.60156 73.0225 7.60156 69.3498Z" fill="#0071BA"/>
</svg>
