<svg width="92" height="92" viewBox="0 0 92 92" fill="none" xmlns="http://www.w3.org/2000/svg">
<path d="M78.094 57.0859C77.7892 56.893 77.4405 56.7805 77.0805 56.7587C76.7204 56.7369 76.3607 56.8065 76.0349 56.9612C74.995 57.4524 73.8597 57.7088 72.7096 57.7121C71.5595 57.7153 70.4228 57.4655 69.3801 56.9802C68.3374 56.4949 67.4143 55.786 66.6763 54.904C65.9383 54.0219 65.4034 52.9883 65.1097 51.8763C64.8159 50.7644 64.7705 49.6014 64.9766 48.4699C65.1828 47.3385 65.6354 46.2662 66.3024 45.3293C66.9694 44.3924 67.8344 43.6137 68.836 43.0486C69.8377 42.4834 70.9515 42.1457 72.0983 42.0592C73.4518 41.9613 74.8076 42.2141 76.0349 42.7931C76.3606 42.9475 76.7201 43.017 77.08 42.9952C77.4398 42.9734 77.7883 42.8608 78.0929 42.6682C78.3976 42.4755 78.6486 42.2088 78.8226 41.8931C78.9965 41.5774 79.0878 41.2227 79.0879 40.8622V25.6504C79.0879 24.3276 78.5625 23.059 77.6271 22.1237C76.6918 21.1883 75.4232 20.6629 74.1004 20.6629H60.3777C60.5007 19.957 60.5627 19.2419 60.5629 18.5254C60.5604 16.8712 60.22 15.2349 59.5627 13.7169C58.9054 12.1989 57.945 10.8312 56.7404 9.69749C55.5369 8.55639 54.1097 7.67749 52.5491 7.1164C50.9885 6.5553 49.3283 6.32423 47.6738 6.4378C45.9714 6.5475 44.3113 7.01558 42.8024 7.81138C41.2934 8.60718 39.9696 9.71275 38.9176 11.0557C37.8655 12.3986 37.1091 13.9487 36.6977 15.6043C36.2863 17.2599 36.2292 18.9837 36.5303 20.6629H22.8004C21.4777 20.6629 20.2091 21.1883 19.2737 22.1237C18.3384 23.059 17.8129 24.3276 17.8129 25.6504V37.9517C15.8266 37.5957 13.7828 37.7416 11.8672 38.3762C9.95162 39.0108 8.22493 40.114 6.84399 41.5854C5.27811 43.2535 4.21667 45.3309 3.78255 47.5772C3.34843 49.8235 3.55939 52.1469 4.39099 54.2782C5.2226 56.4096 6.64085 58.2619 8.48155 59.6206C10.3223 60.9794 12.5101 61.789 14.7919 61.9558C15.8015 62.0287 16.8163 61.9761 17.8129 61.7991V74.1004C17.8129 75.4231 18.3384 76.6917 19.2737 77.6271C20.2091 78.5624 21.4777 79.0879 22.8004 79.0879H74.1004C75.4232 79.0879 76.6918 78.5624 77.6271 77.6271C78.5625 76.6917 79.0879 75.4231 79.0879 74.1004V58.8921C79.088 58.5316 78.9969 58.177 78.8231 57.8612C78.6493 57.5454 78.3985 57.2787 78.094 57.0859ZM74.8129 74.1004C74.8129 74.2893 74.7379 74.4706 74.6042 74.6042C74.4706 74.7378 74.2894 74.8129 74.1004 74.8129H22.8004C22.6115 74.8129 22.4302 74.7378 22.2966 74.6042C22.163 74.4706 22.0879 74.2893 22.0879 74.1004V58.8921C22.0879 58.3252 21.8627 57.7815 21.4619 57.3806C21.061 56.9798 20.5173 56.7546 19.9504 56.7546C19.6336 56.7538 19.3207 56.8244 19.0349 56.9612C17.8789 57.5093 16.6064 57.7661 15.3284 57.7092C14.0503 57.6523 12.8056 57.2834 11.703 56.6348C10.6003 55.9861 9.67321 55.0774 9.00259 53.9879C8.33197 52.8985 7.93823 51.6614 7.85574 50.3848C7.76687 49.0223 8.03548 47.6603 8.63496 46.4335C9.23444 45.2068 10.144 44.158 11.2735 43.3909C12.4031 42.6239 13.7134 42.1652 15.0747 42.0603C16.4361 41.9555 17.8012 42.2081 19.0349 42.7931C19.3606 42.9475 19.7201 43.017 20.08 42.9952C20.4398 42.9734 20.7883 42.8608 21.093 42.6682C21.3976 42.4755 21.6486 42.2088 21.8226 41.8931C21.9965 41.5774 22.0878 41.2227 22.0879 40.8622V25.6504C22.0879 25.4614 22.163 25.2802 22.2966 25.1466C22.4302 25.0129 22.6115 24.9379 22.8004 24.9379H39.4337C39.7942 24.9378 40.1489 24.8465 40.4646 24.6725C40.7803 24.4986 41.047 24.2476 41.2397 23.9429C41.4323 23.6382 41.5448 23.2897 41.5667 22.9299C41.5885 22.5701 41.519 22.2106 41.3646 21.8848C40.7975 20.6605 40.5522 19.3117 40.6521 17.9661C40.7355 16.8179 41.0708 15.7023 41.6341 14.6984C42.1975 13.6945 42.975 12.8271 43.9115 12.1577C44.848 11.4883 45.9205 11.0334 47.0527 10.8254C48.1849 10.6174 49.349 10.6613 50.4623 10.9541C51.5756 11.2468 52.6107 11.7812 53.4941 12.5193C54.3775 13.2574 55.0874 14.181 55.5735 15.2244C56.0596 16.2679 56.3099 17.4057 56.3065 18.5568C56.3031 19.7079 56.0462 20.8442 55.5541 21.8848C55.4004 22.2089 55.3308 22.5665 55.3516 22.9246C55.3724 23.2827 55.483 23.6298 55.6732 23.9339C55.8635 24.238 56.1271 24.4894 56.44 24.6648C56.7529 24.8403 57.1049 24.9342 57.4636 24.9379H74.1004C74.2894 24.9379 74.4706 25.0129 74.6042 25.1466C74.7379 25.2802 74.8129 25.4614 74.8129 25.6504V37.9552C73.1338 37.6542 71.4099 37.7112 69.7543 38.1226C68.0987 38.534 66.5487 39.2905 65.2058 40.3425C63.8628 41.3945 62.7572 42.7184 61.9614 44.2273C61.1656 45.7363 60.6976 47.3963 60.5879 49.0987C60.4754 50.7529 60.7066 52.4124 61.267 53.9728C61.8274 55.5332 62.7048 56.9607 63.844 58.1653C65.2274 59.6335 66.9543 60.7346 68.869 61.3695C70.7838 62.0044 72.8264 62.1533 74.8129 61.8026V74.1004Z" fill="#0071BA"/>
</svg>
