<svg width="95" height="95" viewBox="0 0 95 95" fill="none" xmlns="http://www.w3.org/2000/svg">
<path d="M27.7109 71.2502V27.7085C27.7109 25.6089 28.545 23.5952 30.0297 22.1106C31.5143 20.6259 33.528 19.7918 35.6276 19.7918H37.6068C38.1317 19.7918 38.6351 19.5833 39.0063 19.2121C39.3774 18.841 39.5859 18.3376 39.5859 17.8127C39.5859 17.2878 39.7945 16.7843 40.1656 16.4132C40.5368 16.042 41.0402 15.8335 41.5651 15.8335H53.4401C53.965 15.8335 54.4684 16.042 54.8396 16.4132C55.2108 16.7843 55.4193 17.2878 55.4193 17.8127C55.4193 18.3376 55.6278 18.841 55.999 19.2121C56.3701 19.5833 56.8735 19.7918 57.3984 19.7918H59.3776C61.4772 19.7918 63.4909 20.6259 64.9755 22.1106C66.4602 23.5952 67.2943 25.6089 67.2943 27.7085V71.2502C67.2943 73.3498 66.4602 75.3634 64.9755 76.8481C63.4909 78.3328 61.4772 79.1668 59.3776 79.1668H35.6276C33.528 79.1668 31.5143 78.3328 30.0297 76.8481C28.545 75.3634 27.7109 73.3498 27.7109 71.2502Z" stroke="#0071BA" stroke-width="5" stroke-linecap="round" stroke-linejoin="round"/>
<path d="M39.5859 67.2915H55.4193" stroke="#0071BA" stroke-width="5" stroke-linecap="round" stroke-linejoin="round"/>
<path d="M39.5859 55.4165H55.4193" stroke="#0071BA" stroke-width="5" stroke-linecap="round" stroke-linejoin="round"/>
<path d="M39.5859 43.5415H55.4193" stroke="#0071BA" stroke-width="5" stroke-linecap="round" stroke-linejoin="round"/>
<path d="M39.5859 31.6665H55.4193" stroke="#0071BA" stroke-width="5" stroke-linecap="round" stroke-linejoin="round"/>
</svg>
