<svg width="95" height="95" viewBox="0 0 95 95" fill="none" xmlns="http://www.w3.org/2000/svg">
<path d="M47.2503 9.96911L45.6839 12.35L44.1172 9.96911C45.0679 9.34363 46.2995 9.34363 47.2503 9.96911Z" fill="#0071BA"/>
<path fill-rule="evenodd" clip-rule="evenodd" d="M44.1128 9.96926C44.1128 9.96926 44.1128 9.96925 45.6795 12.3501C47.2459 9.96925 47.2459 9.96926 47.2459 9.96926L47.2497 9.9718L47.2562 9.9761L47.2771 9.98985L47.3493 10.0381C47.4108 10.0793 47.499 10.1388 47.6115 10.216C47.8372 10.3703 48.1617 10.5955 48.5713 10.888C49.3902 11.4728 50.5504 12.3276 51.9385 13.4226C54.7095 15.6091 58.4118 18.7719 62.1237 22.6739C69.436 30.3604 77.2883 41.4391 77.2883 53.891C77.2883 71.3482 63.1367 85.5001 45.6795 85.5001C28.2222 85.5001 14.0703 71.3482 14.0703 53.891C14.0703 41.4391 21.9227 30.3604 29.2349 22.6739C32.9469 18.7719 36.6492 15.6091 39.4206 13.4226C40.8083 12.3276 41.9685 11.4728 42.7874 10.888C43.197 10.5955 43.5215 10.3703 43.7472 10.216C43.8601 10.1388 43.9479 10.0793 44.0094 10.0381L44.0816 9.98985L44.1025 9.9761L44.1128 9.96926ZM45.6795 15.8294C44.9636 16.3488 44.033 17.0438 42.9511 17.8975C40.3299 19.9655 36.8425 22.9468 33.3647 26.6026C26.2974 34.0317 19.7703 43.7233 19.7703 53.891C19.7703 68.2003 31.3702 79.8001 45.6795 79.8001C59.9884 79.8001 71.5883 68.2003 71.5883 53.891C71.5883 43.7233 65.0614 34.0317 57.9942 26.6026C54.5161 22.9468 51.0288 19.9655 48.4076 17.8975C47.3257 17.0438 46.3955 16.3488 45.6795 15.8294Z" fill="#0071BA"/>
</svg>
