<svg width="95" height="95" viewBox="0 0 95 95" fill="none" xmlns="http://www.w3.org/2000/svg">
<path d="M43.5417 53.833V83.1247H14.25C12.9383 83.1247 11.875 82.0615 11.875 80.7497V51.458H41.1667C42.4785 51.458 43.5417 52.5212 43.5417 53.833Z" stroke="#0071BA" stroke-width="5.7" stroke-linecap="round" stroke-linejoin="round"/>
<path d="M43.5391 83.125H55.4141" stroke="#0071BA" stroke-width="5.7" stroke-linecap="round" stroke-linejoin="round"/>
<path d="M11.875 51.458V39.583" stroke="#0071BA" stroke-width="5.7" stroke-linecap="round" stroke-linejoin="round"/>
<path d="M23.75 11.875H14.25C12.9383 11.875 11.875 12.9383 11.875 14.25V23.75" stroke="#0071BA" stroke-width="5.7" stroke-linecap="round" stroke-linejoin="round"/>
<path d="M55.4193 11.875H39.5859" stroke="#0071BA" stroke-width="5.7" stroke-linecap="round" stroke-linejoin="round"/>
<path d="M83.125 39.583V55.4163" stroke="#0071BA" stroke-width="5.7" stroke-linecap="round" stroke-linejoin="round"/>
<path d="M71.25 11.875H80.75C82.0618 11.875 83.125 12.9383 83.125 14.25V23.75" stroke="#0071BA" stroke-width="5.7" stroke-linecap="round" stroke-linejoin="round"/>
<path d="M71.25 83.125H80.75C82.0618 83.125 83.125 82.0618 83.125 80.75V71.25" stroke="#0071BA" stroke-width="5.7" stroke-linecap="round" stroke-linejoin="round"/>
<path d="M43.5391 39.583H55.4141V51.458" stroke="#0071BA" stroke-width="5.7" stroke-linecap="round" stroke-linejoin="round"/>
</svg>
