<svg width="50" height="50" viewBox="0 0 50 50" fill="none" xmlns="http://www.w3.org/2000/svg">
<path d="M29.5 10.4286C30.7008 10.4286 31.8747 10.7847 32.8731 11.4518C33.8715 12.1189 34.6497 13.0672 35.1093 14.1766C35.5688 15.286 35.689 16.5067 35.4548 17.6845C35.2205 18.8622 34.6423 19.944 33.7931 20.7931C32.944 21.6423 31.8622 22.2205 30.6845 22.4548C29.5067 22.689 28.286 22.5688 27.1766 22.1093C26.0672 21.6497 25.1189 20.8715 24.4518 19.8731C23.7847 18.8747 23.4286 17.7008 23.4286 16.5C23.4286 14.8898 24.0682 13.3455 25.2069 12.2069C26.3455 11.0682 27.8898 10.4286 29.5 10.4286ZM29.5 8C27.8189 8 26.1755 8.49852 24.7777 9.43251C23.3798 10.3665 22.2904 11.694 21.647 13.2472C21.0037 14.8004 20.8354 16.5094 21.1633 18.1583C21.4913 19.8071 22.3008 21.3217 23.4896 22.5104C24.6783 23.6992 26.1929 24.5087 27.8417 24.8367C29.4906 25.1646 31.1996 24.9963 32.7528 24.353C34.306 23.7096 35.6335 22.6202 36.5675 21.2223C37.5015 19.8245 38 18.1811 38 16.5C38 14.2457 37.1045 12.0837 35.5104 10.4896C33.9163 8.89553 31.7543 8 29.5 8Z" fill="#0071BA" stroke="#0071BA"/>
<path d="M42 42H39.6V35.75C39.6 34.0924 38.9679 32.5027 37.8426 31.3306C36.7174 30.1585 35.1913 29.5 33.6 29.5H26.4C24.8087 29.5 23.2826 30.1585 22.1574 31.3306C21.0321 32.5027 20.4 34.0924 20.4 35.75V42H18V35.75C18 33.4294 18.885 31.2038 20.4603 29.5628C22.0356 27.9219 24.1722 27 26.4 27H33.6C35.8278 27 37.9644 27.9219 39.5397 29.5628C41.115 31.2038 42 33.4294 42 35.75V42Z" fill="#0071BA" stroke="#0071BA"/>
<path d="M19 15H11.6667C10.6942 15 9.76158 14.6207 9.07394 13.9456C8.38631 13.2705 8 12.3548 8 11.4V9H10.4444V11.4C10.4444 11.7183 10.5732 12.0235 10.8024 12.2485C11.0316 12.4736 11.3425 12.6 11.6667 12.6H19V15Z" fill="#0071BA" stroke="#0071BA" stroke-linejoin="round"/>
<path d="M10.4444 24H8V21.6C8 20.6452 8.38631 19.7295 9.07394 19.0544C9.76158 18.3793 10.6942 18 11.6667 18H19V20.4H11.6667C11.3425 20.4 11.0316 20.5264 10.8024 20.7515C10.5732 20.9765 10.4444 21.2817 10.4444 21.6V24Z" fill="#0071BA" stroke="#0071BA" stroke-linejoin="round"/>
</svg>
