<svg width="50" height="50" viewBox="0 0 50 50" fill="none" xmlns="http://www.w3.org/2000/svg">
<path d="M26.7 8.08395C26.1409 8.02842 25.5738 8 25 8C15.6112 8 8 15.6112 8 25C8 34.3888 15.6112 42 25 42C34.3888 42 42 34.3888 42 25C42 23.8357 41.8829 22.6985 41.66 21.6" stroke="#0071BA" stroke-width="3" stroke-linecap="round" stroke-linejoin="round"/>
<path d="M21.4444 23H19.146C18.3411 23 17.5691 22.6402 17 22M28.5556 23H30.854C31.6588 23 32.4309 22.6402 33 22" stroke="#0071BA" stroke-width="3" stroke-linecap="round" stroke-linejoin="round"/>
<path d="M25 35C26.6569 35 28 33.433 28 31.5C28 29.567 26.6569 28 25 28C23.3431 28 22 29.567 22 31.5C22 33.433 23.3431 35 25 35Z" stroke="#0071BA" stroke-width="3" stroke-linecap="round" stroke-linejoin="round"/>
<path d="M34 8H38.4211C39.3512 8 39.8163 8 39.9402 8.36016C40.0641 8.72034 39.7475 9.15241 39.1147 10.0165L35.4769 14.9835C34.8441 15.8476 34.5275 16.2797 34.6514 16.6398C34.7753 17 35.2404 17 36.1705 17H40" stroke="#0071BA" stroke-width="3" stroke-linecap="round" stroke-linejoin="round"/>
</svg>
