<svg width="50" height="50" viewBox="0 0 50 50" fill="none" xmlns="http://www.w3.org/2000/svg">
<path d="M14.5807 14.583C13.7566 14.583 12.9511 14.8274 12.2659 15.2852C11.5807 15.7431 11.0466 16.3938 10.7312 17.1552C10.4159 17.9165 10.3334 18.7543 10.4941 19.5626C10.6549 20.3708 11.0517 21.1132 11.6345 21.696C12.2172 22.2787 12.9596 22.6755 13.7679 22.8363C14.5761 22.9971 15.4139 22.9145 16.1752 22.5992C16.9366 22.2838 17.5873 21.7498 18.0452 21.0645C18.503 20.3793 18.7474 19.5738 18.7474 18.7497" stroke="#0071BA" stroke-width="3" stroke-linecap="round" stroke-linejoin="round"/>
<path d="M45.8307 35.417V29.167H37.4974M29.1641 29.167H4.16406" stroke="#0071BA" stroke-width="3" stroke-linecap="round" stroke-linejoin="round"/>
<path d="M4.16406 16.667V35.417" stroke="#0071BA" stroke-width="3" stroke-linecap="round" stroke-linejoin="round"/>
<path d="M25 25V29.1667H29.1667M37.5 29.1667H45.8333V25C45.8333 23.3424 45.1749 21.7527 44.0028 20.5806C42.8307 19.4085 41.2409 18.75 39.5833 18.75H27.0833" stroke="#0071BA" stroke-width="3" stroke-linecap="round" stroke-linejoin="round"/>
<path d="M6.25 6.25L43.75 43.75" stroke="#0071BA" stroke-width="3" stroke-linecap="round" stroke-linejoin="round"/>
</svg>
