<svg width="50" height="50" viewBox="0 0 50 50" fill="none" xmlns="http://www.w3.org/2000/svg">
<path d="M25.0026 16.667C26.1077 16.667 27.1675 17.106 27.9489 17.8874C28.7303 18.6688 29.1693 19.7286 29.1693 20.8337V29.167C29.1693 30.2721 28.7303 31.3319 27.9489 32.1133C27.1675 32.8947 26.1077 33.3337 25.0026 33.3337C23.8975 33.3337 22.8377 32.8947 22.0563 32.1133C21.2749 31.3319 20.8359 30.2721 20.8359 29.167V20.8337C20.8359 19.7286 21.2749 18.6688 22.0563 17.8874C22.8377 17.106 23.8975 16.667 25.0026 16.667Z" stroke="#0071BA" stroke-width="3" stroke-linecap="round" stroke-linejoin="round"/>
<path d="M35.4141 31.2503C36.1328 32.5003 38.0349 33.3337 39.5807 33.3337C40.6858 33.3337 41.7456 32.8947 42.527 32.1133C43.3084 31.3319 43.7474 30.2721 43.7474 29.167C43.7474 28.0619 43.3084 27.0021 42.527 26.2207C41.7456 25.4393 40.6858 25.0003 39.5807 25.0003C38.4757 25.0003 37.4159 24.5613 36.6345 23.7799C35.8531 22.9985 35.4141 21.9387 35.4141 20.8337C35.4141 19.7286 35.8531 18.6688 36.6345 17.8874C37.4159 17.106 38.4757 16.667 39.5807 16.667C41.1349 16.667 43.0307 17.4878 43.7474 18.7503" stroke="#0071BA" stroke-width="3" stroke-linecap="round" stroke-linejoin="round"/>
<path d="M6.25 31.2503C6.96875 32.5003 8.87083 33.3337 10.4167 33.3337C11.5217 33.3337 12.5815 32.8947 13.3629 32.1133C14.1443 31.3319 14.5833 30.2721 14.5833 29.167C14.5833 28.0619 14.1443 27.0021 13.3629 26.2207C12.5815 25.4393 11.5217 25.0003 10.4167 25.0003C9.3116 25.0003 8.25179 24.5613 7.47039 23.7799C6.68899 22.9985 6.25 21.9387 6.25 20.8337C6.25 19.7286 6.68899 18.6688 7.47039 17.8874C8.25179 17.106 9.3116 16.667 10.4167 16.667C11.9708 16.667 13.8667 17.4878 14.5833 18.7503" stroke="#0071BA" stroke-width="3" stroke-linecap="round" stroke-linejoin="round"/>
</svg>
