<svg width="95" height="95" viewBox="0 0 95 95" fill="none" xmlns="http://www.w3.org/2000/svg">
<path d="M58.8081 67.6151C66.3072 66.7256 73.5387 64.9626 80.3977 62.4304C74.7103 56.1173 71.2488 47.7597 71.2488 38.5937V35.8197C71.2492 35.7549 71.2496 35.69 71.2496 35.625C71.2496 22.5082 60.6163 11.875 47.4996 11.875C34.3828 11.875 23.7496 22.5082 23.7496 35.625L23.7489 38.5937C23.7489 47.7597 20.2872 56.1173 14.5998 62.4304C21.4594 64.9626 28.6914 66.7256 36.1912 67.6155M58.8081 67.6151C55.0996 68.0548 51.3257 68.2812 47.4988 68.2812C43.6727 68.2812 39.8992 68.0552 36.1912 67.6155M58.8081 67.6151C59.1759 68.7606 59.3746 69.9821 59.3746 71.25C59.3746 77.8086 54.0581 83.125 47.4996 83.125C40.9414 83.125 35.6246 77.8086 35.6246 71.25C35.6246 69.9821 35.8233 68.761 36.1912 67.6155M12.3672 29.6875C13.5043 22.9094 16.5555 16.7803 20.9458 11.875M74.0533 11.875C78.4438 16.7803 81.4949 22.9094 82.6321 29.6875" stroke="#0071BA" stroke-width="5.90796" stroke-linecap="round" stroke-linejoin="round"/>
</svg>
