<svg width="50" height="50" viewBox="0 0 50 50" fill="none" xmlns="http://www.w3.org/2000/svg">
<path fill-rule="evenodd" clip-rule="evenodd" d="M24.9974 5.729C23.5591 5.729 22.3932 6.89492 22.3932 8.33317C22.3932 9.77142 23.5591 10.9373 24.9974 10.9373C26.4357 10.9373 27.6016 9.77142 27.6016 8.33317C27.6016 6.89492 26.4357 5.729 24.9974 5.729ZM19.2682 8.33317C19.2682 5.16905 21.8332 2.604 24.9974 2.604C28.1616 2.604 30.7266 5.16905 30.7266 8.33317C30.7266 11.4973 28.1616 14.0623 24.9974 14.0623C21.8332 14.0623 19.2682 11.4973 19.2682 8.33317ZM35.392 14.9245C38.352 14.2902 41.1432 16.5467 41.1432 19.5739C41.1432 21.6205 39.8336 23.4375 37.892 24.0848L33.3601 25.5955C33.0745 25.6907 32.9036 25.748 32.777 25.7959C32.6968 25.8261 32.663 25.8423 32.6549 25.8463C32.4839 25.9544 32.3907 26.1515 32.4161 26.3521C32.4182 26.3611 32.4272 26.3975 32.4547 26.4786C32.4982 26.6069 32.5626 26.7753 32.6707 27.0561L35.2682 33.8096C36.4351 36.8434 34.1957 40.104 30.9451 40.104C29.283 40.104 27.7484 39.2134 26.9236 37.7703L24.9974 34.3992L23.0711 37.7703C22.2464 39.2134 20.7117 40.104 19.0496 40.104C15.7991 40.104 13.5598 36.8434 14.7266 33.8096L17.3241 27.0561C17.4322 26.7753 17.4966 26.6069 17.5401 26.4786C17.5677 26.3975 17.5766 26.3611 17.5787 26.3521C17.6041 26.1515 17.511 25.9544 17.34 25.8463C17.3318 25.8423 17.2981 25.8261 17.2179 25.7959C17.0912 25.748 16.9203 25.6907 16.6347 25.5955L12.1029 24.0848C10.1612 23.4375 8.85156 21.6205 8.85156 19.5739C8.85156 16.5467 11.6428 14.2902 14.6028 14.9245L18.5561 15.7716C18.778 15.8191 18.8816 15.8413 18.9839 15.8625C22.9509 16.6831 27.0439 16.6831 31.0109 15.8625C31.1132 15.8413 31.2168 15.8191 31.4386 15.7716L35.392 14.9245ZM38.0182 19.5739C38.0182 18.5362 37.0614 17.7627 36.0468 17.9801L32.0878 18.8284C31.8736 18.8743 31.7584 18.899 31.6439 18.9227C27.2593 19.8297 22.7355 19.8297 18.3509 18.9227C18.2364 18.899 18.1213 18.8744 17.9076 18.8286L13.948 17.9801C12.9334 17.7627 11.9766 18.5362 11.9766 19.5739C11.9766 20.2754 12.4255 20.8984 13.0911 21.1203L17.6229 22.6309C17.6607 22.6434 17.6987 22.6559 17.7368 22.6686C18.1651 22.8105 18.6101 22.958 18.977 23.1844C20.2043 23.9419 20.8695 25.3519 20.6742 26.7807C20.6158 27.208 20.4467 27.6453 20.284 28.0661C20.2695 28.1036 20.2551 28.1409 20.2408 28.178L17.6433 34.9315C17.2637 35.9184 17.9922 36.979 19.0496 36.979C19.5903 36.979 20.0895 36.6892 20.3578 36.2198L23.6407 30.4746C23.9189 29.9878 24.4368 29.6873 24.9974 29.6873C25.558 29.6873 26.0759 29.9878 26.3541 30.4746L29.637 36.2198C29.9053 36.6892 30.4045 36.979 30.9451 36.979C32.0026 36.979 32.7311 35.9184 32.3516 34.9315L29.7541 28.178C29.7397 28.1409 29.7253 28.1036 29.7107 28.0661C29.548 27.6453 29.3791 27.208 29.3205 26.7807C29.1253 25.3519 29.7905 23.9419 31.0178 23.1844C31.3847 22.958 31.8297 22.8105 32.258 22.6686C32.2961 22.6559 32.3341 22.6434 32.3718 22.6309L36.9036 21.1203C37.5693 20.8984 38.0182 20.2754 38.0182 19.5739ZM10.8649 29.5063C11.2525 30.2773 10.9417 31.2165 10.1708 31.6042C7.00217 33.1973 5.72656 34.9892 5.72656 36.4582C5.72656 38.0492 7.23492 40.0098 10.9072 41.6623C14.4328 43.249 19.413 44.2707 24.9974 44.2707C30.5818 44.2707 35.562 43.249 39.0876 41.6623C42.7599 40.0098 44.2682 38.0492 44.2682 36.4582C44.2682 34.9892 42.9926 33.1973 39.8241 31.6042C39.053 31.2165 38.7422 30.2773 39.1299 29.5063C39.5176 28.7353 40.4568 28.4246 41.2278 28.8121C44.657 30.5363 47.3932 33.1248 47.3932 36.4582C47.3932 40.0448 44.2378 42.7717 40.3699 44.5121C36.3553 46.3188 30.9191 47.3957 24.9974 47.3957C19.0758 47.3957 13.6394 46.3188 9.62481 44.5121C5.75692 42.7717 2.60156 40.0448 2.60156 36.4582C2.60156 33.1248 5.33781 30.5363 8.767 28.8121C9.53798 28.4246 10.4772 28.7353 10.8649 29.5063Z" fill="#0071BA"/>
</svg>
