<svg width="50" height="50" viewBox="0 0 50 50" fill="none" xmlns="http://www.w3.org/2000/svg">
<path d="M25 37.5H18.75C17.0924 37.5 15.5027 36.8415 14.3306 35.6694C13.1585 34.4973 12.5 32.9076 12.5 31.25V18.75C12.5 17.0924 13.1585 15.5027 14.3306 14.3306C15.5027 13.1585 17.0924 12.5 18.75 12.5H31.25C32.9076 12.5 34.4973 13.1585 35.6694 14.3306C36.8415 15.5027 37.5 17.0924 37.5 18.75V22.9167" stroke="#0071BA" stroke-width="3" stroke-linecap="round" stroke-linejoin="round"/>
<path d="M18.75 37.5V43.75H26.0417" stroke="#0071BA" stroke-width="3" stroke-linecap="round" stroke-linejoin="round"/>
<path d="M18.75 12.5V6.25H31.25V12.5" stroke="#0071BA" stroke-width="3" stroke-linecap="round" stroke-linejoin="round"/>
<path d="M44.0047 41.9191C44.879 41.0451 45.4744 39.9315 45.7157 38.719C45.957 37.5066 45.8334 36.2498 45.3604 35.1077C44.8874 33.9655 44.0863 32.9893 43.0585 32.3025C42.0306 31.6156 40.8222 31.249 39.5859 31.249C38.3497 31.249 37.1413 31.6156 36.1134 32.3025C35.0856 32.9893 34.2845 33.9655 33.8115 35.1077C33.3385 36.2498 33.2149 37.5066 33.4562 38.719C33.6975 39.9315 34.2929 41.0451 35.1672 41.9191C36.038 42.792 37.5109 44.0962 39.5859 45.8337C41.7755 43.9795 43.2505 42.6754 44.0047 41.9191Z" stroke="#0071BA" stroke-width="3" stroke-linecap="round" stroke-linejoin="round"/>
<path d="M39.5859 37.5V37.5208" stroke="#0071BA" stroke-width="3" stroke-linecap="round" stroke-linejoin="round"/>
</svg>
