<svg width="36" height="36" viewBox="0 0 36 36" fill="none" xmlns="http://www.w3.org/2000/svg">
<path d="M19.6934 18L28.8724 9.84049C29.0428 9.68889 29.1631 9.48909 29.2174 9.26757C29.2716 9.04606 29.2572 8.81328 29.1762 8.60012C29.0951 8.38695 28.9512 8.20345 28.7634 8.07395C28.5757 7.94445 28.353 7.87507 28.125 7.875H24.75V2.25H22.5V10.125H25.1662L18 16.4949L10.8337 10.125H13.5V2.25H11.25V7.875H7.87499C7.64691 7.87503 7.42422 7.94438 7.23645 8.07386C7.04869 8.20334 6.90472 8.38683 6.82362 8.60001C6.74253 8.81319 6.72815 9.04598 6.78238 9.26752C6.83662 9.48906 6.95691 9.68888 7.12731 9.84049L16.3063 18L7.1272 26.1595C6.95679 26.3111 6.8365 26.511 6.78226 26.7325C6.72803 26.9541 6.74242 27.1869 6.82353 27.4C6.90464 27.6132 7.04863 27.7967 7.23641 27.9262C7.42419 28.0557 7.6469 28.125 7.87499 28.125H11.25V33.75H13.5V25.875H10.8337L18 19.5051L25.1662 25.875H22.5V33.75H24.75V28.125H28.125C28.3531 28.125 28.5757 28.0556 28.7635 27.9261C28.9512 27.7966 29.0952 27.6131 29.1763 27.3999C29.2573 27.1868 29.2717 26.954 29.2175 26.7325C29.1632 26.5109 29.0429 26.3111 28.8725 26.1595L19.6934 18Z" fill="#0071BA"/>
</svg>
