<svg width="36" height="36" viewBox="0 0 36 36" fill="none" xmlns="http://www.w3.org/2000/svg">
<path d="M18 3C20.5995 3 22.7238 5.03468 22.8673 7.59819L22.875 7.8748L22.8765 19.803L22.9965 19.9063C24.3848 21.1462 25.2723 22.8627 25.4619 24.7409L25.4904 25.1186L25.5 25.5C25.5 29.6421 22.1421 33 18 33C13.8579 33 10.5 29.6421 10.5 25.5C10.5 23.4559 11.3244 21.5483 12.7338 20.1594L13.0049 19.9051L13.1235 19.803L13.125 7.875C13.125 5.36829 15.0169 3.30348 17.4508 3.0306L17.7234 3.00771L18 3ZM18 5.25C16.6227 5.25 15.4932 6.31067 15.3837 7.65977L15.375 7.87506L15.3743 20.9167L14.9119 21.2537C13.5628 22.2369 12.75 23.7996 12.75 25.5C12.75 28.3995 15.1005 30.75 18 30.75C20.8995 30.75 23.25 28.3995 23.25 25.5C23.25 23.9064 22.5361 22.4337 21.3358 21.4457L21.0892 21.2545L20.6273 20.9177L20.625 7.875C20.625 6.42525 19.4497 5.25 18 5.25ZM18 12C18.6213 12 19.125 12.5037 19.125 13.125L19.1259 21.9219C20.6469 22.4001 21.75 23.8212 21.75 25.5C21.75 27.5711 20.071 29.25 18 29.25C15.9289 29.25 14.25 27.5711 14.25 25.5C14.25 23.8206 15.3538 22.3992 16.8756 21.9214L16.875 13.125C16.875 12.5037 17.3787 12 18 12Z" fill="#0071BA"/>
</svg>
