<svg width="95" height="95" viewBox="0 0 95 95" fill="none" xmlns="http://www.w3.org/2000/svg">
<path fill-rule="evenodd" clip-rule="evenodd" d="M47.4974 10.8857C44.7646 10.8857 42.5495 13.101 42.5495 15.8337C42.5495 18.5663 44.7646 20.7816 47.4974 20.7816C50.2302 20.7816 52.4453 18.5663 52.4453 15.8337C52.4453 13.101 50.2302 10.8857 47.4974 10.8857ZM36.612 15.8337C36.612 9.82182 41.4855 4.94824 47.4974 4.94824C53.5093 4.94824 58.3828 9.82182 58.3828 15.8337C58.3828 21.8455 53.5093 26.7191 47.4974 26.7191C41.4855 26.7191 36.612 21.8455 36.612 15.8337ZM67.2471 28.3571C72.8711 27.152 78.1745 31.4393 78.1745 37.191C78.1745 41.0795 75.6863 44.532 71.9971 45.7618L63.3865 48.632C62.8439 48.8129 62.5193 48.9218 62.2786 49.0128C62.1262 49.0702 62.0621 49.1011 62.0467 49.1086C61.7217 49.314 61.5447 49.6885 61.593 50.0697C61.597 50.0867 61.614 50.156 61.6663 50.31C61.749 50.5538 61.8713 50.8736 62.0767 51.4072L67.012 64.2389C69.2291 70.0031 64.9742 76.1983 58.7981 76.1983C55.6401 76.1983 52.7244 74.5061 51.1573 71.7641L47.4974 65.3591L43.8375 71.7641C42.2704 74.5061 39.3546 76.1983 36.1966 76.1983C30.0207 76.1983 25.7659 70.0031 27.9829 64.2389L32.9181 51.4072C33.1235 50.8736 33.2458 50.5538 33.3286 50.31C33.3809 50.156 33.3979 50.0867 33.4018 50.0697C33.4501 49.6885 33.2732 49.314 32.9483 49.1086C32.9328 49.1011 32.8687 49.0702 32.7163 49.0128C32.4756 48.9218 32.151 48.8129 31.6083 48.632L22.9978 45.7618C19.3086 44.532 16.8203 41.0795 16.8203 37.191C16.8203 31.4393 22.1237 27.152 27.7477 28.3571L35.2589 29.9667C35.6805 30.057 35.8774 30.0992 36.0718 30.1394C43.6091 31.6985 51.3857 31.6985 58.9231 30.1394C59.1175 30.0992 59.3142 30.057 59.7358 29.9667L67.2471 28.3571ZM72.237 37.191C72.237 35.2193 70.4189 33.7497 68.4912 34.1628L60.9692 35.7747C60.5623 35.8618 60.3434 35.9087 60.1257 35.9538C51.795 37.677 43.1998 37.677 34.8691 35.9538C34.6514 35.9087 34.4328 35.8619 34.0267 35.7749L26.5036 34.1628C24.5758 33.7497 22.7578 35.2193 22.7578 37.191C22.7578 38.5239 23.6108 39.7076 24.8754 40.1291L33.4859 42.9993C33.5577 43.0231 33.6298 43.0468 33.7022 43.071C34.516 43.3405 35.3615 43.6208 36.0586 44.051C38.3904 45.4903 39.6544 48.1693 39.2833 50.8839C39.1723 51.6958 38.8511 52.5266 38.5419 53.3262C38.5144 53.3975 38.487 53.4683 38.4599 53.5388L33.5246 66.3705C32.8034 68.2456 34.1875 70.2608 36.1966 70.2608C37.2239 70.2608 38.1724 69.7101 38.6822 68.8183L44.9197 57.9024C45.4482 56.9774 46.4322 56.4066 47.4974 56.4066C48.5626 56.4066 49.5466 56.9774 50.0751 57.9024L56.3126 68.8183C56.8224 69.7101 57.7709 70.2608 58.7981 70.2608C60.8073 70.2608 62.1915 68.2456 61.4703 66.3705L56.5351 53.5388C56.5078 53.4683 56.4804 53.3975 56.4527 53.3262C56.1436 52.5266 55.8226 51.6958 55.7113 50.8839C55.3404 48.1693 56.6043 45.4903 58.9362 44.051C59.6333 43.6208 60.4788 43.3405 61.2926 43.071C61.365 43.0468 61.4371 43.0231 61.5087 42.9993L70.1193 40.1291C71.384 39.7076 72.237 38.5239 72.237 37.191ZM20.6456 56.0626C21.3821 57.5276 20.7916 59.312 19.3268 60.0486C13.3065 63.0756 10.8828 66.4801 10.8828 69.2712C10.8828 72.2941 13.7487 76.0193 20.726 79.1591C27.4247 82.1738 36.8871 84.1149 47.4974 84.1149C58.1077 84.1149 67.5701 82.1738 74.2688 79.1591C81.2462 76.0193 84.112 72.2941 84.112 69.2712C84.112 66.4801 81.6883 63.0756 75.6681 60.0486C74.2031 59.312 73.6125 57.5276 74.3492 56.0626C75.0858 54.5976 76.8702 54.0074 78.3352 54.7437C84.8506 58.0196 90.0495 62.9378 90.0495 69.2712C90.0495 76.0858 84.0542 81.2669 76.7052 84.5737C69.0774 88.0064 58.7486 90.0524 47.4974 90.0524C36.2464 90.0524 25.9172 88.0064 18.2895 84.5737C10.9405 81.2669 4.94531 76.0858 4.94531 69.2712C4.94531 62.9378 10.1442 58.0196 16.6596 54.7437C18.1245 54.0074 19.9091 54.5976 20.6456 56.0626Z" fill="#0071BA"/>
</svg>
