<svg width="95" height="95" viewBox="0 0 95 95" fill="none" xmlns="http://www.w3.org/2000/svg">
<path d="M11.875 47.5H15.8333M47.5 11.875V15.8333M79.1667 47.5H83.125M22.1667 22.1667L24.9375 24.9375M72.8333 22.1667L70.0625 24.9375" stroke="#0071BA" stroke-width="5" stroke-linecap="round" stroke-linejoin="round"/>
<path d="M43.8909 28.0372C47.0525 27.4506 50.3095 27.6432 53.3799 28.5983C56.4504 29.5534 59.2419 31.2422 61.5129 33.5187C63.7839 35.7952 65.4661 38.5908 66.4138 41.6635C67.3616 44.7362 67.5463 47.9936 66.9522 51.1538M61.4976 61.489C60.8336 62.1534 60.1233 62.7699 59.3719 63.3336C57.8265 64.8635 56.6629 66.7356 55.9752 68.7986C55.2875 70.8616 55.0951 73.0575 55.4136 75.2086C55.4136 77.3083 54.5795 79.3219 53.0949 80.8065C51.6102 82.2912 49.5966 83.1253 47.4969 83.1253C45.3973 83.1253 43.3837 82.2912 41.899 80.8065C40.4144 79.3219 39.5803 77.3083 39.5803 75.2086C39.8987 73.0575 39.7064 70.8616 39.0187 68.7986C38.331 66.7356 37.1674 64.8635 35.6219 63.3336C33.35 61.6302 31.4712 59.4577 30.1132 56.9639C28.7552 54.4701 27.9497 51.7132 27.7514 48.8805C27.5532 46.0478 27.9668 43.2056 28.9642 40.5469C29.9616 37.8882 31.5194 35.4753 33.5319 33.472" stroke="#0071BA" stroke-width="5" stroke-linecap="round" stroke-linejoin="round"/>
<path d="M38.3984 67.292H56.6068" stroke="#0071BA" stroke-width="5" stroke-linecap="round" stroke-linejoin="round"/>
<path d="M11.875 11.875L83.125 83.125" stroke="#0071BA" stroke-width="5" stroke-linecap="round" stroke-linejoin="round"/>
</svg>
