<svg width="95" height="95" viewBox="0 0 95 95" fill="none" xmlns="http://www.w3.org/2000/svg">
<path fill-rule="evenodd" clip-rule="evenodd" d="M36.6172 35.6247C36.6172 29.6128 41.4907 24.7393 47.5026 24.7393C53.5145 24.7393 58.388 29.6128 58.388 35.6247C58.388 41.6366 53.5145 46.5101 47.5026 46.5101C41.4907 46.5101 36.6172 41.6366 36.6172 35.6247ZM47.5026 30.6768C44.7698 30.6768 42.5547 32.892 42.5547 35.6247C42.5547 38.3574 44.7698 40.5726 47.5026 40.5726C50.2354 40.5726 52.4505 38.3574 52.4505 35.6247C52.4505 32.892 50.2354 30.6768 47.5026 30.6768Z" fill="#0071BA"/>
<path fill-rule="evenodd" clip-rule="evenodd" d="M47.4985 48.4893C42.7651 48.4893 38.3334 49.442 34.9749 51.1215C31.7941 52.712 28.6964 55.4583 28.6964 59.3747L28.6959 59.6221C28.6898 61.642 28.6796 65.0438 31.9035 67.3776C33.3996 68.4602 35.3737 69.151 37.8191 69.5911C40.2872 70.0353 43.4499 70.2601 47.4985 70.2601C51.547 70.2601 54.7098 70.0353 57.1778 69.5911C59.6232 69.151 61.5973 68.4602 63.0935 67.3776C66.3172 65.0438 66.3073 61.642 66.3009 59.6221L66.3005 59.3747C66.3005 55.4583 63.2028 52.712 60.0218 51.1215C56.6636 49.442 52.2318 48.4893 47.4985 48.4893ZM34.6339 59.3747C34.6339 58.9187 35.0806 57.707 37.6303 56.4321C40.0026 55.2461 43.4871 54.4268 47.4985 54.4268C51.5098 54.4268 54.9944 55.2461 57.3666 56.4321C59.9161 57.707 60.363 58.9187 60.363 59.3747C60.363 61.7675 60.2106 62.1344 59.6117 62.5679C59.1288 62.9174 58.1341 63.3861 56.1264 63.7474C54.1413 64.1045 51.3665 64.3226 47.4985 64.3226C43.6304 64.3226 40.8556 64.1045 38.8705 63.7474C36.8628 63.3861 35.8682 62.9174 35.385 62.5679C34.7862 62.1344 34.6339 61.7675 34.6339 59.3747Z" fill="#0071BA"/>
<path fill-rule="evenodd" clip-rule="evenodd" d="M34.5301 8.11934C40.2456 6.16179 43.7891 4.94824 47.5 4.94824C51.2109 4.94824 54.7544 6.16179 60.4699 8.11934L63.3492 9.10501C69.213 11.1122 73.7382 12.6611 76.9777 13.9772C78.6093 14.6401 80.0122 15.2821 81.1419 15.9382C82.2292 16.5695 83.3198 17.357 84.0608 18.4127C84.793 19.4562 85.1719 20.739 85.4097 21.9739C85.6571 23.2577 85.8064 24.7979 85.9026 26.5661C86.0937 30.0773 86.0937 34.8875 86.0937 41.1266V47.4663C86.0937 71.6161 67.8537 83.1946 57.0067 87.9331L56.8995 87.9798C55.5544 88.5676 54.2901 89.1198 52.8374 89.4919C51.3036 89.8846 49.6743 90.0524 47.5 90.0524C45.3257 90.0524 43.6964 89.8846 42.1626 89.4919C40.7099 89.1198 39.4457 88.5676 38.1007 87.9798L37.9934 87.9331C27.1464 83.1946 8.90625 71.6161 8.90625 47.4663V41.127C8.90625 34.8882 8.90625 30.0772 9.09744 26.5661C9.1937 24.7979 9.34289 23.2577 9.59029 21.9739C9.82826 20.739 10.207 19.4562 10.9394 18.4127C11.6803 17.357 12.7709 16.5695 13.858 15.9382C14.9877 15.2821 16.3906 14.6401 18.0224 13.9772C21.2618 12.6611 25.787 11.1122 31.6506 9.10505L34.5301 8.11934ZM47.5 10.8857C44.8966 10.8857 42.3348 11.7235 35.9441 13.9111L33.6767 14.6872C27.6894 16.7367 23.3229 18.2326 20.2571 19.4781C18.7269 20.0997 17.6181 20.6207 16.8399 21.0726C16.4557 21.2958 16.1909 21.4799 16.0141 21.6236C15.8642 21.7455 15.8071 21.8145 15.7989 21.8246C15.7912 21.837 15.742 21.9192 15.6727 22.1137C15.5936 22.3358 15.5059 22.6542 15.4205 23.0974C15.2477 23.9945 15.1166 25.2268 15.0262 26.889C14.8449 30.2187 14.8437 34.8666 14.8437 41.2331V47.4663C14.8437 67.9511 30.1621 78.0329 40.3702 82.492C41.8408 83.1344 42.6898 83.4978 43.6351 83.7397C44.538 83.9708 45.6396 84.1149 47.5 84.1149C49.3604 84.1149 50.462 83.9708 51.3649 83.7397C52.3102 83.4978 53.1592 83.1344 54.6297 82.492C64.8379 78.0329 80.1562 67.9511 80.1562 47.4663V41.2331C80.1562 34.8666 80.1551 30.2187 79.9738 26.889C79.8835 25.2268 79.7525 23.9945 79.5795 23.0974C79.494 22.6542 79.4065 22.3358 79.3274 22.1137C79.2581 21.9191 79.2086 21.8369 79.2011 21.8245C79.1928 21.8144 79.1358 21.7454 78.9858 21.6236C78.8092 21.4799 78.5444 21.2958 78.1601 21.0726C77.3819 20.6207 76.2731 20.0997 74.7428 19.4781C71.6771 18.2326 67.3107 16.7367 61.3233 14.6872L59.056 13.9111C52.6652 11.7235 50.1034 10.8857 47.5 10.8857Z" fill="#0071BA"/>
</svg>
