<svg width="95" height="95" viewBox="0 0 95 95" fill="none" xmlns="http://www.w3.org/2000/svg">
<path d="M35.625 19.792C35.625 16.6425 36.8761 13.6221 39.1031 11.3951C41.3301 9.16811 44.3506 7.91699 47.5 7.91699C50.6494 7.91699 53.6699 9.16811 55.8969 11.3951C58.1239 13.6221 59.375 16.6425 59.375 19.792V39.5837C59.375 42.7331 58.1239 45.7536 55.8969 47.9806C53.6699 50.2075 50.6494 51.4587 47.5 51.4587C44.3506 51.4587 41.3301 50.2075 39.1031 47.9806C36.8761 45.7536 35.625 42.7331 35.625 39.5837V19.792Z" stroke="#0071BA" stroke-width="5" stroke-linecap="round" stroke-linejoin="round"/>
<path d="M19.7891 39.583C19.7891 46.9317 22.7083 53.9794 27.9046 59.1758C33.101 64.3721 40.1487 67.2913 47.4974 67.2913C54.8461 67.2913 61.8938 64.3721 67.0901 59.1758C72.2865 53.9794 75.2057 46.9317 75.2057 39.583" stroke="#0071BA" stroke-width="5" stroke-linecap="round" stroke-linejoin="round"/>
<path d="M31.6641 83.125H63.3307" stroke="#0071BA" stroke-width="5" stroke-linecap="round" stroke-linejoin="round"/>
<path d="M47.5 67.292V83.1253" stroke="#0071BA" stroke-width="5" stroke-linecap="round" stroke-linejoin="round"/>
</svg>
