<svg width="95" height="95" viewBox="0 0 95 95" fill="none" xmlns="http://www.w3.org/2000/svg">
<path d="M40.2656 24.3796L49.4331 15.2121C50.4906 14.1544 51.7461 13.3154 53.1279 12.743C54.5097 12.1706 55.9907 11.876 57.4864 11.876C58.982 11.876 60.463 12.1706 61.8448 12.743C63.2266 13.3154 64.4821 14.1544 65.5396 15.2121L79.7975 29.47C80.8552 30.5275 81.6942 31.783 82.2666 33.1648C82.839 34.5466 83.1336 36.0276 83.1336 37.5232C83.1336 39.0189 82.839 40.4999 82.2666 41.8817C81.6942 43.2635 80.8552 44.519 79.7975 45.5765L70.5746 54.7994" stroke="#0071BA" stroke-width="5.9375" stroke-linecap="round" stroke-linejoin="round"/>
<path d="M59.1019 59.1694C56.8722 58.7399 54.8229 57.6505 53.2198 56.0424L52.0283 54.8469L26.0696 80.8057C24.7543 82.1208 23.018 82.9308 21.1652 83.0936L20.4725 83.1253H15.8333C14.8638 83.1251 13.928 82.7692 13.2035 82.1249C12.479 81.4807 12.0161 80.5929 11.9027 79.6301L11.875 79.1669V74.5278C11.8755 72.6691 12.5298 70.8699 13.7235 69.4453L14.1946 68.9307L15.8333 67.2919H23.75V59.3753H31.6667V51.4586L40.1533 42.9719L38.9619 41.7805C37.3354 40.1602 36.2394 38.0841 35.819 35.8271" stroke="#0071BA" stroke-width="5.9375" stroke-linecap="round" stroke-linejoin="round"/>
<path d="M59.3828 35.625H59.4224" stroke="#0071BA" stroke-width="5.9375" stroke-linecap="round" stroke-linejoin="round"/>
<path d="M11.875 11.875L83.125 83.125" stroke="#0071BA" stroke-width="5.9375" stroke-linecap="round" stroke-linejoin="round"/>
</svg>
