<svg width="94" height="94" viewBox="0 0 94 94" fill="none" xmlns="http://www.w3.org/2000/svg">
<path fill-rule="evenodd" clip-rule="evenodd" d="M49.7963 14.6869C48.237 13.0417 45.737 13.0417 44.1777 14.6869C41.939 17.0489 39.3877 20.0008 37.4142 22.9903C35.3677 26.0904 34.2602 28.7649 34.2602 30.6739C34.2602 38.1773 40.0699 44.0536 46.987 44.0536C53.9041 44.0536 59.7138 38.1773 59.7138 30.6739C59.7138 28.7649 58.6064 26.0904 56.5599 22.9903C54.5863 20.0008 52.035 17.0489 49.7963 14.6869ZM39.9144 10.6463C43.7904 6.5567 50.1836 6.5567 54.0596 10.6463C56.4119 13.1281 59.2216 16.3606 61.4619 19.7543C63.6293 23.0374 65.5877 26.9447 65.5877 30.6739C65.5877 41.193 57.3717 49.9275 46.987 49.9275C36.6023 49.9275 28.3863 41.193 28.3863 30.6739C28.3863 26.9447 30.3448 23.0374 32.512 19.7543C34.7523 16.3606 37.5622 13.1281 39.9144 10.6463ZM26.3007 53.8465C24.7414 52.2011 22.2413 52.2011 20.682 53.8465C18.4435 56.2082 15.892 59.1601 13.9185 62.1499C11.8721 65.2498 10.7645 67.9243 10.7645 69.8334C10.7645 77.3367 16.5744 83.213 23.4913 83.213C30.4083 83.213 36.2182 77.3367 36.2182 69.8334C36.2182 67.9243 35.1106 65.2498 33.0642 62.1499C31.0907 59.1601 28.5392 56.2082 26.3007 53.8465ZM16.4186 49.8057C20.2946 45.7163 26.6881 45.7163 30.564 49.8057C32.9162 52.2876 35.726 55.5202 37.9663 58.9138C40.1337 62.1969 42.0921 66.1042 42.0921 69.8334C42.0921 80.3524 33.8761 89.0869 23.4913 89.0869C13.1066 89.0869 4.89062 80.3524 4.89062 69.8334C4.89062 66.1042 6.8491 62.1969 9.01638 58.9138C11.2567 55.5202 14.0665 52.2876 16.4186 49.8057ZM73.2919 53.8465C71.7326 52.2011 69.2327 52.2011 67.6733 53.8465C65.4346 56.2082 62.8834 59.1601 60.9097 62.1499C58.8633 65.2498 57.7558 67.9243 57.7558 69.8334C57.7558 77.3367 63.5655 83.213 70.4826 83.213C77.3998 83.213 83.2094 77.3367 83.2094 69.8334C83.2094 67.9243 82.102 65.2498 80.0555 62.1499C78.0819 59.1601 75.5307 56.2082 73.2919 53.8465ZM63.41 49.8057C67.286 45.7163 73.6792 45.7163 77.5552 49.8057C79.9075 52.2876 82.7172 55.5202 84.9575 58.9138C87.125 62.1969 89.0834 66.1042 89.0834 69.8334C89.0834 80.3524 80.8673 89.0869 70.4826 89.0869C60.0979 89.0869 51.8819 80.3524 51.8819 69.8334C51.8819 66.1042 53.8403 62.1969 56.0078 58.9138C58.2481 55.5202 61.0577 52.2876 63.41 49.8057Z" fill="#0071BA"/>
</svg>
