<svg width="94" height="94" viewBox="0 0 94 94" fill="none" xmlns="http://www.w3.org/2000/svg">
<path d="M71.0299 65.3962C67.4664 71.3093 62.963 69.4296 58.7338 66.9234C54.5046 64.4172 50.5103 61.402 47.965 64.9655C45.1847 68.0199 47.3384 72.9148 48.4349 77.2224C49.5314 81.5691 49.6097 85.3284 42.6785 86.1507C37.1961 85.4067 37.5094 80.8642 38.4101 76.0476C39.3108 71.231 40.7205 66.1402 37.1961 64.3389C34.3767 62.4593 32.4187 65.7095 29.9517 68.9206C27.4063 72.0925 24.5085 75.1861 19.7311 72.9148C15.4235 69.3513 17.0682 67.2759 19.3395 64.613C21.6107 61.9502 24.5477 58.3867 22.8638 52.1212C22.1589 49.5758 18.6346 50.1632 15.1494 50.0849C11.7425 50.0066 8.2965 49.3017 7.94407 44.211C7.66995 41.1174 9.98036 39.8643 12.3691 38.8853C14.797 37.9063 17.264 37.2014 17.3032 34.7344C17.4206 32.3457 15.8151 30.6618 14.797 28.8996C13.7788 27.1375 13.3481 25.297 15.776 22.5558C19.8877 19.1881 23.1771 22.0467 26.4665 25.1403C29.7559 28.2339 33.0061 31.4842 37.0395 28.9388C40.2506 26.8242 37.3136 23.104 35.0424 19.4622C32.7711 15.8204 31.1656 12.3352 37.0395 10.7297C42.1302 9.31993 44.0882 12.8051 45.8504 16.8385C47.6517 20.872 49.2181 25.4536 53.5256 26.276C59.6736 27.4116 64.1378 20.2063 68.4062 14.489C72.6746 8.7717 76.8646 4.50333 82.2295 11.552C88.1034 18.9531 82.5036 22.3992 75.964 25.4536C69.4243 28.3122 61.9057 30.8184 63.7071 36.3399C64.7644 39.551 68.2104 37.7888 71.8522 36.5749C75.4549 35.3609 79.3317 34.6952 81.2113 40.2167C83.2085 46.0515 78.4702 47.3829 73.1445 47.9311C67.8188 48.4793 61.8666 48.2444 61.475 50.9072C61.0442 53.6875 64.6077 54.8232 67.7013 56.4679C70.7949 58.1517 73.4186 60.3838 71.0299 65.3962ZM80.2715 74.4029C76.5514 74.4029 74.6325 71.5051 74.6325 68.529C74.6325 65.5528 76.5122 62.6551 80.2715 62.6551C84.1874 62.6551 86.1454 65.5528 86.1454 68.529C86.1454 71.5051 84.1874 74.4029 80.2715 74.4029Z" stroke="#0071BA" stroke-width="5"/>
</svg>
