<svg width="94" height="94" viewBox="0 0 94 94" fill="none" xmlns="http://www.w3.org/2000/svg">
<path d="M44.0554 37.8863V64.6126C44.0554 65.3916 44.3649 66.1386 44.9156 66.6894C45.4664 67.2402 46.2135 67.5496 46.9924 67.5496C47.7713 67.5496 48.5183 67.2402 49.0691 66.6894C49.6199 66.1386 49.9293 65.3916 49.9293 64.6126V37.8863C53.4949 37.1585 56.6633 35.1327 58.8201 32.2016C60.9769 29.2705 61.9686 25.643 61.6028 22.0223C61.237 18.4016 59.5399 15.0457 56.8404 12.6052C54.141 10.1647 50.6315 8.81348 46.9924 8.81348C43.3533 8.81348 39.8438 10.1647 37.1443 12.6052C34.4449 15.0457 32.7477 18.4016 32.382 22.0223C32.0162 25.643 33.0079 29.2705 35.1647 32.2016C37.3215 35.1327 40.4898 37.1585 44.0554 37.8863ZM46.9924 14.6844C48.735 14.6844 50.4385 15.2011 51.8874 16.1693C53.3364 17.1374 54.4657 18.5135 55.1326 20.1235C55.7994 21.7335 55.9739 23.505 55.634 25.2142C55.294 26.9233 54.4548 28.4933 53.2226 29.7255C51.9904 30.9577 50.4204 31.7969 48.7113 32.1368C47.0022 32.4768 45.2306 32.3023 43.6206 31.6354C42.0106 30.9686 40.6346 29.8393 39.6664 28.3903C38.6983 26.9414 38.1815 25.2379 38.1815 23.4953C38.1815 21.1585 39.1098 18.9174 40.7622 17.265C42.4145 15.6127 44.6556 14.6844 46.9924 14.6844ZM88.1098 64.6126C88.1098 76.0594 66.9233 82.2344 46.9924 82.2344C27.0615 82.2344 5.875 76.0594 5.875 64.6126C5.875 61.7711 7.27373 57.5896 13.9516 53.8157C18.4525 51.2678 24.6421 49.3111 31.856 48.1547C32.2376 48.0944 32.6274 48.1099 33.003 48.2003C33.3786 48.2906 33.7327 48.454 34.0451 48.6813C34.3576 48.9085 34.6222 49.195 34.8239 49.5245C35.0256 49.854 35.1604 50.2199 35.2207 50.6015C35.281 50.9831 35.2655 51.3728 35.1751 51.7484C35.0848 52.124 34.9213 52.4782 34.6941 52.7906C34.4669 53.103 34.1804 53.3677 33.8509 53.5694C33.5214 53.7711 33.1554 53.9059 32.7738 53.9662C26.3346 55.0015 20.6589 56.7673 16.8335 58.9406C13.6029 60.7579 11.7489 62.8284 11.7489 64.6126C11.7489 69.5174 25.1561 76.3605 46.9924 76.3605C68.8287 76.3605 82.2359 69.5174 82.2359 64.6126C82.2359 62.8284 80.3819 60.7579 77.1512 58.926C73.3112 56.7526 67.6502 54.9868 61.2109 53.9515C60.8212 53.9006 60.4457 53.772 60.1066 53.5733C59.7675 53.3746 59.4718 53.1099 59.2369 52.7949C59.0019 52.4798 58.8326 52.1208 58.739 51.7391C58.6453 51.3574 58.6292 50.9608 58.6917 50.5728C58.7541 50.1848 58.8937 49.8133 59.1024 49.4802C59.311 49.1472 59.5843 48.8594 59.9062 48.6339C60.2281 48.4084 60.5919 48.2498 60.9762 48.1675C61.3605 48.0851 61.7574 48.0808 62.1434 48.1547C69.3573 49.3111 75.5469 51.2678 80.0478 53.8157C86.711 57.5896 88.1098 61.7711 88.1098 64.6126Z" fill="#0071BA"/>
</svg>
