<svg width="94" height="94" viewBox="0 0 94 94" fill="none" xmlns="http://www.w3.org/2000/svg">
<path fill-rule="evenodd" clip-rule="evenodd" d="M46.7146 10.7704C31.054 10.644 18.475 23.2229 18.6014 38.8835C18.7281 54.581 31.5699 67.4229 47.2675 67.5498C62.9281 67.6759 75.5069 55.0971 75.3808 39.4365C75.254 23.7389 62.412 10.897 46.7146 10.7704ZM12.7277 38.9309C12.5749 19.9892 27.8203 4.74381 46.762 4.89665C65.6666 5.04921 81.102 20.4844 81.2544 39.3891C81.3832 55.3645 70.5591 68.7109 55.8019 72.4071V76.4468C55.8019 77.2856 55.8019 78.0566 55.7577 78.7039C55.7103 79.3998 55.6022 80.1646 55.2803 80.9419C54.5848 82.6211 53.2507 83.9552 51.5715 84.6507C51.01 84.8833 50.4551 85.0043 49.928 85.0713V86.1513C49.928 87.7733 48.613 89.0882 46.991 89.0882C45.3691 89.0882 44.0541 87.7733 44.0541 86.1513V85.0713C43.527 85.0043 42.9721 84.8833 42.4106 84.6507C40.7314 83.9552 39.3973 82.6211 38.7018 80.9419C38.3799 80.1646 38.2717 79.3998 38.2243 78.7039C38.1801 78.0566 38.1801 77.2856 38.1802 76.4468V72.1475C23.6288 68.0714 12.855 54.7094 12.7277 38.9309ZM44.0541 73.2537V76.3614C44.0541 77.3138 44.0557 77.8812 44.0846 78.3041C44.1023 78.5657 44.1261 78.6769 44.1336 78.7059C44.2327 78.9362 44.4163 79.1198 44.6466 79.2189C44.6756 79.2263 44.7868 79.2502 45.0483 79.2678C45.4713 79.2968 46.0387 79.2984 46.991 79.2984C47.9434 79.2984 48.5108 79.2968 48.9337 79.2678C49.1953 79.2502 49.3065 79.2263 49.3355 79.2189C49.5658 79.1198 49.7494 78.9362 49.8485 78.7059C49.856 78.6769 49.8798 78.5657 49.8975 78.3041C49.9264 77.8812 49.928 77.3138 49.928 76.3614V73.3399C49.0348 73.4025 48.1318 73.4307 47.2201 73.4233C46.153 73.4147 45.0969 73.3575 44.0541 73.2537ZM52.3719 25.2854C53.5467 26.4041 53.5918 28.2631 52.4734 29.4377L46.0109 36.223H54.8218C55.9965 36.223 57.0585 36.9232 57.5214 38.0031C57.9843 39.0829 57.7587 40.3348 56.9485 41.1853L45.7603 52.9331C44.6415 54.1079 42.7826 54.1533 41.6078 53.0346C40.4334 51.9158 40.388 50.0569 41.5068 48.8825L47.9689 42.0969H39.1581C37.9832 42.0969 36.9214 41.3968 36.4586 40.3168C35.9958 39.2371 36.2211 37.9853 37.0313 37.1345L48.2199 25.3867C49.3383 24.2121 51.1976 24.1668 52.3719 25.2854Z" fill="#0071BA"/>
</svg>
