<svg width="94" height="94" viewBox="0 0 94 94" fill="none" xmlns="http://www.w3.org/2000/svg">
<path d="M71.9763 15.6641C73.193 15.6641 74.2836 16.414 74.7186 17.5499C76.9143 23.2779 81.0198 25.4409 83.2178 25.4409C84.8398 25.4409 86.1548 26.7558 86.1548 28.3779C86.1548 29.9999 84.8398 31.3148 83.2178 31.3148C79.2932 31.3148 75.0444 28.9236 71.9673 24.7116C68.7801 28.9914 64.2474 31.3148 59.486 31.3151C54.7199 31.3153 50.1829 28.9879 46.9953 24.7007C43.8078 28.9879 39.2708 31.3153 34.5049 31.3153C29.7443 31.3153 25.2124 28.9933 22.0255 24.7157C18.9487 28.9326 14.6994 31.3277 10.773 31.3278C9.15091 31.3279 7.83598 30.013 7.83594 28.3909C7.8359 26.7689 9.15079 25.454 10.7728 25.4539C12.9689 25.4539 17.0755 23.2894 19.2715 17.553C19.7065 16.4168 20.797 15.6664 22.0137 15.6661C23.2304 15.6659 24.3212 16.4158 24.7567 17.5519C26.8861 23.1068 30.9013 25.4414 34.5049 25.4414C38.1084 25.4414 42.1235 23.1068 44.253 17.5519C44.6885 16.416 45.7791 15.6661 46.9953 15.6661C48.2116 15.6661 49.3022 16.416 49.7377 17.5519C51.8672 23.1069 55.8822 25.4413 59.4856 25.4412C63.0891 25.441 67.1045 23.1061 69.234 17.5499C69.6694 16.414 70.76 15.6641 71.9763 15.6641ZM71.9763 39.1597C73.193 39.1597 74.2836 39.9096 74.7186 41.0456C76.9143 46.7735 81.0198 48.9366 83.2178 48.9366C84.8398 48.9366 86.1548 50.2516 86.1548 51.8736C86.1548 53.4956 84.8398 54.8106 83.2178 54.8106C79.2932 54.8106 75.0444 52.4191 71.9673 48.2071C68.7801 52.4872 64.2474 54.8106 59.486 54.8106C54.7199 54.8109 50.1829 52.4837 46.9953 48.1961C43.8078 52.4837 39.2708 54.8109 34.5049 54.8109C29.7443 54.8109 25.2124 52.4888 22.0255 48.2114C18.9487 52.4285 14.6994 54.8235 10.773 54.8235C9.15091 54.8235 7.83598 53.5085 7.83594 51.8865C7.8359 50.2645 9.15079 48.9496 10.7728 48.9496C12.9689 48.9496 17.0755 46.7852 19.2715 41.0488C19.7065 39.9124 20.797 39.1621 22.0137 39.1617C23.2304 39.1617 24.3212 39.9116 24.7567 41.0476C26.8861 46.6023 30.9013 48.937 34.5049 48.937C38.1084 48.937 42.1235 46.6023 44.253 41.0476C44.6885 39.9116 45.7791 39.1617 46.9953 39.1617C48.2116 39.1617 49.3022 39.9116 49.7377 41.0476C51.8672 46.6023 55.8822 48.937 59.4856 48.9366C63.0891 48.9366 67.1045 46.6016 69.234 41.0456C69.6694 39.9096 70.76 39.1597 71.9763 39.1597ZM74.7186 64.5413C74.2836 63.4053 73.193 62.6554 71.9763 62.6554C70.76 62.6554 69.6694 63.4053 69.234 64.5413C67.1045 70.0972 63.0891 72.4323 59.4856 72.4323C55.8822 72.4327 51.8672 70.098 49.7377 64.5432C49.3022 63.4072 48.2116 62.6573 46.9953 62.6573C45.7791 62.6573 44.6885 63.4072 44.253 64.5432C42.1235 70.098 38.1084 72.4327 34.5049 72.4327C30.9013 72.4327 26.8861 70.098 24.7567 64.5432C24.3212 63.4072 23.2304 62.6573 22.0137 62.6573C20.797 62.6577 19.7065 63.408 19.2715 64.5444C17.0755 70.2809 12.9689 72.4452 10.7728 72.4452C9.15079 72.4452 7.8359 73.7602 7.83594 75.3822C7.83598 77.0041 9.15091 78.3191 10.773 78.3191C14.6994 78.3191 18.9487 75.9241 22.0255 71.7071C25.2124 75.9844 29.7443 78.3066 34.5049 78.3066C39.2708 78.3066 43.8078 75.9793 46.9953 71.6918C50.1829 75.9793 54.7199 78.3066 59.486 78.3062C64.2474 78.3062 68.7801 75.9829 71.9673 71.7027C75.0444 75.9147 79.2932 78.3062 83.2178 78.3062C84.8398 78.3062 86.1548 76.9912 86.1548 75.3692C86.1548 73.7473 84.8398 72.4323 83.2178 72.4323C81.0198 72.4323 76.9143 70.2691 74.7186 64.5413Z" fill="#0071BA"/>
</svg>
