<svg width="95" height="95" viewBox="0 0 95 95" fill="none" xmlns="http://www.w3.org/2000/svg">
<path d="M43.543 83.1243L47.5013 63.3327L43.543 47.4993L31.668 31.666H47.5013L59.3763 19.791" stroke="#0071BA" stroke-width="7" stroke-linecap="round" stroke-linejoin="round"/>
<path d="M23.7513 63.3327L19.793 47.4993L31.668 31.666" stroke="#0071BA" stroke-width="7" stroke-linecap="round" stroke-linejoin="round"/>
<path d="M19.793 19.7923C19.793 20.8421 20.21 21.8489 20.9523 22.5913C21.6947 23.3336 22.7015 23.7507 23.7513 23.7507C24.8011 23.7507 25.8079 23.3336 26.5503 22.5913C27.2926 21.8489 27.7096 20.8421 27.7096 19.7923C27.7096 18.7425 27.2926 17.7357 26.5503 16.9934C25.8079 16.251 24.8011 15.834 23.7513 15.834C22.7015 15.834 21.6947 16.251 20.9523 16.9934C20.21 17.7357 19.793 18.7425 19.793 19.7923Z" stroke="#0071BA" stroke-width="7" stroke-linecap="round" stroke-linejoin="round"/>
<path d="M53.4375 47.5H63.3333L79.1667 55.4167" stroke="#0071BA" stroke-width="7" stroke-linecap="round" stroke-linejoin="round"/>
</svg>
