<svg width="95" height="95" viewBox="0 0 95 95" fill="none" xmlns="http://www.w3.org/2000/svg">
<path d="M56.0484 19.8145C58.33 19.8145 60.5603 20.491 62.4573 21.7586C64.3544 23.0262 65.8329 24.8278 66.706 26.9357C67.5792 29.0435 67.8076 31.363 67.3625 33.6007C66.9174 35.8384 65.8187 37.8939 64.2054 39.5072C62.5921 41.1205 60.5367 42.2191 58.2989 42.6642C56.0612 43.1094 53.7418 42.8809 51.6339 42.0078C49.526 41.1347 47.7244 39.6561 46.4568 37.7591C45.1893 35.8621 44.5127 33.6317 44.5127 31.3502C44.5127 28.2907 45.7281 25.3566 47.8915 23.1932C50.0548 21.0298 52.989 19.8145 56.0484 19.8145ZM56.0484 15.2002C52.8543 15.2002 49.7318 16.1474 47.076 17.922C44.4201 19.6965 42.3501 22.2188 41.1278 25.1699C39.9054 28.1209 39.5856 31.3681 40.2088 34.5009C40.8319 37.6337 42.3701 40.5113 44.6287 42.77C46.8873 45.0286 49.7649 46.5667 52.8977 47.1899C56.0305 47.813 59.2777 47.4932 62.2288 46.2708C65.1798 45.0485 67.7021 42.9785 69.4767 40.3226C71.2513 37.6668 72.1984 34.5444 72.1984 31.3502C72.1984 27.0669 70.4969 22.9591 67.4682 19.9304C64.4395 16.9017 60.3317 15.2002 56.0484 15.2002Z" fill="#0071BA" stroke="#0071BA"/>
<path d="M79.7992 79.7998H75.2392V67.9248C75.2392 64.7754 74.0382 61.7549 71.9002 59.5279C69.7623 57.3009 66.8627 56.0498 63.8392 56.0498H50.1592C47.1358 56.0498 44.2361 57.3009 42.0982 59.5279C39.9603 61.7549 38.7592 64.7754 38.7592 67.9248V79.7998H34.1992V67.9248C34.1992 63.5156 35.8807 59.2869 38.8738 56.1692C41.8669 53.0514 45.9264 51.2998 50.1592 51.2998H63.8392C68.0721 51.2998 72.1316 53.0514 75.1246 56.1692C78.1177 59.2869 79.7992 63.5156 79.7992 67.9248V79.7998Z" fill="#0071BA" stroke="#0071BA"/>
<path d="M36.0992 28.4996H22.1659C20.3182 28.4996 18.5462 27.779 17.2397 26.4962C15.9332 25.2135 15.1992 23.4737 15.1992 21.6596V17.0996H19.8437V21.6596C19.8437 22.2643 20.0883 22.8442 20.5238 23.2718C20.9593 23.6994 21.55 23.9396 22.1659 23.9396H36.0992V28.4996Z" fill="#0071BA" stroke="#0071BA" stroke-linejoin="round"/>
<path d="M19.8437 45.6002H15.1992V41.0402C15.1992 39.2261 15.9332 37.4863 17.2397 36.2036C18.5462 34.9208 20.3182 34.2002 22.1659 34.2002H36.0992V38.7602H22.1659C21.55 38.7602 20.9593 39.0004 20.5238 39.428C20.0883 39.8556 19.8437 40.4355 19.8437 41.0402V45.6002Z" fill="#0071BA" stroke="#0071BA" stroke-linejoin="round"/>
</svg>
