<svg width="95" height="95" viewBox="0 0 95 95" fill="none" xmlns="http://www.w3.org/2000/svg">
<path d="M50.7292 15.3597C49.6669 15.2542 48.5893 15.2002 47.4992 15.2002C29.6604 15.2002 15.1992 29.6614 15.1992 47.5002C15.1992 65.3388 29.6604 79.8002 47.4992 79.8002C65.3379 79.8002 79.7992 65.3388 79.7992 47.5002C79.7992 45.288 79.5767 43.1274 79.1532 41.0402" stroke="#0071BA" stroke-width="6" stroke-linecap="round" stroke-linejoin="round"/>
<path d="M40.7452 43.6998H36.3781C34.8488 43.6998 33.3821 43.0162 32.3008 41.7998M54.2563 43.6998H58.6235C60.1526 43.6998 61.6196 43.0162 62.7008 41.7998" stroke="#0071BA" stroke-width="6" stroke-linecap="round" stroke-linejoin="round"/>
<path d="M47.5008 66.5002C50.6488 66.5002 53.2008 63.5229 53.2008 59.8502C53.2008 56.1775 50.6488 53.2002 47.5008 53.2002C44.3528 53.2002 41.8008 56.1775 41.8008 59.8502C41.8008 63.5229 44.3528 66.5002 47.5008 66.5002Z" stroke="#0071BA" stroke-width="6" stroke-linecap="round" stroke-linejoin="round"/>
<path d="M64.6016 15.2002H73.0016C74.7689 15.2002 75.6524 15.2002 75.8878 15.8845C76.1233 16.5688 75.5219 17.3898 74.3195 19.0316L67.4077 28.4688C66.2053 30.1106 65.6039 30.9315 65.8393 31.6159C66.0747 32.3002 66.9582 32.3002 68.7255 32.3002H76.0016" stroke="#0071BA" stroke-width="6" stroke-linecap="round" stroke-linejoin="round"/>
</svg>
