<svg width="50" height="50" viewBox="0 0 50 50" fill="none" xmlns="http://www.w3.org/2000/svg">
<path d="M22.9219 43.7493L25.0052 33.3327L22.9219 24.9993L16.6719 16.666H25.0052L31.2552 10.416" stroke="#0071BA" stroke-width="3" stroke-linecap="round" stroke-linejoin="round"/>
<path d="M12.5052 33.3327L10.4219 24.9993L16.6719 16.666" stroke="#0071BA" stroke-width="3" stroke-linecap="round" stroke-linejoin="round"/>
<path d="M10.4219 10.4173C10.4219 10.9699 10.6414 11.4998 11.0321 11.8905C11.4228 12.2812 11.9527 12.5007 12.5052 12.5007C13.0577 12.5007 13.5876 12.2812 13.9783 11.8905C14.369 11.4998 14.5885 10.9699 14.5885 10.4173C14.5885 9.86478 14.369 9.33488 13.9783 8.94418C13.5876 8.55348 13.0577 8.33398 12.5052 8.33398C11.9527 8.33398 11.4228 8.55348 11.0321 8.94418C10.6414 9.33488 10.4219 9.86478 10.4219 10.4173Z" stroke="#0071BA" stroke-width="3" stroke-linecap="round" stroke-linejoin="round"/>
<path d="M28.125 25H33.3333L41.6667 29.1667" stroke="#0071BA" stroke-width="3" stroke-linecap="round" stroke-linejoin="round"/>
</svg>
