<svg width="95" height="95" viewBox="0 0 95 95" fill="none" xmlns="http://www.w3.org/2000/svg">
<path d="M44.5312 38.2973V65.3129C44.5312 66.1003 44.844 66.8554 45.4008 67.4121C45.9575 67.9689 46.7126 68.2816 47.5 68.2816C48.2874 68.2816 49.0425 67.9689 49.5992 67.4121C50.156 66.8554 50.4687 66.1003 50.4687 65.3129V38.2973C54.0729 37.5616 57.2756 35.5138 59.4557 32.551C61.6359 29.5882 62.6383 25.9214 62.2686 22.2615C61.8989 18.6016 60.1834 15.2094 57.4547 12.7425C54.726 10.2755 51.1785 8.90967 47.5 8.90967C43.8215 8.90967 40.274 10.2755 37.5453 12.7425C34.8166 15.2094 33.1011 18.6016 32.7314 22.2615C32.3617 25.9214 33.3641 29.5882 35.5443 32.551C37.7244 35.5138 40.9271 37.5616 44.5312 38.2973ZM47.5 14.8441C49.2615 14.8441 50.9834 15.3665 52.448 16.3451C53.9127 17.3237 55.0542 18.7147 55.7283 20.3421C56.4024 21.9695 56.5788 23.7603 56.2351 25.4879C55.8915 27.2156 55.0432 28.8025 53.7977 30.0481C52.5521 31.2936 50.9652 32.1419 49.2375 32.4855C47.5099 32.8292 45.7191 32.6528 44.0917 31.9787C42.4643 31.3046 41.0734 30.1631 40.0947 28.6984C39.1161 27.2338 38.5937 25.5119 38.5937 23.7504C38.5937 21.3883 39.5321 19.123 41.2023 17.4527C42.8726 15.7825 45.1379 14.8441 47.5 14.8441ZM89.0625 65.3129C89.0625 76.8836 67.6467 83.1254 47.5 83.1254C27.3533 83.1254 5.9375 76.8836 5.9375 65.3129C5.9375 62.4406 7.35137 58.2139 14.1016 54.399C18.6512 51.8236 24.9078 49.8457 32.1998 48.6768C32.5855 48.6158 32.9795 48.6315 33.3591 48.7228C33.7388 48.8142 34.0968 48.9794 34.4126 49.209C34.7284 49.4387 34.9959 49.7283 35.1998 50.0614C35.4037 50.3944 35.54 50.7644 35.6009 51.1501C35.6618 51.5358 35.6461 51.9298 35.5548 52.3094C35.4635 52.6891 35.2983 53.0471 35.0686 53.3629C34.8389 53.6787 34.5493 53.9462 34.2162 54.1501C33.8832 54.354 33.5133 54.4903 33.1275 54.5512C26.6186 55.5977 20.8814 57.3826 17.0146 59.5795C13.749 61.4164 11.875 63.5094 11.875 65.3129C11.875 70.2707 25.4273 77.1879 47.5 77.1879C69.5727 77.1879 83.125 70.2707 83.125 65.3129C83.125 63.5094 81.251 61.4164 77.9853 59.5646C74.1037 57.3678 68.3814 55.5828 61.8725 54.5363C61.4785 54.4849 61.099 54.3549 60.7562 54.1541C60.4134 53.9532 60.1145 53.6857 59.877 53.3672C59.6395 53.0487 59.4684 52.6858 59.3738 52.3C59.2791 51.9142 59.2628 51.5133 59.3259 51.1211C59.389 50.7289 59.5302 50.3533 59.7411 50.0166C59.9519 49.68 60.2282 49.3891 60.5536 49.1611C60.879 48.9332 61.2468 48.7729 61.6352 48.6897C62.0237 48.6065 62.4249 48.6021 62.815 48.6768C70.107 49.8457 76.3637 51.8236 80.9133 54.399C87.6486 58.2139 89.0625 62.4406 89.0625 65.3129Z" fill="#0071BA"/>
</svg>
