<svg width="95" height="95" viewBox="0 0 95 95" fill="none" xmlns="http://www.w3.org/2000/svg">
<path d="M88.9913 46.8564L83.0538 20.1376C82.8881 19.3902 82.4398 18.7358 81.8028 18.3113L63.9903 6.43625C63.5026 6.11121 62.9296 5.93769 62.3435 5.9375H32.656C32.0699 5.93769 31.4969 6.11121 31.0092 6.43625L13.1967 18.3113C12.5597 18.7358 12.1114 19.3902 11.9457 20.1376L6.0082 46.8564C5.89829 47.3515 5.91678 47.8664 6.06193 48.3523L14.9682 78.0398C15.1093 78.5108 15.3652 78.9393 15.7128 79.2869C16.0604 79.6346 16.489 79.8904 16.9599 80.0316L46.6474 88.9378L46.6626 88.9393C47.2086 89.1036 47.7909 89.1036 48.3369 88.9393L48.3521 88.9378L78.0396 80.0316C78.5105 79.8904 78.9391 79.6346 79.2867 79.2869C79.6343 78.9393 79.8902 78.5108 80.0313 78.0398L88.9376 48.3523C89.0827 47.8664 89.1012 47.3515 88.9913 46.8564ZM32.4366 49.3293L20.8309 26.1173L42.4478 33.9782L32.4366 49.3293ZM47.4997 37.1008L58.1543 53.4375H36.8452L47.4997 37.1008ZM57.5395 59.375L47.4997 79.4547L37.46 59.375H57.5395ZM52.552 33.9782L74.1689 26.1173L62.5611 49.3293L52.552 33.9782ZM54.0013 27.1344L63.1929 13.0417L73.6286 19.9981L54.0013 27.1344ZM47.4997 26.2331L38.136 11.875H56.8635L47.4997 26.2331ZM40.9982 27.1332L21.3724 19.9969L31.8081 13.0405L40.9982 27.1332ZM26.6179 50.9722L12.3619 45.6264L15.9277 29.5889L26.6179 50.9722ZM41.7701 81.2755L22.4669 75.4843L31.7544 61.2435L41.7701 81.2755ZM63.2442 61.2435L72.5317 75.4843L53.2294 81.2755L63.2442 61.2435ZM79.0718 29.5889L82.6361 45.6258L68.3801 50.9717L79.0718 29.5889ZM13.4701 52.3821L27.1098 57.4964L18.8189 70.2109L13.4701 52.3821ZM76.1805 70.2109L67.8897 57.4967L81.5293 52.3824L76.1805 70.2109Z" fill="#0071BA"/>
</svg>
