<svg width="95" height="95" viewBox="0 0 95 95" fill="none" xmlns="http://www.w3.org/2000/svg">
<path d="M33.6465 47.5C36.9257 47.5 39.584 44.8417 39.584 41.5625C39.584 38.2833 36.9257 35.625 33.6465 35.625C30.3673 35.625 27.709 38.2833 27.709 41.5625C27.709 44.8417 30.3673 47.5 33.6465 47.5Z" stroke="#0071BA" stroke-width="5.9375"/>
<path d="M57.3965 67.2915C60.6757 67.2915 63.334 64.6332 63.334 61.354C63.334 58.0748 60.6757 55.4165 57.3965 55.4165C54.1173 55.4165 51.459 58.0748 51.459 61.354C51.459 64.6332 54.1173 67.2915 57.3965 67.2915Z" stroke="#0071BA" stroke-width="5.9375"/>
<path d="M73.2285 35.625C76.5077 35.625 79.166 32.9667 79.166 29.6875C79.166 26.4083 76.5077 23.75 73.2285 23.75C69.9493 23.75 67.291 26.4083 67.291 29.6875C67.291 32.9667 69.9493 35.625 73.2285 35.625Z" stroke="#0071BA" stroke-width="5.9375"/>
<path d="M61.0933 56.5895L71.25 35.625M37.9308 45.7916L52.265 56.5895M11.875 75.2083L30.042 47.0218" stroke="#0071BA" stroke-width="5.9375" stroke-linecap="round" stroke-linejoin="round"/>
<path d="M79.166 83.125H35.6243C22.5625 83.125 16.0316 83.125 11.9738 79.0673C7.91602 75.0092 7.91602 68.4784 7.91602 55.4167V11.875" stroke="#0071BA" stroke-width="5.9375" stroke-linecap="round"/>
</svg>
