<svg width="95" height="95" viewBox="0 0 95 95" fill="none" xmlns="http://www.w3.org/2000/svg">
<path d="M47.5007 7.9165C54.3604 7.9165 59.9662 13.2858 60.345 20.0506L60.3652 20.7806L60.3692 52.2578L60.6859 52.5305C64.3493 55.8024 66.6914 60.332 67.1918 65.2882L67.267 66.2849L67.2923 67.2915C67.2923 78.222 58.4312 87.0832 47.5007 87.0832C36.57 87.0832 27.709 78.222 27.709 67.2915C27.709 61.8975 29.8845 56.8633 33.6038 53.1983L34.3191 52.5273L34.6321 52.2578L34.6361 20.7811C34.6361 14.1662 39.6287 8.71735 46.0515 7.99725L46.7707 7.93685L47.5007 7.9165ZM47.5007 13.854C43.8661 13.854 40.8855 16.653 40.5965 20.2131L40.5736 20.7812L40.5716 55.1968L39.3516 56.0859C35.7913 58.6805 33.6465 62.8043 33.6465 67.2915C33.6465 74.943 39.8492 81.1457 47.5007 81.1457C55.1521 81.1457 61.3548 74.943 61.3548 67.2915C61.3548 63.0862 59.471 59.1999 56.3036 56.5925L55.6528 56.0882L54.4337 55.1992L54.4277 20.7811C54.4277 16.9554 51.3264 13.854 47.5007 13.854ZM47.5007 31.6665C49.1402 31.6665 50.4694 32.9957 50.4694 34.6353L50.4718 57.8493C54.4855 59.1112 57.3965 62.8613 57.3965 67.2915C57.3965 72.7568 52.9659 77.1873 47.5007 77.1873C42.0354 77.1873 37.6048 72.7568 37.6048 67.2915C37.6048 62.8598 40.5178 59.1088 44.5335 57.8481L44.5319 34.6353C44.5319 32.9957 45.8611 31.6665 47.5007 31.6665Z" fill="#0071BA"/>
</svg>
