<svg width="92" height="92" viewBox="0 0 92 92" fill="none" xmlns="http://www.w3.org/2000/svg">
<path fill-rule="evenodd" clip-rule="evenodd" d="M35.1484 60.7996C35.1484 55.0282 39.827 50.3496 45.5984 50.3496C51.3699 50.3496 56.0484 55.0282 56.0484 60.7996C56.0484 66.571 51.3699 71.2496 45.5984 71.2496C39.827 71.2496 35.1484 66.571 35.1484 60.7996ZM45.5984 56.0496C42.9749 56.0496 40.8484 58.1761 40.8484 60.7996C40.8484 63.4231 42.9749 65.5496 45.5984 65.5496C48.222 65.5496 50.3484 63.4231 50.3484 60.7996C50.3484 58.1761 48.222 56.0496 45.5984 56.0496Z" fill="#0071BA"/>
<path fill-rule="evenodd" clip-rule="evenodd" d="M19.95 35.3505V30.4C19.95 16.2339 31.4339 4.75 45.6 4.75C59.766 4.75 71.25 16.2339 71.25 30.4V35.3505C72.1118 35.4111 72.9243 35.49 73.6888 35.5928C77.1092 36.0527 79.9889 37.0364 82.2765 39.3235C84.5637 41.6111 85.5475 44.4908 86.0073 47.9112C86.45 51.2058 86.45 55.3945 86.45 60.5914V61.0086C86.45 66.2055 86.45 70.3942 86.0073 73.6888C85.5475 77.1092 84.5637 79.9889 82.2765 82.2761C79.9889 84.5637 77.1092 85.5475 73.6888 86.0073C70.3942 86.45 66.2055 86.45 61.0086 86.45H30.1915C24.9947 86.45 20.8058 86.45 17.5114 86.0073C14.0909 85.5475 11.211 84.5637 8.92373 82.2761C6.63644 79.9889 5.65265 77.1092 5.19278 73.6888C4.74985 70.3942 4.74993 66.2055 4.75 61.0086V60.5914C4.74993 55.3945 4.74985 51.2058 5.19278 47.9112C5.65265 44.4908 6.63644 41.6111 8.92373 39.3235C11.211 37.0364 14.0909 36.0527 17.5114 35.5928C18.2756 35.49 19.088 35.4111 19.95 35.3505ZM25.65 30.4C25.65 19.3819 34.5819 10.45 45.6 10.45C56.6181 10.45 65.55 19.3819 65.55 30.4V35.1631C64.1307 35.15 62.6179 35.15 61.0086 35.15H30.1915C28.5821 35.15 27.0694 35.15 25.65 35.1631V30.4ZM18.2709 41.2418C15.4825 41.6168 14.0059 42.3024 12.9542 43.3542C11.9026 44.406 11.2168 45.8823 10.842 48.6708C10.456 51.5413 10.45 55.3455 10.45 60.8C10.45 66.2545 10.456 70.0587 10.842 72.9292C11.2168 75.7177 11.9026 77.194 12.9542 78.2458C14.0059 79.2976 15.4825 79.9832 18.2709 80.3582C21.1412 80.7439 24.9454 80.75 30.4 80.75H60.8C66.2545 80.75 70.0587 80.7439 72.9292 80.3582C75.7177 79.9832 77.194 79.2976 78.2458 78.2458C79.2976 77.194 79.9832 75.7177 80.3582 72.9292C80.7439 70.0587 80.75 66.2545 80.75 60.8C80.75 55.3455 80.7439 51.5413 80.3582 48.6708C79.9832 45.8823 79.2976 44.406 78.2458 43.3542C77.194 42.3024 75.7177 41.6168 72.9292 41.2418C70.0587 40.8561 66.2545 40.85 60.8 40.85H30.4C24.9454 40.85 21.1412 40.8561 18.2709 41.2418Z" fill="#0071BA"/>
</svg>
