<svg width="92" height="92" viewBox="0 0 92 92" fill="none" xmlns="http://www.w3.org/2000/svg">
<path fill-rule="evenodd" clip-rule="evenodd" d="M4.75 45.5998C4.75 25.1376 21.3378 8.5498 41.8 8.5498H62.7C67.4219 8.5498 71.25 12.3778 71.25 17.0998V22.7998C71.25 27.5218 67.4219 31.3498 62.7 31.3498H41.5887C33.7188 31.3498 27.3389 37.7297 27.3389 45.5998C27.3389 53.47 33.7188 59.8498 41.5887 59.8498H62.7C67.4219 59.8498 71.25 63.6779 71.25 68.3998V74.0998C71.25 78.8217 67.4219 82.6498 62.7 82.6498H41.8C21.3378 82.6498 4.75 66.062 4.75 45.5998ZM41.8 14.2498C24.4859 14.2498 10.45 28.2857 10.45 45.5998C10.45 62.9137 24.4859 76.9498 41.8 76.9498H52.0387V65.5498H41.5887C30.5708 65.5498 21.6389 56.6179 21.6389 45.5998C21.6389 34.5817 30.5708 25.6498 41.5887 25.6498H52.0387V14.2498H41.8ZM57.7387 14.2498V25.6498H62.7C64.274 25.6498 65.55 24.3738 65.55 22.7998V17.0998C65.55 15.5258 64.274 14.2498 62.7 14.2498H57.7387ZM57.7387 65.5498V76.9498H62.7C64.274 76.9498 65.55 75.6738 65.55 74.0998V68.3998C65.55 66.8258 64.274 65.5498 62.7 65.5498H57.7387Z" fill="#0071BA"/>
<path d="M79.8772 20.6108C81.0864 19.6032 82.8834 19.7665 83.8912 20.9757L81.7016 22.8003C83.8912 20.9757 83.89 20.9745 83.8912 20.9757L83.8953 20.981L83.9003 20.9868L83.9117 21.0006L83.9402 21.0358C83.9618 21.0628 83.9884 21.0967 84.0204 21.1377C84.0838 21.2197 84.1663 21.3299 84.2658 21.4688C84.4642 21.7467 84.7287 22.1396 85.0361 22.6521C85.6513 23.6774 86.4375 25.179 87.2116 27.1922C88.7628 31.2254 90.2516 37.2723 90.2516 45.6003C90.2516 53.9284 88.7628 59.9753 87.2116 64.0083C86.4375 66.0215 85.6513 67.5233 85.0361 68.5485C84.7287 69.0608 84.4642 69.4537 84.2658 69.7318C84.1663 69.8705 84.0838 69.9807 84.0204 70.0628C83.9884 70.1039 83.9618 70.1377 83.9402 70.1647L83.9117 70.2L83.9003 70.2137L83.8953 70.2198C83.8942 70.2209 83.8912 70.2247 81.7016 68.4003L83.8912 70.2247C82.8834 71.4339 81.0864 71.5973 79.8772 70.5899C78.6738 69.5871 78.5062 67.8022 79.4976 66.593L79.5109 66.5763L79.5504 66.5243C79.5709 66.4969 79.5968 66.4616 79.6276 66.4186C79.7404 66.2602 79.9213 65.9942 80.1485 65.6157C80.6019 64.8599 81.241 63.6541 81.8916 61.9624C83.1904 58.5853 84.5516 53.2322 84.5516 45.6003C84.5516 37.9682 83.1904 32.6151 81.8916 29.2384C81.241 27.5465 80.6019 26.3407 80.1485 25.5847C79.9213 25.2065 79.7404 24.9404 79.6276 24.7819C79.5709 24.7026 79.531 24.6503 79.5109 24.6243L79.4976 24.6073L79.8772 20.6108Z" fill="#0071BA"/>
<path d="M76.5917 32.816C75.8275 31.4401 74.0925 30.9444 72.7165 31.7088C71.3523 32.4667 70.8533 34.1789 71.5898 35.5491L71.6088 35.588C71.635 35.6427 71.6848 35.7518 71.7513 35.9176C71.8839 36.2491 72.083 36.8088 72.2897 37.6155C72.7028 39.2271 73.1504 41.8384 73.1504 45.6001C73.1504 49.3617 72.7028 51.9734 72.2897 53.5846C72.083 54.3914 71.8839 54.9511 71.7513 55.2825C71.6848 55.4485 71.635 55.5576 71.6088 55.6123L71.5898 55.6511C70.8533 57.0213 71.3523 58.7336 72.7165 59.4913C74.0925 60.2559 75.8275 59.76 76.5917 58.384L76.5944 58.3791L76.5974 58.3738L76.6039 58.3624L76.6183 58.3354L76.6552 58.2655C76.6825 58.2123 76.7164 58.1446 76.7551 58.0629C76.833 57.8995 76.9318 57.6791 77.0435 57.3994C77.267 56.8405 77.5429 56.0463 77.8111 55.0005C78.3481 52.9071 78.8504 49.8184 78.8504 45.6001C78.8504 41.3817 78.3481 38.2934 77.8111 36.1997C77.5429 35.1539 77.267 34.3599 77.0435 33.8007C76.9318 33.5212 76.833 33.3008 76.7551 33.1374C76.7164 33.0556 76.6825 32.9881 76.6552 32.9347L76.6183 32.8649L76.6039 32.8379L76.5974 32.8263L76.5944 32.821L76.5917 32.816Z" fill="#0071BA"/>
</svg>
