<svg width="95" height="95" viewBox="0 0 95 95" fill="none" xmlns="http://www.w3.org/2000/svg">
<path d="M47.2503 9.96911L45.6839 12.35L44.1172 9.96911C45.0679 9.34363 46.2995 9.34363 47.2503 9.96911Z" fill="#0071BA"/>
<path fill-rule="evenodd" clip-rule="evenodd" d="M44.1128 9.96974C44.1128 9.96974 44.1128 9.96974 45.6795 12.3506C47.2459 9.96974 47.2459 9.96974 47.2459 9.96974L47.2497 9.97229L47.2562 9.97658L47.2771 9.99034L47.3493 10.0386C47.4108 10.0798 47.499 10.1393 47.6115 10.2164C47.8372 10.3708 48.1617 10.596 48.5713 10.8885C49.3902 11.4733 50.5504 12.3281 51.9385 13.4231C54.7095 15.6096 58.4118 18.7724 62.1237 22.6744C69.436 30.3609 77.2883 41.4396 77.2883 53.8915C77.2883 71.3487 63.1367 85.5006 45.6795 85.5006C28.2222 85.5006 14.0703 71.3487 14.0703 53.8915C14.0703 41.4396 21.9227 30.3609 29.2349 22.6744C32.9469 18.7724 36.6492 15.6096 39.4206 13.4231C40.8083 12.3281 41.9685 11.4733 42.7874 10.8885C43.197 10.596 43.5215 10.3708 43.7472 10.2164C43.8601 10.1393 43.9479 10.0798 44.0094 10.0386L44.0816 9.99034L44.1025 9.97658L44.1128 9.96974ZM45.6795 15.8299C44.9636 16.3493 44.033 17.0442 42.9511 17.8979C40.3299 19.966 36.8425 22.9473 33.3647 26.6031C26.2974 34.0322 19.7703 43.7238 19.7703 53.8915C19.7703 68.2008 31.3702 79.8006 45.6795 79.8006C59.9884 79.8006 71.5883 68.2008 71.5883 53.8915C71.5883 43.7238 65.0614 34.0322 57.9942 26.6031C54.5161 22.9473 51.0288 19.966 48.4076 17.8979C47.3257 17.0442 46.3955 16.3493 45.6795 15.8299Z" fill="#0071BA"/>
</svg>
