<svg width="92" height="92" viewBox="0 0 92 92" fill="none" xmlns="http://www.w3.org/2000/svg">
<path d="M22.7969 34.1998C22.7969 31.1763 23.9979 28.2767 26.1359 26.1388C28.2738 24.0009 31.1734 22.7998 34.1969 22.7998H56.9969C60.0203 22.7998 62.92 24.0009 65.0579 26.1388C67.1958 28.2767 68.3969 31.1763 68.3969 34.1998V56.9998C68.3969 60.0233 67.1958 62.9229 65.0579 65.0608C62.92 67.1987 60.0203 68.3998 56.9969 68.3998H34.1969C31.1734 68.3998 28.2738 67.1987 26.1359 65.0608C23.9979 62.9229 22.7969 60.0233 22.7969 56.9998V34.1998Z" stroke="#0071BA" stroke-width="4" stroke-linecap="round" stroke-linejoin="round"/>
<path d="M34.2031 68.3999V79.7999H57.0031V68.3999" stroke="#0071BA" stroke-width="4" stroke-linecap="round" stroke-linejoin="round"/>
<path d="M34.2031 22.7999V11.3999H57.0031V22.7999" stroke="#0071BA" stroke-width="4" stroke-linecap="round" stroke-linejoin="round"/>
</svg>
