<svg width="92" height="92" viewBox="0 0 92 92" fill="none" xmlns="http://www.w3.org/2000/svg">
<path d="M67.5263 18.9774L54.3935 13.9185C50.0346 12.2394 47.8553 11.3999 45.5988 11.3999C43.342 11.3999 41.1627 12.2394 36.8038 13.9185L23.6702 18.9777C15.489 22.1292 11.3984 23.705 11.3984 26.6007C11.3985 29.4965 15.4891 31.072 23.6704 34.2233L36.803 39.2816C41.1616 40.9605 43.3405 41.7999 45.5969 41.7999C47.8534 41.7999 50.0323 40.9605 54.3909 39.282L67.526 34.2231C75.7077 31.0719 79.7984 29.4964 79.7984 26.6006C79.7984 23.7048 75.7077 22.129 67.5263 18.9774Z" stroke="#0071BA" stroke-width="3.8" stroke-linecap="round" stroke-linejoin="round"/>
<path d="M62.6984 36.1187L67.5263 37.9784C75.7077 41.1302 79.7984 42.7056 79.7984 45.6016C79.7984 48.4972 75.7077 50.0731 67.526 53.224L54.3909 58.283C50.0323 59.9614 47.8534 60.8009 45.5969 60.8009C43.3405 60.8009 41.1616 59.9614 36.803 58.2826L23.6704 53.2244C15.4891 50.0731 11.3985 48.4976 11.3984 45.6016C11.3984 42.706 15.489 41.1302 23.6702 37.9787L28.4989 36.1187" stroke="#0071BA" stroke-width="3.8" stroke-linecap="round" stroke-linejoin="round"/>
<path d="M72.2 39.8999L33.2913 56.5751M19 51.2999L39.9 41.7999" stroke="#0071BA" stroke-width="3.8" stroke-linecap="round" stroke-linejoin="round"/>
<path d="M63.2122 55.3149L67.5263 56.9767C75.7077 60.1284 79.7984 61.7043 79.7984 64.6002C79.7984 67.4958 75.7077 69.0713 67.526 72.2227L54.3909 77.2816C50.0323 78.9601 47.8534 79.7995 45.5969 79.7995C43.3405 79.7995 41.1616 78.9601 36.803 77.2812L23.6704 72.2227C15.4891 69.0717 11.3985 67.4958 11.3984 64.6002C11.3984 61.7043 15.489 60.1288 23.6702 56.9771L27.9845 55.3153" stroke="#0071BA" stroke-width="3.8" stroke-linecap="round" stroke-linejoin="round"/>
</svg>
