<svg width="95" height="95" viewBox="0 0 95 95" fill="none" xmlns="http://www.w3.org/2000/svg">
<path d="M78.1774 18.5527C77.7894 18.5539 77.4049 18.4782 77.0462 18.3301C76.6875 18.182 76.3616 17.9644 76.0874 17.6898C68.4479 10.1135 58.2947 5.9375 47.5004 5.9375C36.706 5.9375 26.5528 10.1135 18.9133 17.6898C18.3542 18.2446 17.5977 18.5547 16.8101 18.5517C16.0225 18.5487 15.2683 18.233 14.7135 17.674C14.1586 17.1149 13.8486 16.3584 13.8516 15.5708C13.8546 14.7832 14.1703 14.029 14.7293 13.4742C23.4931 4.78563 35.1306 0 47.5004 0C59.8701 0 71.5076 4.78563 80.2674 13.4742C80.6857 13.8882 80.9715 14.4173 81.0884 14.9941C81.2053 15.5709 81.1482 16.1695 80.9242 16.7138C80.7002 17.258 80.3195 17.7235 79.8304 18.0509C79.3414 18.3783 78.766 18.553 78.1774 18.5527Z" fill="#0071BA"/>
<path d="M67.5001 29.1415C67.112 29.1427 66.7276 29.0671 66.3689 28.919C66.0102 28.7709 65.6843 28.5532 65.4101 28.2786C60.6166 23.5247 54.2595 20.9082 47.5026 20.9082C40.7457 20.9082 34.3886 23.5247 29.5951 28.2826C29.0361 28.8374 28.2795 29.1474 27.4919 29.1445C26.7043 29.1415 25.9501 28.8258 25.3953 28.2667C24.8405 27.7077 24.5305 26.9512 24.5334 26.1636C24.5364 25.376 24.8521 24.6218 25.4111 24.067C31.3249 18.2047 39.1703 14.9707 47.5026 14.9707C55.8349 14.9707 63.6803 18.2007 69.5941 24.067C70.0112 24.4815 70.2958 25.0105 70.4119 25.5871C70.5279 26.1636 70.4701 26.7616 70.2458 27.3052C70.0215 27.8488 69.6407 28.3135 69.1519 28.6405C68.6631 28.9674 68.0882 29.1418 67.5001 29.1415ZM56.8205 39.734C56.4282 39.7344 56.0397 39.657 55.6775 39.5061C55.3154 39.3553 54.9868 39.1341 54.7107 38.8553C50.8989 35.0117 44.0984 35.0117 40.2866 38.8553C40.0121 39.1318 39.6859 39.3516 39.3265 39.5021C38.9671 39.6525 38.5815 39.7307 38.1919 39.7322C37.8023 39.7337 37.4162 39.6584 37.0557 39.5106C36.6952 39.3629 36.3673 39.1456 36.0907 38.8711C35.8142 38.5967 35.5944 38.2704 35.444 37.911C35.2935 37.5516 35.2153 37.1661 35.2138 36.7765C35.2124 36.3869 35.2876 36.0008 35.4354 35.6402C35.5831 35.2797 35.8004 34.9518 36.0749 34.6753C39.103 31.6195 43.1643 29.9372 47.5026 29.9372C51.8409 29.9372 55.9022 31.6195 58.9303 34.6713C59.3443 35.0874 59.6257 35.6169 59.7389 36.1929C59.8521 36.7689 59.792 37.3655 59.5662 37.9073C59.3404 38.4491 58.959 38.9118 58.4703 39.237C57.9816 39.5621 57.4075 39.7351 56.8205 39.734ZM76.2005 83.1253H66.3047C62.4849 83.1253 59.3776 80.018 59.3776 76.1982V58.3857C59.3776 54.5659 62.4849 51.4586 66.3047 51.4586H76.2005C76.9879 51.4586 77.743 51.7714 78.2997 52.3281C78.8565 52.8849 79.1693 53.64 79.1693 54.4274C79.1693 55.2147 78.8565 55.9698 78.2997 56.5266C77.743 57.0833 76.9879 57.3961 76.2005 57.3961H66.3047C66.0422 57.3961 65.7905 57.5004 65.6049 57.686C65.4194 57.8715 65.3151 58.1233 65.3151 58.3857V76.1982C65.3151 76.7445 65.7584 77.1878 66.3047 77.1878H76.2005C76.9879 77.1878 77.743 77.5006 78.2997 78.0573C78.8565 78.6141 79.1693 79.3692 79.1693 80.1565C79.1693 80.9439 78.8565 81.699 78.2997 82.2558C77.743 82.8125 76.9879 83.1253 76.2005 83.1253ZM32.6589 83.1253H22.763C18.9432 83.1253 15.8359 80.018 15.8359 76.1982V54.4274C15.8359 53.64 16.1487 52.8849 16.7055 52.3281C17.2622 51.7714 18.0173 51.4586 18.8047 51.4586C19.592 51.4586 20.3472 51.7714 20.9039 52.3281C21.4607 52.8849 21.7734 53.64 21.7734 54.4274V76.1982C21.7734 76.7445 22.2168 77.1878 22.763 77.1878H32.6589C33.4462 77.1878 34.2013 77.5006 34.7581 78.0573C35.3148 78.6141 35.6276 79.3692 35.6276 80.1565C35.6276 80.9439 35.3148 81.699 34.7581 82.2558C34.2013 82.8125 33.4462 83.1253 32.6589 83.1253ZM53.4401 57.3961H35.6276C34.8402 57.3961 34.0851 57.0833 33.5284 56.5266C32.9716 55.9698 32.6589 55.2147 32.6589 54.4274C32.6589 53.64 32.9716 52.8849 33.5284 52.3281C34.0851 51.7714 34.8402 51.4586 35.6276 51.4586H53.4401C54.2275 51.4586 54.9826 51.7714 55.5393 52.3281C56.0961 52.8849 56.4089 53.64 56.4089 54.4274C56.4089 55.2147 56.0961 55.9698 55.5393 56.5266C54.9826 57.0833 54.2275 57.3961 53.4401 57.3961Z" fill="#0071BA"/>
<path d="M76.1979 70.2601H62.3438C61.5564 70.2601 60.8013 69.9473 60.2445 69.3906C59.6878 68.8338 59.375 68.0787 59.375 67.2913C59.375 66.504 59.6878 65.7489 60.2445 65.1921C60.8013 64.6354 61.5564 64.3226 62.3438 64.3226H76.1979C76.9853 64.3226 77.7404 64.6354 78.2971 65.1921C78.8539 65.7489 79.1667 66.504 79.1667 67.2913C79.1667 68.0787 78.8539 68.8338 78.2971 69.3906C77.7404 69.9473 76.9853 70.2601 76.1979 70.2601ZM44.5313 51.458C43.7439 51.458 42.9888 51.7708 42.432 52.3275C41.8753 52.8843 41.5625 53.6394 41.5625 54.4268V80.1559C41.5625 80.9433 41.8753 81.6984 42.432 82.2552C42.9888 82.8119 43.7439 83.1247 44.5313 83.1247C45.3186 83.1247 46.0737 82.8119 46.6305 82.2552C47.1872 81.6984 47.5 80.9433 47.5 80.1559V54.4268C47.5 53.6394 47.1872 52.8843 46.6305 52.3275C46.0737 51.7708 45.3186 51.458 44.5313 51.458Z" fill="#0071BA"/>
</svg>
