<svg width="95" height="95" viewBox="0 0 95 95" fill="none" xmlns="http://www.w3.org/2000/svg">
<path d="M43.5469 83.1243L47.5052 63.3327L43.5469 47.4993L31.6719 31.666H47.5052L59.3802 19.791" stroke="#0071BA" stroke-width="5" stroke-linecap="round" stroke-linejoin="round"/>
<path d="M23.7552 63.3327L19.7969 47.4993L31.6719 31.666" stroke="#0071BA" stroke-width="5" stroke-linecap="round" stroke-linejoin="round"/>
<path d="M19.7969 19.7923C19.7969 20.8421 20.2139 21.8489 20.9562 22.5913C21.6986 23.3336 22.7054 23.7507 23.7552 23.7507C24.805 23.7507 25.8118 23.3336 26.5542 22.5913C27.2965 21.8489 27.7135 20.8421 27.7135 19.7923C27.7135 18.7425 27.2965 17.7357 26.5542 16.9934C25.8118 16.251 24.805 15.834 23.7552 15.834C22.7054 15.834 21.6986 16.251 20.9562 16.9934C20.2139 17.7357 19.7969 18.7425 19.7969 19.7923Z" stroke="#0071BA" stroke-width="5" stroke-linecap="round" stroke-linejoin="round"/>
<path d="M53.4375 47.5H63.3333L79.1667 55.4167" stroke="#0071BA" stroke-width="5" stroke-linecap="round" stroke-linejoin="round"/>
</svg>
