<svg width="95" height="95" viewBox="0 0 95 95" fill="none" xmlns="http://www.w3.org/2000/svg">
<path d="M63.3307 65.2021V79.1664C63.3307 83.5383 59.7864 87.083 55.4141 87.083H39.5807C35.2085 87.083 31.6641 83.5383 31.6641 79.1664V65.2021" stroke="#0071BA" stroke-width="5" stroke-linecap="round" stroke-linejoin="round"/>
<path d="M31.6641 29.7978V15.8337C31.6641 11.4614 35.2085 7.91699 39.5807 7.91699H55.4141C59.7864 7.91699 63.3307 11.4614 63.3307 15.8337V29.7978" stroke="#0071BA" stroke-width="5" stroke-linecap="round" stroke-linejoin="round"/>
<path d="M71.25 47.5C71.25 34.3832 60.6167 23.75 47.5 23.75C34.3832 23.75 23.75 34.3832 23.75 47.5C23.75 60.6167 34.3832 71.25 47.5 71.25C60.6167 71.25 71.25 60.6167 71.25 47.5Z" stroke="#0071BA" stroke-width="5" stroke-linecap="round" stroke-linejoin="round"/>
<path d="M55.4167 47.4997H47.5V39.583" stroke="#0071BA" stroke-width="5" stroke-linecap="round" stroke-linejoin="round"/>
</svg>
