<svg width="95" height="95" viewBox="0 0 95 95" fill="none" xmlns="http://www.w3.org/2000/svg">
<path d="M47.4987 31.667C49.5983 31.667 51.612 32.5011 53.0966 33.9857C54.5813 35.4704 55.4154 37.484 55.4154 39.5837V55.417C55.4154 57.5166 54.5813 59.5303 53.0966 61.0149C51.612 62.4996 49.5983 63.3337 47.4987 63.3337C45.3991 63.3337 43.3854 62.4996 41.9008 61.0149C40.4161 59.5303 39.582 57.5166 39.582 55.417V39.5837C39.582 37.484 40.4161 35.4704 41.9008 33.9857C43.3854 32.5011 45.3991 31.667 47.4987 31.667Z" stroke="#0071BA" stroke-width="5" stroke-linecap="round" stroke-linejoin="round"/>
<path d="M67.293 59.3753C68.6586 61.7503 72.2726 63.3337 75.2096 63.3337C77.3093 63.3337 79.3229 62.4996 80.8076 61.0149C82.2922 59.5303 83.1263 57.5166 83.1263 55.417C83.1263 53.3174 82.2922 51.3037 80.8076 49.8191C79.3229 48.3344 77.3093 47.5003 75.2096 47.5003C73.11 47.5003 71.0964 46.6662 69.6117 45.1816C68.127 43.6969 67.293 41.6833 67.293 39.5837C67.293 37.484 68.127 35.4704 69.6117 33.9857C71.0964 32.5011 73.11 31.667 75.2096 31.667C78.1626 31.667 81.7646 33.2266 83.1263 35.6253" stroke="#0071BA" stroke-width="5" stroke-linecap="round" stroke-linejoin="round"/>
<path d="M11.875 59.3753C13.2406 61.7503 16.8546 63.3337 19.7917 63.3337C21.8913 63.3337 23.9049 62.4996 25.3896 61.0149C26.8743 59.5303 27.7083 57.5166 27.7083 55.417C27.7083 53.3174 26.8743 51.3037 25.3896 49.8191C23.9049 48.3344 21.8913 47.5003 19.7917 47.5003C17.692 47.5003 15.6784 46.6662 14.1937 45.1816C12.7091 43.6969 11.875 41.6833 11.875 39.5837C11.875 37.484 12.7091 35.4704 14.1937 33.9857C15.6784 32.5011 17.692 31.667 19.7917 31.667C22.7446 31.667 26.3467 33.2266 27.7083 35.6253" stroke="#0071BA" stroke-width="5" stroke-linecap="round" stroke-linejoin="round"/>
</svg>
