<svg width="95" height="95" viewBox="0 0 95 95" fill="none" xmlns="http://www.w3.org/2000/svg">
<path fill-rule="evenodd" clip-rule="evenodd" d="M49.4786 10.8857C45.6529 10.8857 42.5515 13.9871 42.5515 17.8128C42.5515 21.6386 45.6529 24.7399 49.4786 24.7399C53.3043 24.7399 56.4057 21.6386 56.4057 17.8128C56.4057 13.9871 53.3043 10.8857 49.4786 10.8857ZM36.6139 17.8128C36.6139 10.7079 42.3738 4.94824 49.4786 4.94824C56.5834 4.94824 62.3432 10.7079 62.3432 17.8128C62.3432 24.9178 56.5834 30.6774 49.4786 30.6774C42.3738 30.6774 36.6139 24.9178 36.6139 17.8128ZM53.547 42.5651C53.3961 42.5544 53.2073 42.5524 52.5257 42.5524H48.2068L47.8462 46.1604C47.157 53.0495 46.9175 55.818 47.5331 58.4376C48.1486 61.0568 49.5958 63.4287 53.2806 69.2902L63.4725 85.5035C64.3453 86.8917 63.9273 88.7244 62.5391 89.5972C61.1509 90.4696 59.3186 90.0516 58.4458 88.6638L48.2535 72.4501C48.1565 72.2961 48.0607 72.1433 47.9657 71.9925C44.6613 66.7374 42.622 63.4948 41.7527 59.7953C40.8839 56.0958 41.2654 52.2844 41.8841 46.1078C41.9019 45.9305 41.9198 45.7511 41.938 45.5698L42.2392 42.556C40.2557 42.5663 38.788 42.6047 37.6033 42.7483C36.1101 42.9296 35.4138 43.2451 34.9205 43.6406C34.4272 44.0364 33.9683 44.648 33.4674 46.0662C32.9397 47.5609 32.4852 49.5824 31.8088 52.6264L30.6057 58.0402C30.25 59.6405 28.6642 60.6499 27.0637 60.2941C25.4631 59.9386 24.4539 58.3529 24.8096 56.7521L26.0513 51.1642C26.6787 48.3407 27.2069 45.9637 27.8687 44.089C28.5711 42.1 29.5277 40.3547 31.2052 39.0093C32.8827 37.6636 34.794 37.1083 36.888 36.8542C38.8613 36.6147 41.2963 36.6148 44.1891 36.6149H52.5257C52.5586 36.6149 52.5914 36.6149 52.6235 36.6149C53.1618 36.6148 53.5802 36.6147 53.9717 36.6428C58.3813 36.9589 62.1615 39.9106 63.5378 44.1116C63.6597 44.4845 63.7614 44.8906 63.8917 45.4127L63.9154 45.5077C64.1375 46.3963 64.2036 46.6485 64.2649 46.8246C65.097 49.2238 67.6101 50.6033 70.0809 50.0174C70.2626 49.9747 70.5108 49.8947 71.38 49.6054L74.2688 48.6423C75.8245 48.1238 77.5056 48.9645 78.0241 50.5197C78.5426 52.0754 77.7019 53.7565 76.1463 54.275L73.2575 55.2381C73.2139 55.2523 73.1712 55.267 73.1292 55.2808C72.4484 55.508 71.9255 55.6822 71.4509 55.795C66.0153 57.0838 60.4863 54.0486 58.6552 48.771C58.4953 48.3098 58.3619 47.7754 58.1881 47.0788C58.1774 47.036 58.1663 46.9921 58.1553 46.9477C57.9898 46.2867 57.9423 46.1038 57.8952 45.9601C57.2698 44.0506 55.5515 42.7088 53.547 42.5651ZM41.2294 66.8012C42.5935 67.7104 42.9624 69.5538 42.0528 70.9178L30.1778 88.7303C29.2683 90.0948 27.4251 90.4633 26.0609 89.5537C24.6967 88.6444 24.328 86.801 25.2375 85.437L37.1125 67.6245C38.022 66.2601 39.8654 65.8915 41.2294 66.8012Z" fill="#0071BA"/>
</svg>
