<svg width="95" height="95" viewBox="0 0 95 95" fill="none" xmlns="http://www.w3.org/2000/svg">
<path d="M71.25 47.5C71.25 34.3832 60.6167 23.75 47.5 23.75C34.3832 23.75 23.75 34.3832 23.75 47.5C23.75 60.6163 27.7083 69.2708 35.6244 79.1667" stroke="#0071BA" stroke-width="6" stroke-linecap="round" stroke-linejoin="round"/>
<path d="M59.375 83.125C37.6042 69.2708 35.625 54.0582 35.625 47.5C35.625 40.9414 40.9414 35.625 47.5 35.625C54.0586 35.625 59.375 40.9414 59.375 47.5C59.375 54.0586 64.6914 59.375 71.25 59.375C77.8086 59.375 83.125 54.0586 83.125 47.5C83.125 27.8248 67.1753 11.875 47.5 11.875C27.8248 11.875 11.875 27.8248 11.875 47.5C11.875 50.221 12.1801 52.8707 12.7578 55.4167" stroke="#0071BA" stroke-width="6" stroke-linecap="round" stroke-linejoin="round"/>
<path d="M47.5 47.5C49.4792 67.2917 69.2708 75.2083 69.2708 75.2083" stroke="#0071BA" stroke-width="6" stroke-linecap="round" stroke-linejoin="round"/>
</svg>
