<svg width="95" height="95" viewBox="0 0 95 95" fill="none" xmlns="http://www.w3.org/2000/svg">
<path d="M78.1774 18.5527C77.7894 18.5539 77.4049 18.4782 77.0462 18.3301C76.6875 18.182 76.3616 17.9644 76.0874 17.6898C68.4479 10.1135 58.2947 5.9375 47.5004 5.9375C36.706 5.9375 26.5528 10.1135 18.9133 17.6898C18.3542 18.2446 17.5977 18.5547 16.8101 18.5517C16.0225 18.5487 15.2683 18.233 14.7135 17.674C14.1586 17.1149 13.8486 16.3584 13.8516 15.5708C13.8546 14.7832 14.1703 14.029 14.7293 13.4742C23.4931 4.78563 35.1306 0 47.5004 0C59.8701 0 71.5076 4.78563 80.2674 13.4742C80.6857 13.8882 80.9715 14.4173 81.0884 14.9941C81.2053 15.5709 81.1482 16.1695 80.9242 16.7138C80.7002 17.258 80.3195 17.7235 79.8304 18.0509C79.3414 18.3783 78.766 18.553 78.1774 18.5527Z" fill="#0071BA"/>
<path d="M67.4962 29.1415C67.1081 29.1427 66.7237 29.0671 66.365 28.919C66.0063 28.7709 65.6804 28.5532 65.4062 28.2786C60.6127 23.5247 54.2556 20.9082 47.4987 20.9082C40.7418 20.9082 34.3847 23.5247 29.5912 28.2826C29.0322 28.8374 28.2756 29.1474 27.488 29.1445C26.7004 29.1415 25.9462 28.8258 25.3914 28.2667C24.8366 27.7077 24.5265 26.9512 24.5295 26.1636C24.5325 25.376 24.8482 24.6218 25.4072 24.067C31.321 18.2047 39.1664 14.9707 47.4987 14.9707C55.831 14.9707 63.6764 18.2007 69.5902 24.067C70.0073 24.4815 70.2919 25.0105 70.408 25.5871C70.524 26.1636 70.4662 26.7616 70.2419 27.3052C70.0175 27.8488 69.6368 28.3135 69.148 28.6405C68.6592 28.9674 68.0843 29.1418 67.4962 29.1415ZM56.8166 39.734C56.4243 39.7344 56.0358 39.657 55.6736 39.5061C55.3115 39.3553 54.9829 39.1341 54.7068 38.8553C50.8949 35.0117 44.0945 35.0117 40.2827 38.8553C40.0082 39.1318 39.682 39.3516 39.3226 39.5021C38.9632 39.6525 38.5776 39.7307 38.188 39.7322C37.7984 39.7337 37.4123 39.6584 37.0518 39.5106C36.6913 39.3629 36.3634 39.1456 36.0868 38.8711C35.8103 38.5967 35.5905 38.2704 35.44 37.911C35.2896 37.5516 35.2114 37.1661 35.2099 36.7765C35.2085 36.3869 35.2837 36.0008 35.4315 35.6402C35.5792 35.2797 35.7965 34.9518 36.071 34.6753C39.0991 31.6195 43.1604 29.9372 47.4987 29.9372C51.837 29.9372 55.8983 31.6195 58.9264 34.6713C59.3404 35.0874 59.6218 35.6169 59.735 36.1929C59.8482 36.7689 59.7881 37.3655 59.5623 37.9073C59.3365 38.4491 58.9551 38.9118 58.4664 39.237C57.9777 39.5621 57.4036 39.7351 56.8166 39.734ZM76.1966 83.1253H66.3008C62.481 83.1253 59.3737 80.018 59.3737 76.1982V58.3857C59.3737 54.5659 62.481 51.4586 66.3008 51.4586H76.1966C76.984 51.4586 77.7391 51.7714 78.2958 52.3281C78.8526 52.8849 79.1654 53.64 79.1654 54.4274C79.1654 55.2147 78.8526 55.9698 78.2958 56.5266C77.7391 57.0833 76.984 57.3961 76.1966 57.3961H66.3008C66.0383 57.3961 65.7866 57.5004 65.601 57.686C65.4155 57.8715 65.3112 58.1233 65.3112 58.3857V76.1982C65.3112 76.7445 65.7545 77.1878 66.3008 77.1878H76.1966C76.984 77.1878 77.7391 77.5006 78.2958 78.0573C78.8526 78.6141 79.1654 79.3692 79.1654 80.1565C79.1654 80.9439 78.8526 81.699 78.2958 82.2558C77.7391 82.8125 76.984 83.1253 76.1966 83.1253ZM32.6549 83.1253H22.7591C18.9393 83.1253 15.832 80.018 15.832 76.1982V54.4274C15.832 53.64 16.1448 52.8849 16.7016 52.3281C17.2583 51.7714 18.0134 51.4586 18.8008 51.4586C19.5881 51.4586 20.3433 51.7714 20.9 52.3281C21.4568 52.8849 21.7695 53.64 21.7695 54.4274V76.1982C21.7695 76.7445 22.2129 77.1878 22.7591 77.1878H32.6549C33.4423 77.1878 34.1974 77.5006 34.7542 78.0573C35.3109 78.6141 35.6237 79.3692 35.6237 80.1565C35.6237 80.9439 35.3109 81.699 34.7542 82.2558C34.1974 82.8125 33.4423 83.1253 32.6549 83.1253ZM53.4362 57.3961H35.6237C34.8363 57.3961 34.0812 57.0833 33.5245 56.5266C32.9677 55.9698 32.6549 55.2147 32.6549 54.4274C32.6549 53.64 32.9677 52.8849 33.5245 52.3281C34.0812 51.7714 34.8363 51.4586 35.6237 51.4586H53.4362C54.2236 51.4586 54.9787 51.7714 55.5354 52.3281C56.0922 52.8849 56.4049 53.64 56.4049 54.4274C56.4049 55.2147 56.0922 55.9698 55.5354 56.5266C54.9787 57.0833 54.2236 57.3961 53.4362 57.3961Z" fill="#0071BA"/>
<path d="M76.1979 70.2601H62.3438C61.5564 70.2601 60.8013 69.9473 60.2445 69.3906C59.6878 68.8338 59.375 68.0787 59.375 67.2913C59.375 66.504 59.6878 65.7489 60.2445 65.1921C60.8013 64.6354 61.5564 64.3226 62.3438 64.3226H76.1979C76.9853 64.3226 77.7404 64.6354 78.2971 65.1921C78.8539 65.7489 79.1667 66.504 79.1667 67.2913C79.1667 68.0787 78.8539 68.8338 78.2971 69.3906C77.7404 69.9473 76.9853 70.2601 76.1979 70.2601ZM44.5313 51.458C43.7439 51.458 42.9888 51.7708 42.432 52.3275C41.8753 52.8843 41.5625 53.6394 41.5625 54.4268V80.1559C41.5625 80.9433 41.8753 81.6984 42.432 82.2552C42.9888 82.8119 43.7439 83.1247 44.5313 83.1247C45.3186 83.1247 46.0737 82.8119 46.6305 82.2552C47.1872 81.6984 47.5 80.9433 47.5 80.1559V54.4268C47.5 53.6394 47.1872 52.8843 46.6305 52.3275C46.0737 51.7708 45.3186 51.458 44.5313 51.458Z" fill="#0071BA"/>
</svg>
