<svg width="95" height="95" viewBox="0 0 95 95" fill="none" xmlns="http://www.w3.org/2000/svg">
<path fill-rule="evenodd" clip-rule="evenodd" d="M47.5013 10.8857C44.7685 10.8857 42.5534 13.101 42.5534 15.8337C42.5534 18.5663 44.7685 20.7816 47.5013 20.7816C50.2341 20.7816 52.4492 18.5663 52.4492 15.8337C52.4492 13.101 50.2341 10.8857 47.5013 10.8857ZM36.6159 15.8337C36.6159 9.82182 41.4894 4.94824 47.5013 4.94824C53.5132 4.94824 58.3867 9.82182 58.3867 15.8337C58.3867 21.8455 53.5132 26.7191 47.5013 26.7191C41.4894 26.7191 36.6159 21.8455 36.6159 15.8337ZM67.251 28.3571C72.875 27.152 78.1784 31.4393 78.1784 37.191C78.1784 41.0795 75.6902 44.532 72.001 45.7618L63.3905 48.632C62.8478 48.8129 62.5232 48.9218 62.2825 49.0128C62.1301 49.0702 62.066 49.1011 62.0506 49.1086C61.7256 49.314 61.5486 49.6885 61.5969 50.0697C61.6009 50.0867 61.6179 50.156 61.6702 50.31C61.7529 50.5538 61.8752 50.8736 62.0806 51.4072L67.0159 64.2389C69.233 70.0031 64.9781 76.1983 58.802 76.1983C55.644 76.1983 52.7283 74.5061 51.1612 71.7641L47.5013 65.3591L43.8414 71.7641C42.2743 74.5061 39.3585 76.1983 36.2005 76.1983C30.0246 76.1983 25.7698 70.0031 27.9868 64.2389L32.922 51.4072C33.1274 50.8736 33.2497 50.5538 33.3325 50.31C33.3848 50.156 33.4018 50.0867 33.4057 50.0697C33.454 49.6885 33.2771 49.314 32.9522 49.1086C32.9367 49.1011 32.8727 49.0702 32.7202 49.0128C32.4795 48.9218 32.1549 48.8129 31.6122 48.632L23.0017 45.7618C19.3125 44.532 16.8242 41.0795 16.8242 37.191C16.8242 31.4393 22.1276 27.152 27.7516 28.3571L35.2628 29.9667C35.6844 30.057 35.8813 30.0992 36.0757 30.1394C43.613 31.6985 51.3896 31.6985 58.927 30.1394C59.1214 30.0992 59.3181 30.057 59.7397 29.9667L67.251 28.3571ZM72.2409 37.191C72.2409 35.2193 70.4228 33.7497 68.4951 34.1628L60.9731 35.7747C60.5662 35.8618 60.3473 35.9087 60.1296 35.9538C51.7989 37.677 43.2037 37.677 34.873 35.9538C34.6553 35.9087 34.4367 35.8619 34.0306 35.7749L26.5075 34.1628C24.5797 33.7497 22.7617 35.2193 22.7617 37.191C22.7617 38.5239 23.6147 39.7076 24.8793 40.1291L33.4898 42.9993C33.5616 43.0231 33.6337 43.0468 33.7061 43.071C34.5199 43.3405 35.3654 43.6208 36.0625 44.051C38.3943 45.4903 39.6583 48.1693 39.2872 50.8839C39.1762 51.6958 38.855 52.5266 38.5458 53.3262C38.5183 53.3975 38.4909 53.4683 38.4638 53.5388L33.5285 66.3705C32.8073 68.2456 34.1914 70.2608 36.2005 70.2608C37.2278 70.2608 38.1763 69.7101 38.6861 68.8183L44.9236 57.9024C45.4521 56.9774 46.4361 56.4066 47.5013 56.4066C48.5665 56.4066 49.5505 56.9774 50.079 57.9024L56.3165 68.8183C56.8264 69.7101 57.7748 70.2608 58.802 70.2608C60.8112 70.2608 62.1954 68.2456 61.4742 66.3705L56.539 53.5388C56.5117 53.4683 56.4844 53.3975 56.4566 53.3262C56.1475 52.5266 55.8265 51.6958 55.7152 50.8839C55.3444 48.1693 56.6082 45.4903 58.9401 44.051C59.6372 43.6208 60.4827 43.3405 61.2965 43.071C61.3689 43.0468 61.441 43.0231 61.5126 42.9993L70.1232 40.1291C71.3879 39.7076 72.2409 38.5239 72.2409 37.191ZM20.6495 56.0626C21.386 57.5276 20.7955 59.312 19.3307 60.0486C13.3104 63.0756 10.8867 66.4801 10.8867 69.2712C10.8867 72.2941 13.7526 76.0193 20.7299 79.1591C27.4286 82.1738 36.891 84.1149 47.5013 84.1149C58.1116 84.1149 67.574 82.1738 74.2727 79.1591C81.2501 76.0193 84.1159 72.2941 84.1159 69.2712C84.1159 66.4801 81.6922 63.0756 75.672 60.0486C74.207 59.312 73.6164 57.5276 74.3531 56.0626C75.0897 54.5976 76.8741 54.0074 78.3391 54.7437C84.8545 58.0196 90.0534 62.9378 90.0534 69.2712C90.0534 76.0858 84.0581 81.2669 76.7091 84.5737C69.0814 88.0064 58.7525 90.0524 47.5013 90.0524C36.2503 90.0524 25.9211 88.0064 18.2934 84.5737C10.9444 81.2669 4.94922 76.0858 4.94922 69.2712C4.94922 62.9378 10.1481 58.0196 16.6636 54.7437C18.1284 54.0074 19.913 54.5976 20.6495 56.0626Z" fill="#0071BA"/>
</svg>
