<svg width="95" height="95" viewBox="0 0 95 95" fill="none" xmlns="http://www.w3.org/2000/svg">
<path fill-rule="evenodd" clip-rule="evenodd" d="M47.4987 12.8643C49.1382 12.8643 50.4674 14.1934 50.4674 15.833V79.1663C50.4674 80.8059 49.1382 82.1351 47.4987 82.1351C45.8592 82.1351 44.5299 80.8059 44.5299 79.1663V15.833C44.5299 14.1934 45.8592 12.8643 47.4987 12.8643ZM31.6654 24.7393C33.3049 24.7393 34.6341 26.0684 34.6341 27.708V67.2913C34.6341 68.9309 33.3049 70.2601 31.6654 70.2601C30.0258 70.2601 28.6966 68.9309 28.6966 67.2913V27.708C28.6966 26.0684 30.0258 24.7393 31.6654 24.7393ZM63.332 24.7393C64.9716 24.7393 66.3008 26.0684 66.3008 27.708V67.2913C66.3008 68.9309 64.9716 70.2601 63.332 70.2601C61.6925 70.2601 60.3633 68.9309 60.3633 67.2913V27.708C60.3633 26.0684 61.6925 24.7393 63.332 24.7393ZM15.832 40.5726C17.4716 40.5726 18.8008 41.9018 18.8008 43.5413V51.458C18.8008 53.0976 17.4716 54.4268 15.832 54.4268C14.1925 54.4268 12.8633 53.0976 12.8633 51.458V43.5413C12.8633 41.9018 14.1925 40.5726 15.832 40.5726ZM79.1654 40.5726C80.8049 40.5726 82.1341 41.9018 82.1341 43.5413V51.458C82.1341 53.0976 80.8049 54.4268 79.1654 54.4268C77.5258 54.4268 76.1966 53.0976 76.1966 51.458V43.5413C76.1966 41.9018 77.5258 40.5726 79.1654 40.5726Z" fill="#0071BA"/>
</svg>
