<svg width="50" height="50" viewBox="0 0 50 50" fill="none" xmlns="http://www.w3.org/2000/svg">
<path d="M22.918 41.667H4.16797" stroke="#0071BA" stroke-width="3" stroke-linecap="round" stroke-linejoin="round"/>
<path d="M22.918 9.50393V43.1643C22.9181 43.4808 22.9902 43.7931 23.129 44.0775C23.2678 44.3619 23.4696 44.6109 23.719 44.8057C23.9684 45.0005 24.2589 45.1359 24.5684 45.2016C24.878 45.2674 25.1984 45.2618 25.5055 45.1852L39.5846 41.6664V11.5873C39.5845 10.6581 39.2738 9.75567 38.7019 9.02336C38.13 8.29106 37.3298 7.77091 36.4284 7.54559L28.0951 5.46226C27.481 5.30877 26.84 5.29719 26.2208 5.42841C25.6016 5.55964 25.0204 5.8302 24.5214 6.21958C24.0224 6.60896 23.6187 7.1069 23.3408 7.67562C23.063 8.24434 22.9184 8.87097 22.918 9.50393Z" stroke="#0071BA" stroke-width="3" stroke-linecap="round" stroke-linejoin="round"/>
<path d="M22.9167 8.33301H16.6667C15.5616 8.33301 14.5018 8.77199 13.7204 9.5534C12.939 10.3348 12.5 11.3946 12.5 12.4997V41.6663" stroke="#0071BA" stroke-width="3" stroke-linecap="round" stroke-linejoin="round"/>
<path d="M29.168 25H29.1888" stroke="#0071BA" stroke-width="3" stroke-linecap="round" stroke-linejoin="round"/>
<path d="M45.832 41.667H39.582" stroke="#0071BA" stroke-width="3" stroke-linecap="round" stroke-linejoin="round"/>
</svg>
