<svg width="50" height="50" viewBox="0 0 50 50" fill="none" xmlns="http://www.w3.org/2000/svg">
<path d="M20.832 25H20.8529" stroke="#0071BA" stroke-width="3" stroke-linecap="round" stroke-linejoin="round"/>
<path d="M37.5 18.7497V12.4997C37.5 11.3946 37.061 10.3348 36.2796 9.5534C35.4982 8.77199 34.4384 8.33301 33.3333 8.33301H16.6667C15.5616 8.33301 14.5018 8.77199 13.7204 9.5534C12.939 10.3348 12.5 11.3946 12.5 12.4997V41.6663" stroke="#0071BA" stroke-width="3" stroke-linecap="round" stroke-linejoin="round"/>
<path d="M4.16797 41.667H20.8346" stroke="#0071BA" stroke-width="3" stroke-linecap="round" stroke-linejoin="round"/>
<path d="M41.6654 35.4163V31.2497C41.6654 30.1446 41.2264 29.0848 40.445 28.3034C39.6636 27.522 38.6038 27.083 37.4987 27.083C36.3936 27.083 35.3338 27.522 34.5524 28.3034C33.771 29.0848 33.332 30.1446 33.332 31.2497V35.4163" stroke="#0071BA" stroke-width="3" stroke-linecap="round" stroke-linejoin="round"/>
<path d="M43.7513 35.417H31.2513C30.1007 35.417 29.168 36.3497 29.168 37.5003V43.7503C29.168 44.9009 30.1007 45.8337 31.2513 45.8337H43.7513C44.9019 45.8337 45.8346 44.9009 45.8346 43.7503V37.5003C45.8346 36.3497 44.9019 35.417 43.7513 35.417Z" stroke="#0071BA" stroke-width="3" stroke-linecap="round" stroke-linejoin="round"/>
</svg>
