<svg width="50" height="50" viewBox="0 0 50 50" fill="none" xmlns="http://www.w3.org/2000/svg">
<path fill-rule="evenodd" clip-rule="evenodd" d="M22.9503 5.83693C13.2697 6.8591 5.72656 15.0488 5.72656 25.0003C5.72656 35.6432 14.3544 44.2712 24.9974 44.2712C34.9489 44.2712 43.1386 36.728 44.1607 27.0474C41.3968 30.5564 37.107 32.8128 32.2891 32.8128C23.9472 32.8128 17.1849 26.0505 17.1849 17.7087C17.1849 12.8907 19.4415 8.60095 22.9503 5.83693ZM2.60156 25.0003C2.60156 12.6315 12.6285 2.60449 24.9974 2.60449C26.4903 2.60449 27.2378 3.79462 27.3657 4.74255C27.4891 5.65445 27.152 6.81418 26.1036 7.44755C22.628 9.54783 20.3099 13.3583 20.3099 17.7087C20.3099 24.3245 25.6732 29.6878 32.2891 29.6878C36.6395 29.6878 40.4499 27.3697 42.5501 23.8941C43.1834 22.8457 44.3432 22.5087 45.2551 22.632C46.203 22.7599 47.3932 23.5074 47.3932 25.0003C47.3932 37.3693 37.3664 47.3962 24.9974 47.3962C12.6285 47.3962 2.60156 37.3693 2.60156 25.0003ZM37.4974 5.72949C36.6345 5.72949 35.9349 5.02993 35.9349 4.16699C35.9349 3.30405 36.6345 2.60449 37.4974 2.60449H45.8307C46.4626 2.60449 47.0324 2.98518 47.2743 3.56905C47.5161 4.15291 47.3824 4.82497 46.9355 5.27185L41.2697 10.9378H45.8307C46.6936 10.9378 47.3932 11.6374 47.3932 12.5003C47.3932 13.3633 46.6936 14.0628 45.8307 14.0628H37.4974C36.8655 14.0628 36.2957 13.6821 36.0539 13.0983C35.812 12.5144 35.9457 11.8423 36.3926 11.3955L42.0584 5.72949H37.4974ZM28.1224 18.2295C27.2595 18.2295 26.5599 17.5299 26.5599 16.667C26.5599 15.8041 27.2595 15.1045 28.1224 15.1045H34.3724C35.0043 15.1045 35.5741 15.4852 35.8159 16.0691C36.0578 16.6529 35.9241 17.325 35.4772 17.7718L31.8947 21.3545H34.3724C35.2353 21.3545 35.9349 22.0541 35.9349 22.917C35.9349 23.7799 35.2353 24.4795 34.3724 24.4795H28.1224C27.4905 24.4795 26.9207 24.0989 26.6789 23.5149C26.437 22.9312 26.5707 22.2591 27.0176 21.8122L30.6001 18.2295H28.1224Z" fill="#0071BA"/>
</svg>
