<svg width="50" height="50" viewBox="0 0 50 50" fill="none" xmlns="http://www.w3.org/2000/svg">
<path d="M40.6212 28.2751L24.9962 43.7501L18.9628 37.7751M6.21908 20.8918C6.20166 18.6946 6.87947 16.5482 8.15557 14.7595C9.43167 12.9708 11.2407 11.6315 13.324 10.9329C15.4072 10.2344 17.658 10.2126 19.7544 10.8705C21.8509 11.5284 23.6856 12.8324 24.9962 14.596C25.8577 13.4502 26.9464 12.4945 28.1943 11.7889C29.4421 11.0832 30.8222 10.6427 32.2481 10.495C33.674 10.3472 35.1151 10.4953 36.4811 10.9301C37.8471 11.3649 39.1087 12.0769 40.1869 13.0217C41.2651 13.9665 42.1366 15.1236 42.747 16.4207C43.3574 17.7178 43.6935 19.127 43.7343 20.5599C43.7751 21.9929 43.5196 23.4189 42.9839 24.7486C42.4483 26.0783 41.6439 27.2831 40.6212 28.2876" stroke="#0071BA" stroke-width="3.125" stroke-linecap="round" stroke-linejoin="round"/>
<path d="M6.25 27.083H10.4167L14.5833 33.333L18.75 20.833L20.8333 27.083H27.0833" stroke="#0071BA" stroke-width="3.125" stroke-linecap="round" stroke-linejoin="round"/>
</svg>
