<svg width="50" height="50" viewBox="0 0 50 50" fill="none" xmlns="http://www.w3.org/2000/svg">
<path d="M31.25 6.25C32.7952 6.25 34.3056 6.70819 35.5904 7.56664C36.8752 8.42509 37.8765 9.64524 38.4678 11.0728C39.0591 12.5003 39.2138 14.0712 38.9124 15.5866C38.6109 17.1021 37.8669 18.4942 36.7743 19.5868C35.6817 20.6794 34.2896 21.4234 32.7741 21.7249C31.2587 22.0263 29.6878 21.8716 28.2603 21.2803C26.8327 20.689 25.6126 19.6877 24.7541 18.4029C23.8957 17.1181 23.4375 15.6077 23.4375 14.0625C23.4375 11.9905 24.2606 10.0034 25.7257 8.53823C27.1909 7.0731 29.178 6.25 31.25 6.25ZM31.25 3.125C29.0868 3.125 26.9721 3.76647 25.1735 4.9683C23.3748 6.17013 21.9729 7.87833 21.1451 9.8769C20.3172 11.8755 20.1006 14.0746 20.5227 16.1963C20.9447 18.318 21.9864 20.2668 23.516 21.7965C25.0457 23.3261 26.9945 24.3678 29.1162 24.7898C31.2379 25.2119 33.437 24.9953 35.4356 24.1674C37.4342 23.3396 39.1424 21.9377 40.3442 20.139C41.546 18.3404 42.1875 16.2257 42.1875 14.0625C42.1875 11.1617 41.0352 8.3797 38.984 6.32852C36.9328 4.27734 34.1508 3.125 31.25 3.125Z" fill="#0071BA" stroke="#0071BA" stroke-width="0.208333"/>
<path d="M46.875 46.875H43.75V39.0625C43.75 36.9905 42.9269 35.0034 41.4618 33.5382C39.9966 32.0731 38.0095 31.25 35.9375 31.25H26.5625C24.4905 31.25 22.5034 32.0731 21.0382 33.5382C19.5731 35.0034 18.75 36.9905 18.75 39.0625V46.875H15.625V39.0625C15.625 36.1617 16.7773 33.3797 18.8285 31.3285C20.8797 29.2773 23.6617 28.125 26.5625 28.125H35.9375C38.8383 28.125 41.6203 29.2773 43.6715 31.3285C45.7227 33.3797 46.875 36.1617 46.875 39.0625V46.875Z" fill="#0071BA" stroke="#0071BA" stroke-width="0.208333"/>
<path d="M17.1875 12.5H7.8125C6.5693 12.5 5.37701 12.0061 4.49794 11.1271C3.61886 10.248 3.125 9.0557 3.125 7.8125V4.6875H6.25V7.8125C6.25 8.2269 6.41462 8.62433 6.70765 8.91735C7.00067 9.21038 7.3981 9.375 7.8125 9.375H17.1875V12.5Z" fill="#0071BA" stroke="#0071BA" stroke-width="0.208333"/>
<path d="M6.25 23.4375H3.125V20.3125C3.125 19.0693 3.61886 17.877 4.49794 16.9979C5.37701 16.1189 6.5693 15.625 7.8125 15.625H17.1875V18.75H7.8125C7.3981 18.75 7.00067 18.9146 6.70765 19.2076C6.41462 19.5007 6.25 19.8981 6.25 20.3125V23.4375Z" fill="#0071BA" stroke="#0071BA" stroke-width="0.208333"/>
</svg>
