<svg width="50" height="50" viewBox="0 0 50 50" fill="none" xmlns="http://www.w3.org/2000/svg">
<g clip-path="url(#clip0_302_1843)">
<path d="M37.5 31.25L35.2969 33.4531L40.8906 39.0625H15.625C13.9674 39.0625 12.3777 38.404 11.2056 37.2319C10.0335 36.0598 9.375 34.4701 9.375 32.8125C9.375 31.1549 10.0335 29.5652 11.2056 28.3931C12.3777 27.221 13.9674 26.5625 15.625 26.5625H34.375C36.8614 26.5625 39.246 25.5748 41.0041 23.8166C42.7623 22.0585 43.75 19.6739 43.75 17.1875C43.75 14.7011 42.7623 12.3165 41.0041 10.5584C39.246 8.80022 36.8614 7.8125 34.375 7.8125H9.10937L14.7031 2.20312L12.5 0L3.125 9.375L12.5 18.75L14.7031 16.5469L9.10937 10.9375H34.375C36.0326 10.9375 37.6223 11.596 38.7944 12.7681C39.9665 13.9402 40.625 15.5299 40.625 17.1875C40.625 18.8451 39.9665 20.4348 38.7944 21.6069C37.6223 22.779 36.0326 23.4375 34.375 23.4375H15.625C13.1386 23.4375 10.754 24.4252 8.99587 26.1834C7.23772 27.9415 6.25 30.3261 6.25 32.8125C6.25 35.2989 7.23772 37.6835 8.99587 39.4416C10.754 41.1998 13.1386 42.1875 15.625 42.1875H40.8906L35.2969 47.7969L37.5 50L46.875 40.625L37.5 31.25Z" fill="#0071BA" stroke="#0071BA" stroke-width="0.208333"/>
</g>
<defs>
<clipPath id="clip0_302_1843">
<rect width="50" height="50" fill="white"/>
</clipPath>
</defs>
</svg>
