<svg width="50" height="50" viewBox="0 0 50 50" fill="none" xmlns="http://www.w3.org/2000/svg">
<path d="M28.1304 32.3594C30.5798 30.8338 32.4657 28.552 33.5027 25.8591C34.5398 23.1663 34.6717 20.2089 33.8783 17.4345C33.0849 14.66 31.4096 12.2195 29.1056 10.482C26.8017 8.74452 23.9945 7.80469 21.1089 7.80469C18.2232 7.80469 15.4161 8.74452 13.1121 10.482C10.8082 12.2195 9.13279 14.66 8.33943 17.4345C7.54607 20.2089 7.67791 23.1663 8.71499 25.8591C9.75207 28.552 11.638 30.8338 14.0874 32.3594C10.0542 33.6797 6.42527 36.1465 3.50731 39.6191C3.24054 39.9364 3.11073 40.3467 3.14644 40.7597C3.18215 41.1726 3.38046 41.5545 3.69774 41.8213C4.01501 42.0881 4.42527 42.2179 4.83825 42.1822C5.25123 42.1464 5.63311 41.9481 5.89988 41.6309C9.81981 36.9512 15.2221 34.375 21.0991 34.375C26.9761 34.375 32.3784 36.9512 36.31 41.6309C36.5768 41.9481 36.9587 42.1464 37.3717 42.1822C37.7847 42.2179 38.1949 42.0881 38.5122 41.8213C38.8295 41.5545 39.0278 41.1726 39.0635 40.7597C39.0992 40.3467 38.9694 39.9364 38.7026 39.6191C35.7827 36.1465 32.1538 33.6797 28.1304 32.3594ZM10.9429 21.0937C10.9429 19.085 11.5385 17.1214 12.6545 15.4512C13.7705 13.7811 15.3567 12.4793 17.2125 11.7106C19.0683 10.9419 21.1104 10.7408 23.0805 11.1326C25.0506 11.5245 26.8603 12.4918 28.2807 13.9122C29.701 15.3326 30.6683 17.1422 31.0602 19.1124C31.4521 21.0825 31.251 23.1246 30.4823 24.9804C29.7136 26.8362 28.4118 28.4224 26.7416 29.5384C25.0714 30.6543 23.1078 31.25 21.0991 31.25C18.4064 31.2469 15.825 30.1759 13.921 28.2719C12.017 26.3679 10.946 23.7864 10.9429 21.0937ZM40.5054 12.8125C41.6189 15.4314 42.1928 18.248 42.1928 21.0937C42.1928 23.9395 41.6189 26.7561 40.5054 29.375C40.3851 29.6567 40.1848 29.8968 39.9292 30.0656C39.6737 30.2344 39.3741 30.3243 39.0679 30.3242C38.8092 30.3244 38.5546 30.2604 38.3267 30.1379C38.0989 30.0155 37.9051 29.8384 37.7626 29.6225C37.6201 29.4066 37.5334 29.1588 37.5104 28.9012C37.4873 28.6436 37.5285 28.3842 37.6304 28.1465C38.579 25.9162 39.0679 23.5174 39.0679 21.0937C39.0679 18.6701 38.579 16.2713 37.6304 14.041C37.4674 13.6598 37.4627 13.2294 37.617 12.8446C37.7714 12.4599 38.0723 12.1522 38.4536 11.9893C38.8348 11.8263 39.2652 11.8216 39.65 11.9759C40.0348 12.1303 40.3424 12.4313 40.5054 12.8125ZM48.4429 21.0937C48.4502 24.7971 47.6998 28.4627 46.2378 31.8652C46.0668 32.234 45.7588 32.5216 45.3792 32.667C44.9997 32.8124 44.5784 32.8042 44.2048 32.6441C43.8312 32.4839 43.5347 32.1845 43.3782 31.8094C43.2217 31.4343 43.2176 31.0129 43.3667 30.6348C44.6541 27.6186 45.3179 24.3732 45.3179 21.0937C45.3179 17.8143 44.6541 14.5689 43.3667 11.5527C43.2787 11.3631 43.2297 11.1577 43.2226 10.9488C43.2155 10.7399 43.2503 10.5316 43.3251 10.3364C43.3999 10.1412 43.5131 9.963 43.658 9.81232C43.8029 9.66165 43.9765 9.54158 44.1687 9.45923C44.3608 9.37689 44.5675 9.33393 44.7766 9.33292C44.9856 9.3319 45.1928 9.37284 45.3857 9.45332C45.5786 9.53379 45.7534 9.65216 45.8998 9.80142C46.0462 9.95068 46.1611 10.1278 46.2378 10.3223C47.6998 13.7248 48.4502 17.3904 48.4429 21.0937Z" fill="#0071BA"/>
</svg>
