<svg width="95" height="95" viewBox="0 0 95 95" fill="none" xmlns="http://www.w3.org/2000/svg">
<path d="M67.2995 39.5837V35.6253C67.2995 22.5635 67.2995 16.0326 63.2418 11.9748C59.1837 7.91699 52.6529 7.91699 39.5911 7.91699C26.5293 7.91699 19.9984 7.91699 15.9406 11.9748C11.8828 16.0326 11.8828 22.5635 11.8828 35.6253V59.3753C11.8828 72.437 11.8828 78.9679 15.9406 83.026C19.9984 87.0837 26.5293 87.0837 39.5911 87.0837C40.9833 87.0837 42.301 87.0837 43.5495 87.0789" stroke="#0071BA" stroke-width="5.9375" stroke-linecap="round"/>
<path d="M61.3594 65.3122V59.3747C61.3594 55.0023 64.9037 51.458 69.276 51.458C73.6484 51.458 77.1927 55.0023 77.1927 59.3747V65.3122M66.3073 87.083H72.2448C76.8871 87.083 79.2083 87.083 80.8071 85.8559C81.2187 85.5401 81.5873 85.1715 81.9031 84.7599C83.1302 83.1611 83.1302 80.8399 83.1302 76.1976C83.1302 71.5553 83.1302 69.2341 81.9031 67.6353C81.5873 67.2237 81.2187 66.8551 80.8071 66.5393C79.2083 65.3122 76.8871 65.3122 72.2448 65.3122H66.3073C61.665 65.3122 59.3438 65.3122 57.745 66.5393C57.3334 66.8551 56.9648 67.2237 56.649 67.6353C55.4219 69.2341 55.4219 71.5553 55.4219 76.1976C55.4219 80.8399 55.4219 83.1611 56.649 84.7599C56.9648 85.1715 57.3334 85.5401 57.745 85.8559C59.3438 87.083 61.665 87.083 66.3073 87.083Z" stroke="#0071BA" stroke-width="5.9375" stroke-linejoin="round"/>
<path d="M39.5859 75.208V75.2476" stroke="#0071BA" stroke-width="7.91667" stroke-linecap="round" stroke-linejoin="round"/>
</svg>
