<svg width="95" height="95" viewBox="0 0 95 95" fill="none" xmlns="http://www.w3.org/2000/svg">
<path d="M37.6094 37.6045H29.6927C20.4081 37.6045 15.7659 37.6045 12.5678 40.0583C11.7445 40.69 11.0076 41.4271 10.3758 42.2504C7.92188 45.4483 7.92188 50.0907 7.92188 59.3753C7.92188 68.66 7.92188 73.3023 10.3758 76.5003C11.0076 77.3236 11.7445 78.0606 12.5678 78.6924C15.7659 81.1462 20.4081 81.1462 29.6927 81.1462H37.6094C46.894 81.1462 51.5364 81.1462 54.7343 78.6924C55.5576 78.0606 56.2947 77.3236 56.9264 76.5003C59.3802 73.3023 59.3802 68.66 59.3802 59.3753C59.3802 50.0907 59.3802 45.4483 56.9264 42.2504C56.2947 41.4271 55.5576 40.69 54.7343 40.0583C51.5364 37.6045 46.894 37.6045 37.6094 37.6045Z" stroke="#0071BA" stroke-width="5.9375"/>
<path d="M46.5182 37.6045V26.7191C46.5182 19.6141 40.7585 13.8545 33.6536 13.8545C26.5487 13.8545 20.7891 19.6141 20.7891 26.7191V37.6045" stroke="#0071BA" stroke-width="5.9375" stroke-linecap="round"/>
<path d="M71.2558 37.6045C71.2558 39.2441 72.585 40.5732 74.2246 40.5732C75.8641 40.5732 77.1933 39.2441 77.1933 37.6045H71.2558ZM67.3022 34.6367C65.6623 34.6342 64.3311 35.9613 64.3287 37.6009C64.3264 39.2405 65.6532 40.5717 67.2927 40.574L67.3022 34.6367ZM67.2927 78.1766C65.6532 78.179 64.3264 79.5102 64.3287 81.1497C64.3311 82.7893 65.6623 84.1165 67.3022 84.1141L67.2927 78.1766ZM54.0505 12.671C52.5962 13.4288 52.0322 15.2218 52.7898 16.6758C53.5478 18.1297 55.3405 18.6941 56.7944 17.9363L54.0505 12.671ZM84.1204 59.3753C84.1204 64.0865 84.116 67.3716 83.8322 69.8875C83.5555 72.3436 83.0441 73.697 82.2798 74.6929L86.9906 78.3076C88.68 76.1056 89.3961 73.5386 89.7325 70.5529C90.0622 67.6269 90.0579 63.9484 90.0579 59.3753H84.1204ZM82.2798 74.6929C81.806 75.3104 81.2534 75.863 80.6359 76.3368L84.2506 81.0476C85.2798 80.2579 86.2009 79.3368 86.9906 78.3076L82.2798 74.6929ZM90.0579 59.3753C90.0579 54.8023 90.0622 51.1238 89.7325 48.1978C89.3961 45.212 88.68 42.645 86.9906 40.443L82.2798 44.0578C83.0441 45.0537 83.5555 46.407 83.8322 48.8632C84.116 51.3791 84.1204 54.6641 84.1204 59.3753H90.0579ZM80.6359 42.4139C81.2534 42.8877 81.806 43.4403 82.2798 44.0578L86.9906 40.443C86.2009 39.414 85.2798 38.4929 84.2506 37.7031L80.6359 42.4139ZM77.1933 37.6045V26.7191H71.2558V37.6045H77.1933ZM77.1933 26.7191C77.1933 17.9746 70.1043 10.8857 61.36 10.8857V16.8232C66.8252 16.8232 71.2558 21.2538 71.2558 26.7191H77.1933ZM67.2927 40.574C71.3227 40.5804 74.1664 40.6298 76.3541 40.9259C78.4821 41.2145 79.7124 41.7053 80.6359 42.4139L84.2506 37.7031C82.2117 36.1387 79.86 35.4092 77.1514 35.0423C74.5024 34.6835 71.2542 34.6428 67.3022 34.6367L67.2927 40.574ZM67.3022 84.1141C71.2542 84.1078 74.5024 84.067 77.1514 83.7084C79.86 83.3415 82.2117 82.6119 84.2506 81.0476L80.6359 76.3368C79.7124 77.0453 78.4821 77.5362 76.3541 77.8247C74.1664 78.1208 71.3227 78.1703 67.2927 78.1766L67.3022 84.1141ZM56.7944 17.9363C58.1573 17.226 59.7074 16.8232 61.36 16.8232V10.8857C58.7293 10.8857 56.2403 11.5296 54.0505 12.671L56.7944 17.9363Z" fill="#0071BA"/>
<path d="M23.7578 59.3757C23.7578 59.3757 27.7161 61.3548 29.6953 67.2923C29.6953 67.2923 35.6328 55.4173 43.5495 51.459" stroke="#0071BA" stroke-width="5.9375" stroke-linecap="round" stroke-linejoin="round"/>
</svg>
