<svg width="95" height="95" viewBox="0 0 95 95" fill="none" xmlns="http://www.w3.org/2000/svg">
<path fill-rule="evenodd" clip-rule="evenodd" d="M36.625 77.1875C36.625 75.548 37.9542 74.2188 39.5938 74.2188H55.4271C57.0666 74.2188 58.3958 75.548 58.3958 77.1875C58.3958 78.827 57.0666 80.1562 55.4271 80.1562H39.5938C37.9542 80.1562 36.625 78.827 36.625 77.1875ZM39.2639 87.0833C39.2639 85.4438 40.5932 84.1146 42.2328 84.1146H52.7881C54.4276 84.1146 55.7568 85.4438 55.7568 87.0833C55.7568 88.7229 54.4276 90.0521 52.7881 90.0521H42.2328C40.5932 90.0521 39.2639 88.7229 39.2639 87.0833Z" fill="#0071BA"/>
<path fill-rule="evenodd" clip-rule="evenodd" d="M16.8281 32.5302C16.8281 17.0739 30.8956 4.94824 47.5052 4.94824C64.1148 4.94824 78.1823 17.0739 78.1823 32.5302V32.5431C78.1443 41.2766 74.3878 49.9771 67.7145 56.306L67.7066 56.3139L63.3362 60.4275C62.7064 61.0204 62.349 61.8473 62.349 62.7122C62.349 66.8811 58.9693 70.2607 54.8004 70.2607H40.21C36.041 70.2607 32.6615 66.8811 32.6615 62.7122C32.6615 61.8473 32.3043 61.0204 31.6743 60.4275L27.304 56.3139L27.2958 56.306C20.6227 49.9771 16.8662 41.2766 16.8282 32.5431L16.8281 32.5302ZM22.7656 32.5238C22.7982 39.5916 25.854 46.7534 31.3776 51.9942L31.3817 51.9982L35.7436 56.1038C37.5658 57.8189 38.599 60.2101 38.599 62.7122C38.599 63.602 39.3202 64.3232 40.21 64.3232H54.8004C55.6903 64.3232 56.4115 63.602 56.4115 62.7122C56.4115 60.2101 57.4446 57.8189 59.2666 56.1038L63.6287 51.9982L63.6327 51.9946C69.1565 46.7534 72.2123 39.5916 72.2448 32.5235C72.2404 20.9774 61.4987 10.8857 47.5052 10.8857C33.5116 10.8857 22.7696 20.9776 22.7656 32.5238Z" fill="#0071BA"/>
</svg>
