<svg width="95" height="95" viewBox="0 0 95 95" fill="none" xmlns="http://www.w3.org/2000/svg">
<path d="M8.92271 61.8778C9.05714 60.5985 9.98422 59.5673 11.8384 57.5054L15.9197 52.9426C16.9174 51.6795 17.6253 49.4795 17.6253 47.4995C17.6253 45.5212 16.9171 43.3203 15.9196 42.0576L11.8384 37.4949C9.98422 35.4328 9.0571 34.4018 8.92271 33.1224C8.78829 31.843 9.48084 30.6411 10.8659 28.2374L12.8197 24.8467C14.2973 22.2824 15.0361 21.0002 16.2932 20.4889C17.5503 19.9776 18.9719 20.3811 21.8154 21.188L26.6454 22.5485C28.4608 22.9671 30.3653 22.7296 32.0229 21.878L33.3564 21.1086C34.7777 20.1982 35.871 18.8559 36.4762 17.2782L37.7981 13.3302C38.6672 10.7176 39.1018 9.41134 40.1363 8.66417C41.171 7.91699 42.5453 7.91699 45.2936 7.91699H49.7063C52.455 7.91699 53.8293 7.91699 54.8636 8.66417C55.8984 9.41134 56.333 10.7176 57.2022 13.3302L58.5239 17.2782C59.1291 18.8559 60.2224 20.1982 61.6439 21.1086L62.9774 21.878C64.6348 22.7296 66.5395 22.9671 68.3548 22.5485L73.1848 21.188C76.0281 20.3811 77.4499 19.9776 78.7071 20.4889C79.9642 21.0002 80.7029 22.2824 82.1805 24.8467L84.1343 28.2374C85.5194 30.6411 86.2117 31.843 86.0775 33.1224C85.9429 34.4018 85.0159 35.4328 83.1618 37.4949L79.0803 42.0576C78.0832 43.3203 77.3747 45.5212 77.3747 47.4995C77.3747 49.4795 78.0828 51.6795 79.0803 52.9426L83.1618 57.5054C85.0159 59.5673 85.9429 60.5985 86.0775 61.8778C86.2117 63.1575 85.5194 64.3593 84.1343 66.7628L82.1805 70.1535C80.7029 72.7177 79.9642 74.0002 78.7071 74.5112C77.4499 75.0226 76.0281 74.6193 73.1848 73.8122L68.3548 72.4517C66.5391 72.0329 64.6344 72.2708 62.9766 73.1226L61.6435 73.8921C60.222 74.8025 59.1291 76.1444 58.5243 77.7222L57.2022 81.6706C56.333 84.2831 55.8984 85.5894 54.8636 86.3363C53.8293 87.0837 52.455 87.0837 49.7063 87.0837H45.2936C42.5453 87.0837 41.171 87.0837 40.1363 86.3363C39.1018 85.5894 38.6672 84.2831 37.7981 81.6706" stroke="#0071BA" stroke-width="5.9375" stroke-linecap="round"/>
<path d="M10.8415 74.3368C15.1165 70.0618 29.6515 55.6693 31.0765 54.0068C32.5829 52.2493 31.3615 49.8743 32.0883 42.5118C32.4399 38.9493 33.2062 36.2804 35.399 34.2943C38.0115 31.8243 40.1492 31.8243 47.5117 31.6581C53.9242 31.8243 54.6842 31.1118 55.3492 32.7743C55.8242 33.9618 54.3992 34.6743 52.6892 36.5743C48.8892 40.3743 46.6567 42.2743 46.4429 43.4618C44.8992 48.6868 50.9792 51.7743 54.3042 48.4493C55.5613 47.1917 61.3817 41.3243 61.9517 40.8493C62.3792 40.4693 63.4024 40.4875 63.8992 41.0868C64.3267 41.5068 64.3742 41.5618 64.3267 43.4618C64.2827 45.2205 64.3021 47.7455 64.3077 50.3493C64.3144 53.723 64.1367 57.4743 62.7117 59.3743C59.8617 63.6493 55.1117 63.8868 50.8367 64.0768C46.7992 64.3143 43.4742 63.8868 42.4292 64.6468C41.5742 65.0743 37.0615 69.8243 31.599 75.2868L21.8615 85.0243C13.7865 91.4368 4.90402 81.4618 10.8415 74.3368Z" stroke="#0071BA" stroke-width="5.9375" stroke-linecap="round"/>
</svg>
