<svg width="95" height="95" viewBox="0 0 95 95" fill="none" xmlns="http://www.w3.org/2000/svg">
<path d="M44.5312 38.2978V65.3134C44.5312 66.1007 44.844 66.8559 45.4008 67.4126C45.9575 67.9694 46.7126 68.2821 47.5 68.2821C48.2874 68.2821 49.0425 67.9694 49.5992 67.4126C50.156 66.8559 50.4688 66.1007 50.4688 65.3134V38.2978C54.0729 37.562 57.2756 35.5143 59.4557 32.5515C61.6359 29.5887 62.6383 25.9219 62.2686 22.262C61.8989 18.6021 60.1834 15.2099 57.4547 12.7429C54.726 10.276 51.1785 8.91016 47.5 8.91016C43.8215 8.91016 40.274 10.276 37.5453 12.7429C34.8166 15.2099 33.1011 18.6021 32.7314 22.262C32.3617 25.9219 33.3641 29.5887 35.5443 32.5515C37.7244 35.5143 40.9271 37.562 44.5312 38.2978ZM47.5 14.8446C49.2615 14.8446 50.9834 15.367 52.448 16.3456C53.9127 17.3242 55.0542 18.7152 55.7283 20.3426C56.4024 21.97 56.5788 23.7608 56.2351 25.4884C55.8915 27.216 55.0432 28.803 53.7977 30.0485C52.5521 31.2941 50.9652 32.1423 49.2375 32.486C47.5099 32.8296 45.7191 32.6533 44.0917 31.9792C42.4643 31.3051 41.0734 30.1635 40.0947 28.6989C39.1161 27.2343 38.5938 25.5124 38.5938 23.7509C38.5938 21.3888 39.5321 19.1235 41.2023 17.4532C42.8726 15.783 45.1379 14.8446 47.5 14.8446ZM89.0625 65.3134C89.0625 76.8841 67.6467 83.1259 47.5 83.1259C27.3533 83.1259 5.9375 76.8841 5.9375 65.3134C5.9375 62.4411 7.35137 58.2144 14.1016 54.3995C18.6512 51.8241 24.9078 49.8462 32.1998 48.6772C32.5855 48.6163 32.9795 48.632 33.3591 48.7233C33.7388 48.8146 34.0968 48.9799 34.4126 49.2095C34.7284 49.4392 34.9959 49.7288 35.1998 50.0619C35.4037 50.3949 35.54 50.7649 35.6009 51.1506C35.6618 51.5363 35.6461 51.9302 35.5548 52.3099C35.4635 52.6896 35.2983 53.0475 35.0686 53.3634C34.8389 53.6792 34.5493 53.9467 34.2162 54.1506C33.8832 54.3545 33.5133 54.4907 33.1275 54.5517C26.6186 55.5981 20.8814 57.3831 17.0146 59.58C13.749 61.4169 11.875 63.5099 11.875 65.3134C11.875 70.2712 25.4273 77.1884 47.5 77.1884C69.5727 77.1884 83.125 70.2712 83.125 65.3134C83.125 63.5099 81.251 61.4169 77.9853 59.5651C74.1037 57.3683 68.3814 55.5833 61.8725 54.5368C61.4785 54.4854 61.099 54.3554 60.7562 54.1545C60.4135 53.9537 60.1145 53.6861 59.877 53.3677C59.6396 53.0492 59.4684 52.6863 59.3738 52.3005C59.2791 51.9147 59.2628 51.5138 59.3259 51.1216C59.389 50.7294 59.5302 50.3538 59.7411 50.0171C59.9519 49.6805 60.2282 49.3895 60.5536 49.1616C60.879 48.9337 61.2468 48.7734 61.6352 48.6902C62.0237 48.607 62.4249 48.6026 62.815 48.6772C70.107 49.8462 76.3637 51.8241 80.9133 54.3995C87.6486 58.2144 89.0625 62.4411 89.0625 65.3134Z" fill="#0071BA"/>
</svg>
