<svg width="95" height="95" viewBox="0 0 95 95" fill="none" xmlns="http://www.w3.org/2000/svg">
<path d="M47.5026 31.667C49.6022 31.667 51.6159 32.5011 53.1005 33.9857C54.5852 35.4704 55.4193 37.484 55.4193 39.5837V55.417C55.4193 57.5166 54.5852 59.5303 53.1005 61.0149C51.6159 62.4996 49.6022 63.3337 47.5026 63.3337C45.403 63.3337 43.3893 62.4996 41.9047 61.0149C40.42 59.5303 39.5859 57.5166 39.5859 55.417V39.5837C39.5859 37.484 40.42 35.4704 41.9047 33.9857C43.3893 32.5011 45.403 31.667 47.5026 31.667Z" stroke="#0071BA" stroke-width="5" stroke-linecap="round" stroke-linejoin="round"/>
<path d="M67.2891 59.3753C68.6547 61.7503 72.2686 63.3337 75.2057 63.3337C77.3054 63.3337 79.319 62.4996 80.8037 61.0149C82.2883 59.5303 83.1224 57.5166 83.1224 55.417C83.1224 53.3174 82.2883 51.3037 80.8037 49.8191C79.319 48.3344 77.3054 47.5003 75.2057 47.5003C73.1061 47.5003 71.0925 46.6662 69.6078 45.1816C68.1231 43.6969 67.2891 41.6833 67.2891 39.5837C67.2891 37.484 68.1231 35.4704 69.6078 33.9857C71.0925 32.5011 73.1061 31.667 75.2057 31.667C78.1586 31.667 81.7607 33.2266 83.1224 35.6253" stroke="#0071BA" stroke-width="5" stroke-linecap="round" stroke-linejoin="round"/>
<path d="M11.875 59.3753C13.2406 61.7503 16.8546 63.3337 19.7917 63.3337C21.8913 63.3337 23.9049 62.4996 25.3896 61.0149C26.8743 59.5303 27.7083 57.5166 27.7083 55.417C27.7083 53.3174 26.8743 51.3037 25.3896 49.8191C23.9049 48.3344 21.8913 47.5003 19.7917 47.5003C17.692 47.5003 15.6784 46.6662 14.1937 45.1816C12.7091 43.6969 11.875 41.6833 11.875 39.5837C11.875 37.484 12.7091 35.4704 14.1937 33.9857C15.6784 32.5011 17.692 31.667 19.7917 31.667C22.7446 31.667 26.3467 33.2266 27.7083 35.6253" stroke="#0071BA" stroke-width="5" stroke-linecap="round" stroke-linejoin="round"/>
</svg>
