<svg width="95" height="95" viewBox="0 0 95 95" fill="none" xmlns="http://www.w3.org/2000/svg">
<path fill-rule="evenodd" clip-rule="evenodd" d="M49.4825 10.8857C45.6568 10.8857 42.5554 13.9871 42.5554 17.8128C42.5554 21.6386 45.6568 24.7399 49.4825 24.7399C53.3082 24.7399 56.4096 21.6386 56.4096 17.8128C56.4096 13.9871 53.3082 10.8857 49.4825 10.8857ZM36.6178 17.8128C36.6178 10.7079 42.3777 4.94824 49.4825 4.94824C56.5873 4.94824 62.3471 10.7079 62.3471 17.8128C62.3471 24.9178 56.5873 30.6774 49.4825 30.6774C42.3777 30.6774 36.6178 24.9178 36.6178 17.8128ZM53.5509 42.5651C53.4001 42.5544 53.2112 42.5524 52.5296 42.5524H48.2107L47.8501 46.1604C47.1609 53.0495 46.9215 55.818 47.537 58.4376C48.1525 61.0568 49.5997 63.4287 53.2845 69.2902L63.4764 85.5035C64.3492 86.8917 63.9312 88.7244 62.543 89.5972C61.1548 90.4696 59.3225 90.0516 58.4497 88.6638L48.2574 72.4501C48.1604 72.2961 48.0646 72.1433 47.9696 71.9925C44.6652 66.7374 42.6259 63.4948 41.7566 59.7953C40.8878 56.0958 41.2693 52.2844 41.888 46.1078C41.9058 45.9305 41.9237 45.7511 41.9419 45.5698L42.2431 42.556C40.2596 42.5663 38.7919 42.6047 37.6072 42.7483C36.1141 42.9296 35.4177 43.2451 34.9244 43.6406C34.4311 44.0364 33.9722 44.648 33.4713 46.0662C32.9436 47.5609 32.4891 49.5824 31.8127 52.6264L30.6096 58.0402C30.2539 59.6405 28.6681 60.6499 27.0676 60.2941C25.467 59.9386 24.4578 58.3529 24.8135 56.7521L26.0553 51.1642C26.6826 48.3407 27.2108 45.9637 27.8726 44.089C28.575 42.1 29.5316 40.3547 31.2091 39.0093C32.8866 37.6636 34.7979 37.1083 36.8919 36.8542C38.8652 36.6147 41.3002 36.6148 44.193 36.6149H52.5296C52.5625 36.6149 52.5953 36.6149 52.6274 36.6149C53.1657 36.6148 53.5841 36.6147 53.9756 36.6428C58.3852 36.9589 62.1654 39.9106 63.5417 44.1116C63.6636 44.4845 63.7653 44.8906 63.8956 45.4127L63.9193 45.5077C64.1414 46.3963 64.2075 46.6485 64.2688 46.8246C65.1009 49.2238 67.614 50.6033 70.0848 50.0174C70.2665 49.9747 70.5147 49.8947 71.384 49.6054L74.2727 48.6423C75.8284 48.1238 77.5095 48.9645 78.028 50.5197C78.5466 52.0754 77.7058 53.7565 76.1502 54.275L73.2614 55.2381C73.2178 55.2523 73.1751 55.267 73.1331 55.2808C72.4523 55.508 71.9294 55.6822 71.4548 55.795C66.0192 57.0838 60.4902 54.0486 58.6591 48.771C58.4992 48.3098 58.3658 47.7754 58.192 47.0788C58.1813 47.036 58.1702 46.9921 58.1592 46.9477C57.9937 46.2867 57.9462 46.1038 57.8991 45.9601C57.2737 44.0506 55.5554 42.7088 53.5509 42.5651ZM41.2333 66.8012C42.5974 67.7104 42.9663 69.5538 42.0567 70.9178L30.1817 88.7303C29.2722 90.0948 27.429 90.4633 26.0648 89.5537C24.7006 88.6444 24.332 86.801 25.2414 85.437L37.1164 67.6245C38.0259 66.2601 39.8693 65.8915 41.2333 66.8012Z" fill="#0071BA"/>
</svg>
