<svg width="95" height="95" viewBox="0 0 95 95" fill="none" xmlns="http://www.w3.org/2000/svg">
<path d="M27.7109 71.2497V27.708C27.7109 25.6084 28.545 23.5947 30.0297 22.1101C31.5143 20.6254 33.528 19.7913 35.6276 19.7913H37.6068C38.1317 19.7913 38.6351 19.5828 39.0063 19.2117C39.3774 18.8405 39.5859 18.3371 39.5859 17.8122C39.5859 17.2873 39.7945 16.7839 40.1656 16.4127C40.5368 16.0415 41.0402 15.833 41.5651 15.833H53.4401C53.965 15.833 54.4684 16.0415 54.8396 16.4127C55.2108 16.7839 55.4193 17.2873 55.4193 17.8122C55.4193 18.3371 55.6278 18.8405 55.999 19.2117C56.3701 19.5828 56.8735 19.7913 57.3984 19.7913H59.3776C61.4772 19.7913 63.4909 20.6254 64.9755 22.1101C66.4602 23.5947 67.2943 25.6084 67.2943 27.708V71.2497C67.2943 73.3493 66.4602 75.3629 64.9755 76.8476C63.4909 78.3323 61.4772 79.1663 59.3776 79.1663H35.6276C33.528 79.1663 31.5143 78.3323 30.0297 76.8476C28.545 75.3629 27.7109 73.3493 27.7109 71.2497Z" stroke="#0071BA" stroke-width="5" stroke-linecap="round" stroke-linejoin="round"/>
<path d="M39.5859 67.292H55.4193" stroke="#0071BA" stroke-width="5" stroke-linecap="round" stroke-linejoin="round"/>
<path d="M39.5859 55.417H55.4193" stroke="#0071BA" stroke-width="5" stroke-linecap="round" stroke-linejoin="round"/>
<path d="M39.5859 43.542H55.4193" stroke="#0071BA" stroke-width="5" stroke-linecap="round" stroke-linejoin="round"/>
<path d="M39.5859 31.667H55.4193" stroke="#0071BA" stroke-width="5" stroke-linecap="round" stroke-linejoin="round"/>
</svg>
