<svg width="95" height="95" viewBox="0 0 95 95" fill="none" xmlns="http://www.w3.org/2000/svg">
<path d="M11.875 47.5H15.8333M47.5 11.875V15.8333M79.1667 47.5H83.125M22.1667 22.1667L24.9375 24.9375M72.8333 22.1667L70.0625 24.9375" stroke="#0071BA" stroke-width="5" stroke-linecap="round" stroke-linejoin="round"/>
<path d="M35.6276 63.333C32.3045 60.8407 29.8498 57.3659 28.6112 53.4009C27.3726 49.4359 27.413 45.1818 28.7266 41.241C30.0402 37.3002 32.5604 33.8727 35.9302 31.4438C39.3001 29.015 43.3487 27.708 47.5026 27.708C51.6565 27.708 55.7052 29.015 59.075 31.4438C62.4448 33.8727 64.965 37.3002 66.2786 41.241C67.5922 45.1818 67.6326 49.4359 66.394 53.4009C65.1555 57.3659 62.7007 60.8407 59.3776 63.333C57.8321 64.8628 56.6685 66.735 55.9808 68.798C55.2932 70.861 55.1008 73.0569 55.4193 75.208C55.4193 77.3076 54.5852 79.3213 53.1005 80.8059C51.6159 82.2906 49.6022 83.1247 47.5026 83.1247C45.403 83.1247 43.3893 82.2906 41.9047 80.8059C40.42 79.3213 39.5859 77.3076 39.5859 75.208C39.9044 73.0569 39.712 70.861 39.0244 68.798C38.3367 66.735 37.1731 64.8628 35.6276 63.333Z" stroke="#0071BA" stroke-width="5" stroke-linecap="round" stroke-linejoin="round"/>
<path d="M38.3984 67.292H56.6068" stroke="#0071BA" stroke-width="5" stroke-linecap="round" stroke-linejoin="round"/>
</svg>
