<svg width="95" height="95" viewBox="0 0 95 95" fill="none" xmlns="http://www.w3.org/2000/svg">
<path d="M37.6016 7.91699V15.8337" stroke="#0071BA" stroke-width="5" stroke-linecap="round" stroke-linejoin="round"/>
<path d="M57.3984 7.91699V15.8337" stroke="#0071BA" stroke-width="5" stroke-linecap="round" stroke-linejoin="round"/>
<path d="M37.6016 79.167V87.0837" stroke="#0071BA" stroke-width="5" stroke-linecap="round" stroke-linejoin="round"/>
<path d="M57.3984 79.167V87.0837" stroke="#0071BA" stroke-width="5" stroke-linecap="round" stroke-linejoin="round"/>
<path d="M87.0807 57.3955H79.1641" stroke="#0071BA" stroke-width="5" stroke-linecap="round" stroke-linejoin="round"/>
<path d="M15.8307 37.6045H7.91406" stroke="#0071BA" stroke-width="5" stroke-linecap="round" stroke-linejoin="round"/>
<path d="M15.8307 57.3955H7.91406" stroke="#0071BA" stroke-width="5" stroke-linecap="round" stroke-linejoin="round"/>
<path d="M87.0807 37.6045H79.1641" stroke="#0071BA" stroke-width="5" stroke-linecap="round" stroke-linejoin="round"/>
<path d="M50.2466 33.6455L41.9697 43.689C41.0827 44.7653 41.7184 46.3142 43.1648 46.6007L51.8351 48.3183C53.3773 48.6238 53.9655 50.3382 52.8872 51.3848L42.6177 61.3538" stroke="#0071BA" stroke-width="5" stroke-linecap="round" stroke-linejoin="round"/>
<path d="M15.8359 47.4997C15.8359 32.5718 15.8359 25.108 20.4734 20.4705C25.1109 15.833 32.5748 15.833 47.5026 15.833C62.4303 15.833 69.8945 15.833 74.5317 20.4705C79.1693 25.108 79.1693 32.5718 79.1693 47.4997C79.1693 62.4273 79.1693 69.8916 74.5317 74.5288C69.8945 79.1663 62.4303 79.1663 47.5026 79.1663C32.5748 79.1663 25.1109 79.1663 20.4734 74.5288C15.8359 69.8916 15.8359 62.4273 15.8359 47.4997Z" stroke="#0071BA" stroke-width="5" stroke-linejoin="round"/>
</svg>
