<svg width="95" height="95" viewBox="0 0 95 95" fill="none" xmlns="http://www.w3.org/2000/svg">
<path d="M38.7353 23.75L71.253 56.2677L63.1226 64.3981C61.0031 66.6025 58.4651 68.3621 55.6573 69.5738C52.8496 70.7855 49.8283 71.4251 46.7704 71.4551C43.7124 71.485 40.6792 70.9049 37.8482 69.7485C35.0172 68.592 32.4452 66.8826 30.2828 64.7202C28.1204 62.5578 26.411 59.9859 25.2546 57.1549C24.0982 54.3239 23.518 51.2906 23.548 48.2327C23.578 45.1747 24.2175 42.1535 25.4293 39.3457C26.641 36.5379 28.4005 34 30.6049 31.8804L38.7353 23.75Z" stroke="#0071BA" stroke-width="5" stroke-linecap="round" stroke-linejoin="round"/>
<path d="M15.8359 79.1667L29.6901 65.3125" stroke="#0071BA" stroke-width="5" stroke-linecap="round" stroke-linejoin="round"/>
<path d="M59.3776 15.833L45.5234 29.6872" stroke="#0071BA" stroke-width="5" stroke-linecap="round" stroke-linejoin="round"/>
<path d="M79.1667 35.625L65.3125 49.4792" stroke="#0071BA" stroke-width="5" stroke-linecap="round" stroke-linejoin="round"/>
</svg>
