<svg width="1848" height="1476" viewBox="0 0 1848 1476" fill="none" xmlns="http://www.w3.org/2000/svg">
<mask id="mask0_269_1117" style="mask-type:alpha" maskUnits="userSpaceOnUse" x="-246" y="-32" width="1956" height="1440">
<path d="M842.443 509.828C842.443 657.088 745.078 776.465 624.973 776.465C504.867 776.465 -245.539 259.968 -245.539 112.708C-245.539 -34.5518 832.649 168.179 952.754 168.179C1072.86 168.179 842.443 362.568 842.443 509.828Z" fill="url(#paint0_linear_269_1117)"/>
<path d="M926.909 1140.85C926.909 1288.11 829.544 1407.49 709.439 1407.49C589.333 1407.49 -79.7578 1373.17 -79.7578 1225.91C-79.7578 1078.65 -30.2995 729.821 89.806 729.821C209.912 729.821 926.909 993.593 926.909 1140.85Z" fill="url(#paint1_radial_269_1117)"/>
<path d="M1173.6 510.232C1497.67 802.92 1347.97 655.832 1626.32 648.422C1669.98 656.833 1744.11 657.233 1691.29 591.541C1625.28 509.427 1646.55 451.429 1564.05 361.965C1481.55 272.501 1431.31 181.607 1306.75 39.317C1182.19 -102.973 1172.61 14.3208 1032.19 3.20166C891.771 -7.91744 955.817 9.74005 762.073 216.197C568.329 422.654 849.538 217.543 1173.6 510.232Z" fill="#D9D9D9"/>
<path d="M867.658 970.613C433.978 1021.67 643.254 1005.91 465.495 1220.23C430.406 1247.55 381.281 1303.06 465.495 1306.59C570.764 1311 600.39 1365.21 722.047 1362.06C843.705 1358.91 945.191 1380.97 1134.3 1380.97C1323.4 1380.97 1241.45 1296.5 1342.31 1198.17C1443.17 1099.83 1387.7 1136.4 1359.96 854.629C1332.23 572.863 1301.34 919.555 867.658 970.613Z" fill="#D9D9D9"/>
</mask>
<g mask="url(#mask0_269_1117)">
<line x1="51.9883" y1="815.548" x2="1563.56" y2="815.548" stroke="#DBEFFE" stroke-width="1.2607"/>
<line x1="51.9883" y1="1138.29" x2="1563.56" y2="1138.29" stroke="#DBEFFE" stroke-width="1.2607"/>
<line x1="51.9883" y1="492.81" x2="1563.56" y2="492.81" stroke="#DBEFFE" stroke-width="1.2607"/>
<line x1="51.9883" y1="170.069" x2="1563.56" y2="170.069" stroke="#DBEFFE" stroke-width="1.2607"/>
<line x1="51.9883" y1="1299.66" x2="1563.56" y2="1299.66" stroke="#DBEFFE" stroke-width="1.2607"/>
<line x1="51.9883" y1="654.178" x2="1563.56" y2="654.178" stroke="#DBEFFE" stroke-width="1.2607"/>
<line x1="51.9883" y1="976.916" x2="1563.56" y2="976.916" stroke="#DBEFFE" stroke-width="1.2607"/>
<line x1="51.9883" y1="331.439" x2="1563.56" y2="331.439" stroke="#DBEFFE" stroke-width="1.2607"/>
<line x1="51.9883" y1="8.70119" x2="1563.56" y2="8.70119" stroke="#DBEFFE" stroke-width="1.2607"/>
<line x1="51.9883" y1="1380.34" x2="1563.56" y2="1380.34" stroke="#DBEFFE" stroke-width="1.2607"/>
<line x1="51.9883" y1="734.863" x2="1563.56" y2="734.863" stroke="#DBEFFE" stroke-width="1.2607"/>
<line x1="51.9883" y1="1057.6" x2="1563.56" y2="1057.6" stroke="#DBEFFE" stroke-width="1.2607"/>
<line x1="51.9883" y1="412.125" x2="1563.56" y2="412.125" stroke="#DBEFFE" stroke-width="1.2607"/>
<line x1="51.9883" y1="89.3863" x2="1563.56" y2="89.3863" stroke="#DBEFFE" stroke-width="1.2607"/>
<line x1="51.9883" y1="1218.97" x2="1563.56" y2="1218.97" stroke="#DBEFFE" stroke-width="1.2607"/>
<line x1="51.9883" y1="573.493" x2="1563.56" y2="573.493" stroke="#DBEFFE" stroke-width="1.2607"/>
<line x1="51.9883" y1="896.233" x2="1563.56" y2="896.233" stroke="#DBEFFE" stroke-width="1.2607"/>
<line x1="51.9883" y1="250.754" x2="1563.56" y2="250.754" stroke="#DBEFFE" stroke-width="1.2607"/>
<line x1="99.2632" y1="141.705" x2="99.2631" y2="1309.11" stroke="#DBEFFE" stroke-width="1.2607"/>
<line x1="744.744" y1="141.705" x2="744.744" y2="1309.11" stroke="#DBEFFE" stroke-width="1.2607"/>
<line x1="422.003" y1="141.705" x2="422.003" y2="1309.11" stroke="#DBEFFE" stroke-width="1.2607"/>
<line x1="1067.48" y1="141.705" x2="1067.48" y2="1309.11" stroke="#DBEFFE" stroke-width="1.2607"/>
<line x1="1390.22" y1="141.705" x2="1390.22" y2="1309.11" stroke="#DBEFFE" stroke-width="1.2607"/>
<line x1="260.634" y1="141.705" x2="260.634" y2="1309.11" stroke="#DBEFFE" stroke-width="1.2607"/>
<line x1="906.109" y1="141.705" x2="906.109" y2="1309.11" stroke="#DBEFFE" stroke-width="1.2607"/>
<line x1="583.374" y1="141.705" x2="583.374" y2="1309.11" stroke="#DBEFFE" stroke-width="1.2607"/>
<line x1="1228.85" y1="141.705" x2="1228.85" y2="1309.11" stroke="#DBEFFE" stroke-width="1.2607"/>
<line x1="1551.59" y1="141.705" x2="1551.59" y2="1309.11" stroke="#DBEFFE" stroke-width="1.2607"/>
<line x1="179.951" y1="141.705" x2="179.951" y2="1309.11" stroke="#DBEFFE" stroke-width="1.2607"/>
<line x1="825.427" y1="141.705" x2="825.427" y2="1309.11" stroke="#DBEFFE" stroke-width="1.2607"/>
<line x1="502.687" y1="141.705" x2="502.687" y2="1309.11" stroke="#DBEFFE" stroke-width="1.2607"/>
<line x1="1148.17" y1="141.705" x2="1148.17" y2="1309.11" stroke="#DBEFFE" stroke-width="1.2607"/>
<line x1="1470.9" y1="141.705" x2="1470.9" y2="1309.11" stroke="#DBEFFE" stroke-width="1.2607"/>
<line x1="341.32" y1="141.705" x2="341.32" y2="1309.11" stroke="#DBEFFE" stroke-width="1.2607"/>
<line x1="986.796" y1="141.705" x2="986.796" y2="1309.11" stroke="#DBEFFE" stroke-width="1.2607"/>
<line x1="664.056" y1="141.705" x2="664.056" y2="1309.11" stroke="#DBEFFE" stroke-width="1.2607"/>
<line x1="1309.53" y1="141.705" x2="1309.53" y2="1309.11" stroke="#DBEFFE" stroke-width="1.2607"/>
<line x1="1632.27" y1="141.705" x2="1632.27" y2="1309.11" stroke="#DBEFFE" stroke-width="1.2607"/>
<g opacity="0.7">
<rect x="906.168" y="976.859" width="80.2262" height="80.2262" fill="#EFF8FF" fill-opacity="0.36"/>
<rect x="502.746" y="976.859" width="80.2262" height="80.2262" fill="#EFF8FF" fill-opacity="0.25"/>
<rect x="1229.37" y="412.983" width="80.2262" height="79.0801" fill="#EFF8FF" fill-opacity="0.11"/>
<rect x="582.971" y="332.757" width="80.2262" height="79.0801" fill="#DBEFFE" fill-opacity="0.31"/>
<rect x="1147.99" y="493.209" width="80.2262" height="79.0801" fill="#EFF8FF" fill-opacity="0.11"/>
<rect x="501.6" y="412.983" width="80.2262" height="79.0801" fill="#DBEFFE" fill-opacity="0.31"/>
<rect x="1147.99" y="412.983" width="80.2262" height="79.0801" fill="#EFF8FF" fill-opacity="0.11"/>
<rect x="501.6" y="332.757" width="80.2262" height="79.0801" fill="#DBEFFE" fill-opacity="0.31"/>
<rect x="422.52" y="976.859" width="80.2262" height="80.2262" fill="#EFF8FF" fill-opacity="0.25"/>
<rect x="422.52" y="1057.08" width="80.2262" height="81.3723" fill="#EFF8FF" fill-opacity="0.25"/>
<rect x="260.92" y="896.632" width="80.2262" height="80.2262" fill="#EFF8FF" fill-opacity="0.25"/>
<rect x="1065.77" y="251.384" width="80.2262" height="80.2262" fill="#EFF8FF" fill-opacity="0.61"/>
<rect x="987.541" y="169.697" width="80.2262" height="80.2262" fill="#EFF8FF" fill-opacity="0.61"/>
<rect x="986.664" y="250.238" width="80.2262" height="81.3723" fill="#EFF8FF" fill-opacity="0.61"/>
<rect x="260.922" y="330.464" width="81.3723" height="82.5184" fill="#DBEFFE" fill-opacity="0.24"/>
<rect x="179.549" y="250.238" width="81.3723" height="80.2262" fill="#DBEFFE" fill-opacity="0.24"/>
<rect x="99.3223" y="251.384" width="81.3723" height="80.2262" fill="#DBEFFE" fill-opacity="0.24"/>
<rect x="179.549" y="330.464" width="81.3723" height="82.5184" fill="#DBEFFE" fill-opacity="0.24"/>
<rect x="502.746" y="170.012" width="81.3723" height="80.2262" fill="#DBEFFE"/>
<rect x="260.922" y="492.063" width="80.2262" height="81.3723" fill="#DBEFFE" fill-opacity="0.24"/>
<rect x="1229.37" y="896.632" width="80.2262" height="80.2262" fill="#EFF8FF" fill-opacity="0.26"/>
<rect x="1309.59" y="976.858" width="80.2262" height="80.2262" fill="#EFF8FF" fill-opacity="0.26"/>
</g>
</g>
<defs>
<linearGradient id="paint0_linear_269_1117" x1="273.868" y1="186.459" x2="728.35" y2="428.513" gradientUnits="userSpaceOnUse">
<stop stop-color="white"/>
<stop offset="1" stop-color="white" stop-opacity="0"/>
</linearGradient>
<radialGradient id="paint1_radial_269_1117" cx="0" cy="0" r="1" gradientUnits="userSpaceOnUse" gradientTransform="translate(239.199 1147.11) rotate(-29.3932) scale(777.019 1335.47)">
<stop stop-color="white"/>
<stop offset="1" stop-color="white" stop-opacity="0"/>
</radialGradient>
</defs>
</svg>
